<svg width="280" height="280" viewBox="0 0 280 280" fill="none" xmlns="http://www.w3.org/2000/svg">
<rect width="279.998" height="280" rx="20" fill="white"/>
<path d="M90.3389 176.835C90.3389 179.295 90.5882 181.732 90.2884 184.1C89.6139 189.416 90.4079 194.839 88.9705 200.1C88.5097 201.785 88.9705 203.461 90.4138 205.245V201.439L91.0134 201.274C91.1819 201.706 91.5358 202.16 91.4898 202.568C91.1188 205.867 90.6736 209.156 90.2491 212.448C89.4306 218.795 88.6009 225.141 87.7958 231.49C87.3602 234.926 86.9988 238.371 86.5261 241.802C86.4044 242.683 86.5744 243.141 87.4619 243.362C88.6076 243.648 89.7319 244.018 90.9459 244.375C91.0683 244.05 91.2242 243.804 91.2472 243.547C91.9291 236.072 92.6141 228.596 93.2634 221.117C93.8311 214.585 94.2741 208.041 94.9301 201.519C95.3894 196.953 96.1055 192.411 96.7415 187.864C96.8008 187.441 97.108 187.051 97.3002 186.646C97.4249 186.686 97.5488 186.726 97.6735 186.766C97.6735 187.01 97.7047 187.26 97.669 187.499C96.9663 192.224 96.1241 196.933 95.5823 201.675C94.9783 206.96 94.6347 212.275 94.1999 217.578C93.7761 222.741 93.4066 227.909 92.9643 233.07C92.6408 236.848 92.2393 240.619 91.8312 244.812C105.023 246.439 118.156 248.059 131.437 249.697C131.473 249.077 131.521 248.669 131.515 248.262C131.455 243.838 131.494 239.41 131.297 234.992C130.993 228.158 130.54 221.331 130.091 214.505C130.066 214.124 129.551 213.723 129.185 213.427C127.788 212.296 127.108 210.701 127.097 209.063C127.085 207.266 127.635 205.465 127.979 203.436C127.858 203.348 127.488 203.079 127.121 202.805C125.491 201.589 124.815 199.865 125.663 198.035C128.353 192.225 129.275 185.988 130.315 179.776C130.721 177.352 131.009 174.907 131.363 172.39C128.416 171.363 127.254 169.218 127.457 166.218C125.995 168.098 126.537 169.323 130.274 172.662C128.642 172.602 126.823 171.085 126.219 169.276C125.651 167.578 126.145 165.985 127.598 164.847C127.823 164.672 128.064 164.518 128.297 164.352C129.562 163.456 129.82 162.337 129.073 160.996C127.766 158.65 128.532 156.45 131.156 155.753C132.933 155.28 133.944 154.424 134.669 152.714C135.832 149.967 137.65 149.311 140.569 150.038C141.069 150.162 141.706 150.122 142.176 149.919C144.974 148.712 147.46 149.098 149.077 151.351C149.516 151.961 150.475 152.281 151.26 152.547C153.871 153.437 154.428 154.32 153.893 156.997C153.398 159.481 153.914 160.624 156.444 161.624C160.3 163.149 160.187 166.515 158.533 169.356C158.457 169.486 158.24 169.535 157.987 169.68C158.301 168.023 158.592 166.484 158.884 164.945C158.7 164.896 158.517 164.846 158.332 164.797C158.324 166.951 157.351 168.582 155.843 169.979C155.611 170.195 155.625 170.893 155.775 171.27C157.827 176.403 159.104 181.733 159.712 187.207C160.042 190.177 160.152 193.176 160.217 196.166C160.252 197.761 159.351 198.898 157.893 199.64C157.421 199.881 156.979 200.407 156.774 200.906C155.928 202.962 155.354 205.15 154.335 207.11C153.562 208.597 153.334 209.956 153.59 211.576C155.055 220.828 156.37 230.105 157.913 239.344C158.485 242.771 159.538 246.119 160.395 249.598C163.526 249.378 166.462 249.171 169.596 248.951V239.531C168.649 239.428 167.666 239.32 166.684 239.214C165.696 239.107 165.213 238.702 165.274 237.568C165.462 234.055 165.541 230.536 165.647 227.018C165.747 223.691 165.799 220.362 165.923 217.036C166.187 209.964 166.613 202.913 168.721 196.082C169.795 192.605 171.367 189.378 173.429 186.381C174.041 185.492 174.583 184.555 175.293 183.422C174.154 183.496 173.277 183.492 172.421 183.624C171.307 183.797 170.545 183.393 170.12 182.396C168.341 178.237 167.971 173.965 169.236 169.601C169.59 168.381 170.421 167.588 171.723 167.308C172.447 167.153 173.143 166.871 173.98 166.605C173.569 166.022 173.246 165.509 172.87 165.037C170.813 162.455 170.769 160.093 172.664 157.388C173.396 156.345 174.129 155.27 174.645 154.113C175.888 151.324 178.863 150.127 181.696 150.256C183.885 150.356 186.043 152.54 186.694 155.3C187.019 156.682 187.06 158.129 187.377 159.513C187.895 161.772 188.532 164.003 189.125 166.245C189.16 166.379 189.216 166.542 189.318 166.62C192.273 168.885 192.424 172.444 193.447 175.59C193.768 176.575 193.913 177.623 194.088 178.649C194.379 180.341 193.845 181.164 192.157 181.533C191 181.785 189.823 181.979 188.645 182.092C187.828 182.17 187.527 182.566 187.632 183.294C188.348 188.237 188.356 193.362 191.327 197.734C191.476 197.952 191.493 198.259 191.384 198.584C187.574 194.545 187.91 189.148 186.764 184.432C184.174 184.432 181.67 184.433 179.165 184.43C178.832 184.43 178.451 184.502 178.174 184.37C176.409 183.526 175.631 184.515 174.664 185.855C169.941 192.4 168.095 199.871 167.304 207.712C167.174 209.006 167.069 210.302 167.117 211.63C168.96 202.418 171.682 193.545 176.535 185.438C176.645 185.255 176.863 185.136 177.321 185.131C177.119 185.642 176.975 186.186 176.705 186.658C173.603 192.091 171.251 197.828 169.756 203.898C167.648 212.45 166.721 221.171 166.184 229.94C166.05 232.121 166.078 234.314 165.889 236.489C165.768 237.882 166.252 238.425 167.625 238.597C169.797 238.868 169.779 238.858 169.973 236.722C170.62 229.584 171.168 222.429 172.108 215.328C172.953 208.951 174.253 202.634 175.385 196.296C175.534 195.459 175.874 194.657 176.392 193.898C173.327 208.524 171.48 223.277 170.643 238.131C172.915 238.814 173.475 238.373 173.649 236.257C174.257 228.829 174.871 221.4 175.599 213.983C176.066 209.219 176.734 204.475 177.326 199.724C177.365 199.409 177.513 199.106 177.785 198.86C176.548 211.911 175.31 224.962 174.087 237.872C174.487 238.091 174.568 238.174 174.648 238.174C177.844 238.197 177.903 238.054 178.198 234.927C178.811 228.411 179.414 221.89 180.233 215.398C181.047 208.951 182.066 202.528 183.118 196.115C183.407 194.354 184.136 192.665 184.663 190.943L185.366 190.977C186.12 193.829 186.873 196.681 187.627 199.532L188.047 199.437C187.279 195.067 186.511 190.697 185.742 186.327C185.952 186.285 186.16 186.244 186.369 186.203C186.542 187.073 186.725 187.941 186.887 188.813C187.549 192.352 188.196 195.893 188.863 199.432C189.526 202.951 190.303 206.453 190.859 209.989C191.807 216.011 192.209 222.029 191.2 228.131C190.211 234.115 189.623 240.165 188.865 246.186C188.855 246.268 188.924 246.359 189.013 246.596C195.894 245.52 202.803 244.44 209.754 243.353C209.754 242.488 209.797 241.83 209.748 241.18C209.253 234.598 208.844 228.006 208.206 221.437C207.684 216.057 207.389 210.577 206.07 205.375C204.626 199.684 205.19 194.057 205.148 188.398C205.114 183.751 205.426 179.103 205.541 174.453C205.55 174.102 205.259 173.686 205.001 173.395C202.469 170.543 202.273 168.227 204.336 165.021C204.593 164.621 204.808 164.172 205.144 163.849C206.295 162.741 206.599 161.444 206.529 159.858C206.377 156.377 209.915 151.436 213.252 150.386C214.024 150.143 214.991 150.138 215.772 150.361C221.718 152.057 225.621 160.639 223.075 166.383C222.971 166.294 222.787 166.193 222.801 166.14C223.292 164.119 222.211 163.258 220.447 162.764C219.743 162.567 219.124 162.072 218.394 161.674C217.968 162.86 218.171 163.975 219.048 164.663C220.255 165.611 221.599 166.468 223.016 167.038C224.369 167.583 225.653 168.15 226.027 169.592C226.759 172.416 227.373 175.277 227.892 178.149C228.177 179.728 228.168 181.36 228.307 183.163C228.94 182.827 229.497 182.534 230.05 182.236C232.522 180.908 235.025 179.628 237.445 178.21C238.049 177.855 238.599 177.115 238.813 176.437C240.143 172.219 240.932 167.891 241.163 163.468C241.311 160.64 241.694 157.92 244.539 156.582C243.952 155.945 243.459 155.393 242.946 154.861C242.796 154.706 242.603 154.546 242.402 154.495C240.566 154.027 240.412 153.57 241.57 151.969C241.677 151.822 241.757 151.656 241.959 151.313C241.496 150.924 240.966 150.587 240.577 150.132C239.052 148.347 239.366 146.19 241.273 144.868C241.564 144.666 241.856 144.385 242.004 144.074C242.878 142.223 242.863 142.216 244.766 141.725C244.384 139.367 246.579 138.963 247.887 137.898C248.202 137.641 249.109 137.852 249.598 138.117C250.654 138.689 251.512 138.508 252.323 137.75C253.36 136.781 254.379 136.683 255.441 137.711C255.599 137.864 255.846 137.961 256.068 138.004C257.823 138.349 258.767 139.46 258.901 141.337C260.271 141.353 261.309 141.889 261.612 143.39C261.656 143.608 261.925 143.846 262.148 143.953C263.76 144.725 263.968 145.633 262.809 146.976C262.599 147.219 262.397 147.468 261.972 147.979C262.365 148.237 262.76 148.424 263.062 148.71C264.546 150.115 264.416 151.582 262.771 152.912C262.501 153.129 262.166 153.624 262.247 153.86C262.796 155.475 261.932 156.252 260.64 156.837C260.47 156.914 260.314 157.019 260.039 157.174C261.937 159.502 261.801 162.275 262.015 165.011C262.245 167.934 262.773 170.832 263.098 173.749C263.517 177.511 263.856 181.281 264.247 185.047C264.339 185.942 264.422 186.85 264.646 187.717C264.965 188.949 264.824 189.995 264.062 191.069C263.654 191.645 263.674 192.506 263.418 193.208C262.033 197.007 263.779 200.544 264.339 204.171C264.706 206.55 265.218 208.914 265.8 211.251C266.029 212.171 265.714 212.619 265.003 212.949C263.624 213.59 262.206 214.149 260.852 214.837C260.486 215.022 260.069 215.538 260.054 215.917C259.859 220.904 259.73 225.894 259.59 230.884C259.586 231.019 259.637 231.153 259.691 231.444C266.411 230.119 273.123 228.888 279.908 228.215C279.938 228.421 279.97 228.627 280 228.833C278.456 229.06 276.908 229.256 275.371 229.522C270.42 230.375 265.469 231.23 260.533 232.167C260.135 232.242 259.602 232.936 259.571 233.373C259.481 234.646 259.754 235.952 259.615 237.214C259.506 238.21 259.135 239.246 258.611 240.099C258.31 240.588 257.378 241.087 256.899 240.957C256.403 240.823 255.854 239.968 255.779 239.372C255.579 237.781 255.611 236.159 255.572 234.549C255.561 234.136 255.628 233.721 255.679 233.045C253.849 233.514 252.18 233.952 250.505 234.368C248.899 234.766 247.301 235.218 245.673 235.499C244.58 235.688 244.304 236.28 244.258 237.251C244.198 238.528 244.14 239.819 243.895 241.069C243.702 242.057 243.459 243.26 242.052 243.21C240.989 243.171 239.991 241.73 240.054 240.445C240.108 239.361 240.236 238.28 240.353 236.957C236.569 237.918 232.971 238.832 229.133 239.807C228.853 238.423 228.467 237.073 228.322 235.697C227.688 229.68 226.296 223.846 224.354 218.122C224.045 217.212 223.674 216.909 222.772 216.977C221.878 217.045 220.976 216.992 219.959 216.992C222.255 224.785 224.519 232.471 226.854 240.399C222.189 241.463 217.875 242.447 213.519 243.441V217.099H208.605C208.9 220.841 209.205 224.55 209.482 228.262C209.849 233.188 210.212 238.115 210.51 243.045C210.53 243.369 210.023 243.975 209.689 244.031C204.214 244.956 198.729 245.818 193.244 246.686C191.575 246.949 189.902 247.188 187.97 247.477C188.411 243.79 188.939 240.331 189.215 236.851C189.71 230.618 191.559 224.527 191.075 218.19C190.694 213.206 190.06 208.278 188.545 203.494C188.459 203.223 188.364 202.954 188.268 202.686C187.359 200.141 186.23 199.503 183.665 200.167C183.403 200.235 183.092 200.64 183.045 200.929C182.536 204.016 182.065 207.109 181.62 210.206C181.578 210.498 181.769 210.832 181.881 211.136C182.712 213.407 183.811 215.619 184.318 217.96C184.905 220.672 185.179 223.492 185.227 226.272C185.348 233.4 185.267 240.531 185.267 247.883C181.018 248.391 177.042 248.866 173.011 249.348V239.108C170.695 238.775 170.537 238.892 170.522 241.222C170.505 243.93 170.519 246.637 170.519 249.616C167.205 249.857 164.055 250.088 160.697 250.332C161.641 253.262 162.572 256.155 163.553 259.205C162.594 258.775 161.845 258.44 161.097 258.104C161.005 258.257 160.911 258.41 160.818 258.563C161.483 259.164 162.147 259.766 162.812 260.366C162.733 260.501 162.654 260.637 162.575 260.771C162.079 260.489 161.527 260.272 161.101 259.909C160.231 259.169 159.344 258.65 158.136 258.926C157.728 259.019 157.282 258.955 156.853 258.946C153.632 258.878 153.02 258.382 152.312 255.251C152.082 254.236 151.753 253.224 151.686 252.196C151.617 251.127 151.21 250.824 150.179 250.891C148.851 250.978 147.512 250.899 146.177 250.897C144.894 250.894 143.609 250.897 142.065 250.897C142.21 252.256 142.349 253.59 142.495 254.925C142.563 255.538 142.673 256.147 142.714 256.762C142.856 258.851 142.495 259.332 140.459 259.76C139.902 259.877 139.33 259.994 138.767 259.987C136.718 259.962 134.698 259.949 133.443 262.011C133.39 262.1 133.101 262.046 132.499 262.088C133.222 261.133 133.757 260.426 134.241 259.785C133.46 259.325 132.418 259.029 131.949 258.343C131.505 257.695 131.605 256.638 131.567 255.757C131.501 254.284 131.486 252.808 131.508 251.334C131.521 250.503 131.216 250.213 130.363 250.121C120.77 249.087 111.177 248.037 101.593 246.919C98.7725 246.589 95.9831 245.998 93.1691 245.598C92.5784 245.514 91.9432 245.744 91.1418 245.856C89.9552 244.241 87.8284 244.446 86.0787 244.084C85.4004 243.653 84.8824 243.141 84.2665 242.961C79.616 241.602 74.9506 240.293 70.2763 239.017C69.8288 238.895 69.2893 239.109 68.6556 239.182C68.551 238.134 67.469 238.034 66.4153 237.759C62.6018 236.765 58.8106 235.683 54.9978 234.684C54.5429 234.565 54.0086 234.75 53.3504 234.809C52.6262 233 50.5966 233.732 49.0538 233.08C48.8297 233.598 48.6539 234.005 48.2717 234.889C48.3251 232.772 47.0807 232.635 45.8852 232.355C43.6263 231.827 41.3793 231.247 39.1375 230.651C38.722 230.541 38.3547 230.251 37.9658 230.044L38.1573 229.563C41.3897 230.378 44.6222 231.192 47.9949 232.042C48.4038 229.855 48.8134 227.734 49.1956 225.607C50.1246 220.433 51.1212 215.271 51.9368 210.079C52.5846 205.954 53.0358 201.797 53.4959 197.646C53.5745 196.937 53.2725 196.181 53.1226 195.453C52.8859 194.302 52.382 193.144 52.4302 192.008C52.543 189.356 52.1015 186.816 51.4485 184.277C49.7825 177.794 50.0504 171.299 51.335 164.792C51.5249 163.829 51.6533 162.787 51.493 161.835C50.7146 157.201 52.7679 153.929 56.3825 151.395C58.9122 149.621 61.5176 147.956 64.0377 146.17C64.7931 145.634 65.4358 144.903 66.0064 144.166C66.2075 143.906 66.0383 143.361 66.0383 142.907C61.0976 145.053 57.1632 148.093 53.533 151.548C52.6069 152.429 51.7357 153.391 50.9684 154.412C49.7128 156.085 49.252 157.922 49.8256 160.045C50.1276 161.163 50.1454 162.408 50.0304 163.569C49.951 164.372 49.4234 165.13 49.0954 165.908C48.9492 165.852 48.803 165.797 48.6561 165.741C48.7036 165.451 48.7741 165.163 48.7956 164.871C48.9017 163.428 49.3165 161.917 49.0279 160.556C48.383 157.518 49.062 154.899 51.2288 152.863C53.5812 150.653 55.1024 147.983 56.5651 145.197C57.1468 144.089 57.9668 143.02 58.9137 142.206C61.4701 140.012 64.6173 140.38 66.9036 142.863C69.2196 145.379 70.7772 148.089 70.2941 151.706C70.1746 152.6 70.6555 153.661 71.0992 154.523C71.9548 156.182 72.4669 157.851 72.0802 159.724C72.0142 160.044 72.0142 160.392 72.058 160.717C72.7214 165.642 73.3277 170.576 74.0957 175.486C74.5699 178.516 75.3698 181.495 75.8893 184.52C76.4176 187.595 76.8852 190.69 77.1612 193.795C77.2599 194.907 76.8354 196.118 76.4273 197.201C76.218 197.756 75.519 198.128 75.0411 198.583C74.8838 198.502 74.7257 198.422 74.5684 198.341C74.6627 197.17 74.7576 195.998 74.8519 194.826C74.9691 194.827 75.0856 194.829 75.2029 194.83V197C75.447 195.433 76.6173 194.163 76.1765 192.36C75.5739 189.895 75.5465 187.296 75.1183 184.781C74.5788 181.611 73.7588 178.486 73.2898 175.307C72.7704 171.791 72.5774 168.228 72.1122 164.702C71.8094 162.407 71.3768 160.089 68.6422 158.453C68.6422 160.296 68.4515 161.844 68.6771 163.329C69.4296 168.288 70.2369 173.244 71.212 178.163C71.7997 181.129 73.0368 183.985 73.4382 186.964C73.9169 190.514 74.118 194.159 73.8983 197.73C73.4991 204.219 72.7822 210.692 72.0461 217.155C71.3263 223.469 70.4143 229.76 69.5943 236.063C69.5216 236.62 69.5105 237.186 69.463 237.868C74.8185 239.408 80.1087 240.93 85.6067 242.513C85.7766 241.434 85.9681 240.391 86.1017 239.339C86.9558 232.61 87.7958 225.88 88.644 219.15C89.1182 215.384 89.645 211.623 90.0383 207.849C90.1185 207.081 89.9025 206.136 89.4855 205.489C88.1312 203.388 88.0169 201.256 88.4028 198.818C88.9193 195.551 89.0061 192.211 89.1731 188.897C89.438 183.633 89.5953 178.363 89.8417 173.098C89.9567 170.641 90.6995 169.205 92.6022 167.458C91.9826 166.965 91.3214 166.528 90.7693 165.98C89.1768 164.403 89.179 162.252 90.9199 160.878C93.0074 159.231 94.4455 157.345 95.0399 154.643C95.615 152.029 97.4479 151.107 100.487 151.107C101.159 151.107 101.839 150.601 102.5 150.633C104.384 150.724 106.034 151.58 106.746 153.312C107.673 155.568 108.467 157.937 108.867 160.333C109.224 162.471 109.642 164.367 111.367 165.867C112.771 167.088 112.959 168.494 111.882 170.062C110.923 171.458 109.662 172.646 108.551 173.939C108.288 174.247 107.872 174.624 107.895 174.944C108.096 177.92 107.965 180.999 108.724 183.838C110.179 189.276 112.092 194.598 113.939 199.925C114.819 202.464 114.953 204.807 113.383 207.127C113.074 207.584 112.977 208.29 113.023 208.863C113.622 216.248 114.286 223.628 114.887 231.013C115.168 234.469 115.35 237.934 115.564 241.396C115.583 241.697 115.502 242.005 115.468 242.31C115.349 242.323 115.231 242.336 115.112 242.348C115.013 241.702 114.872 241.058 114.823 240.407C114.297 233.538 113.833 226.664 113.258 219.798C112.664 212.706 112.112 205.605 111.262 198.542C110.724 194.064 108.767 190.006 106.353 186.206C106.134 185.861 105.548 185.58 105.119 185.562C102.409 185.45 99.6949 185.394 96.9819 185.392C96.6413 185.392 96.1233 185.737 95.986 186.052C93.8793 190.878 92.6779 195.842 92.5592 201.197C92.3944 208.598 91.6768 215.991 91.0899 223.379C90.7819 227.254 90.2521 231.11 89.8098 234.973C89.7749 235.275 89.6398 235.565 89.5515 235.86C89.4002 235.832 89.248 235.803 89.0967 235.775C89.1634 234.692 89.1909 233.604 89.3037 232.526C89.9871 225.966 90.8405 219.42 91.3325 212.847C91.6642 208.41 91.4253 203.934 91.5781 199.479C91.662 197.032 91.9803 194.587 92.2831 192.154C92.6393 189.292 93.1046 186.443 93.4964 183.584C93.5802 182.975 93.5268 182.348 93.5788 181.733C93.8155 178.948 93.2745 178.096 90.3411 176.838L90.3389 176.835ZM108.71 172.525C109.652 171.313 110.772 170.191 111.452 168.848C111.736 168.288 111.339 166.978 110.809 166.489C109.003 164.82 108.212 162.864 108.103 160.445C107.959 157.254 104.808 153.769 101.819 153.359C103.068 155.006 104.278 156.584 105.468 158.178C106.418 159.45 106.928 160.908 106.612 162.461C106.293 164.025 106.919 165.04 107.913 166.135C108.56 166.847 109.09 167.89 109.174 168.828C109.283 170.05 108.898 171.316 108.725 172.559C108.628 171.434 108.624 170.29 108.402 169.191C108.232 168.349 108.011 167.297 107.421 166.803C105.753 165.403 105.436 163.714 105.628 161.712C105.712 160.842 105.505 159.944 105.413 158.847C104.716 160.467 104.179 161.761 103.606 163.039C102.951 164.495 102.984 166.468 103.877 166.968C106.072 168.2 107.579 169.851 107.927 172.432C107.997 172.948 108.36 173.218 108.71 172.525H108.71ZM151.326 204.174C151.026 204.615 150.726 205.056 150.426 205.498L150.024 205.351C150.279 204.62 150.549 203.894 150.785 203.157C151.022 202.418 151.563 201.574 151.387 200.938C150.357 197.238 149.184 193.576 147.973 189.93C147.834 189.513 147.155 188.992 146.731 188.997C143.317 189.034 140.05 188.394 136.919 187.084C136.576 187.488 136.272 187.85 135.964 188.208C132.75 191.945 130.492 196.149 130.359 201.158C130.263 204.749 130.489 208.353 130.673 211.946C131.128 220.807 131.744 229.661 132.094 238.525C132.316 244.13 132.173 249.748 132.204 255.36C132.207 255.927 132.167 256.541 132.365 257.049C132.567 257.569 132.941 258.202 133.408 258.409C135.838 259.483 138.354 259.583 140.907 258.786C141.788 258.512 142.109 258.01 141.971 257.09C141.726 255.453 141.503 253.81 141.368 252.16C140.788 245.061 139.982 237.968 139.753 230.858C139.459 221.692 139.634 212.511 139.621 203.337C139.621 202.859 139.754 202.38 139.825 201.903C139.999 201.871 140.173 201.841 140.346 201.81C140.662 202.54 141.004 203.26 141.289 204.002C145.456 214.834 147.459 226.22 149.833 237.506C151.107 243.561 152.158 249.663 153.269 255.752C153.557 257.325 154.511 258.152 155.995 258.109C157.987 258.054 159.971 257.746 162.287 257.514C156.373 241.752 154.825 225.577 152.565 209.469C152.026 209.779 151.661 209.988 151.235 210.232C150.973 209.101 150.556 208.129 150.578 207.167C150.601 206.158 151.044 205.158 151.304 204.154C151.642 204.088 151.98 204.02 152.38 203.941V205.606C152.442 205.613 152.504 205.621 152.566 205.628C152.671 205.324 152.775 205.02 152.88 204.716C152.961 204.741 153.041 204.766 153.122 204.791C152.776 206.11 152.431 207.43 152.058 208.852C153.732 207.219 155.896 202.23 156.019 199.646C153.928 200.746 151.853 201.62 151.324 204.174L151.326 204.174ZM238.337 178.661C235.031 180.441 231.938 182.091 228.868 183.783C228.598 183.931 228.324 184.35 228.317 184.65C228.239 188.294 226.899 191.588 225.64 194.927C225.21 196.069 225.191 197.375 225.06 198.615C224.96 199.563 224.979 200.526 224.945 201.482C224.765 201.48 224.585 201.477 224.405 201.476C224.323 200.583 224.241 199.69 224.159 198.797C223.798 199.143 223.729 199.527 223.625 199.9C222.978 202.226 222.155 204.426 219.809 205.642C219.143 205.987 218.474 206.07 218.347 205.256C218.013 203.112 217.766 201.012 219.536 199.157C222.031 196.544 222.878 193.485 221.282 190.017C220.846 189.069 220.417 188.106 220.114 187.111C219.869 186.302 219.404 186.14 218.642 186.149C216.117 186.182 213.59 186.113 211.066 186.184C210.628 186.195 210.019 186.591 209.802 186.983C207.781 190.616 206.785 194.493 206.711 198.689C206.612 204.279 207.633 209.739 208.234 215.25C208.336 216.185 208.879 216.238 209.612 216.234C213.091 216.213 216.569 216.22 220.047 216.219C221.412 216.218 222.777 216.219 224.394 216.219V202.235C224.57 202.223 224.745 202.211 224.92 202.199C224.974 202.602 225.076 203.005 225.076 203.408C225.077 207.641 225.046 211.875 225.066 216.108C225.07 216.902 225.2 217.71 225.379 218.486C226.422 222.998 227.543 227.492 228.542 232.013C229.029 234.216 229.308 236.465 229.714 238.881C233.15 237.974 236.455 237.142 239.721 236.185C240.097 236.074 240.491 235.274 240.502 234.785C240.62 229.32 240.523 223.847 240.791 218.391C240.917 215.814 240.457 214.037 237.769 213.235C236.675 212.909 236.4 212.072 236.708 210.854C237.589 207.364 238.212 203.809 239.113 200.326C240.973 193.144 242.92 185.984 244.898 178.834C245.328 177.281 246.04 175.806 246.622 174.296C246.483 174.249 246.343 174.201 246.203 174.154C240.451 180.994 239.821 189.578 238.444 197.932C238.227 197.193 238.223 196.487 238.144 195.788C237.942 194.002 237.69 192.222 237.494 190.436C237.386 189.46 237.217 188.465 237.308 187.501C237.58 184.627 237.967 181.764 238.337 178.663V178.661ZM58.766 177.797C58.6621 177.764 58.5583 177.731 58.4544 177.697C58.303 177.961 58.1049 178.209 58.0084 178.491C57.2745 180.639 56.5584 182.793 55.8423 184.947C55.2494 186.731 55.3199 188.458 56.0983 190.206C56.6675 191.484 56.9116 192.858 56.407 194.499C56.1584 194.11 55.9796 193.942 55.935 193.742C55.4891 191.766 54.954 189.8 54.6661 187.8C54.3893 185.878 54.5451 183.888 54.212 181.98C53.1953 176.155 54.5244 170.448 54.9065 164.695C55.0349 162.759 55.2137 160.827 55.3688 158.894C55.1878 158.856 55.0067 158.816 54.8256 158.778C54.4895 159.371 54.1303 159.952 53.8216 160.559C52.4711 163.215 51.9627 166.094 51.5516 169.01C51.0589 172.501 50.8415 175.958 51.3988 179.491C52.0896 183.868 53.6487 188.118 53.2777 192.673C53.1916 193.725 53.9159 194.844 54.2676 195.932C54.4257 195.9 54.5845 195.869 54.7425 195.837V192.737C54.9466 192.727 55.1507 192.717 55.3547 192.707C55.5017 194.277 55.6479 195.848 55.82 197.689C55.1403 197.349 54.8086 197.184 54.3745 196.966C54.2565 197.658 54.1437 198.212 54.0695 198.772C53.4216 203.656 52.8926 208.558 52.1097 213.419C51.1687 219.261 49.997 225.066 48.9833 230.897C48.9121 231.305 49.2097 232.078 49.5228 232.198C50.7376 232.667 52.0273 232.939 53.5552 233.358C56.8886 219.721 60.1826 206.247 63.4767 192.772C63.8737 193.059 64.0481 193.339 64.0726 193.63C64.5304 199.207 65.2161 204.779 65.3556 210.364C65.5463 218.016 65.32 225.678 65.2703 233.336C65.2569 235.418 66.207 236.793 68.1206 237.46C68.2445 237.503 68.3899 237.483 68.637 237.5C68.9413 235.375 69.2767 233.273 69.5372 231.161C70.2459 225.414 70.9248 219.663 71.6105 213.913C72.504 206.413 73.364 198.914 73.2371 191.336C73.1473 185.994 71.0065 181.492 67.7696 177.411C67.5529 177.137 66.9993 176.944 66.6431 176.996C64.3961 177.32 62.161 177.724 59.8272 178.118C59.0725 180.627 58.2844 183.246 57.4964 185.865C57.3049 185.816 57.1142 185.767 56.9227 185.718C57.5379 183.078 58.1523 180.437 58.7675 177.797L58.766 177.797ZM260.277 214.125C260.277 213.458 260.337 212.976 260.268 212.514C258.91 203.579 257.647 194.626 256.112 185.721C255.553 182.476 254.372 179.334 253.397 176.168C253.208 175.557 252.768 174.729 252.258 174.562C250.337 173.932 249.392 174.519 248.813 176.422C248.51 177.417 248.147 178.406 247.964 179.425C246.886 185.433 245.723 191.431 244.842 197.468C244.084 202.671 243.682 207.924 243.081 213.151C242.947 214.323 243.367 214.821 244.522 215.091C249.87 216.341 255.061 215.56 260.276 214.125H260.277ZM134.178 174.26C134.4 174.232 134.622 174.203 134.843 174.175C134.902 174.591 134.927 175.015 135.026 175.422C135.659 178.031 136.247 180.656 137.001 183.23C137.165 183.791 137.865 184.369 138.453 184.603C141.313 185.74 144.321 186.167 147.385 185.992C147.872 185.964 148.603 185.408 148.746 184.949C149.601 182.188 150.343 179.392 151.068 176.593C151.355 175.484 151.502 174.338 151.712 173.21C151.871 173.223 152.028 173.236 152.186 173.25C152.186 173.655 152.289 174.095 152.17 174.463C151.292 177.154 152.115 179.424 153.668 181.641C154.98 183.514 155.546 185.701 155.361 187.994C155.154 190.542 154.829 193.08 154.527 195.62C154.378 196.876 154.267 198.086 155.697 198.78C155.901 198.438 156.071 198.152 156.301 197.769C156.525 198.282 156.687 198.654 156.845 199.018C158.831 198.399 159.682 197.403 159.567 195.506C159.364 192.193 159.216 188.86 158.713 185.585C157.987 180.855 157.112 176.118 154.972 171.77C154.432 170.674 153.583 169.396 152.551 168.949C150.7 168.148 148.601 167.914 146.416 167.398C146.416 168.459 146.354 169.222 146.425 169.973C146.896 174.931 144.215 179.151 143.185 184.1C141.888 178.515 139.301 173.575 139.714 167.714C137.906 168.231 136.496 168.622 135.093 169.036C133.618 169.47 132.819 170.556 132.457 171.964C132.175 173.062 132.022 174.192 131.815 175.309C130.782 180.894 129.844 186.5 128.668 192.054C128.242 194.071 127.223 195.959 126.516 197.921C125.777 199.969 126.559 201.786 128.486 202.409V200.072C128.811 200.837 128.987 201.254 129.18 201.709C129.651 199.675 130 197.712 130.575 195.818C131.07 194.192 131.934 192.679 132.436 191.056C133.176 188.663 133.679 186.197 134.4 183.796C134.901 182.129 135.132 180.542 134.682 178.794C134.307 177.336 134.33 175.775 134.177 174.261L134.178 174.26ZM263.182 190.871C264.317 189.775 263.904 188.621 263.772 187.438C263.441 184.468 263.287 181.478 262.962 178.507C262.4 173.373 261.787 168.242 261.135 163.118C260.964 161.766 260.8 160.338 260.24 159.126C258.807 156.028 255.018 155.728 253.089 158.487C251.871 160.227 251.1 162.147 251.131 164.334C251.162 166.474 251.133 168.614 251.115 170.755C251.112 171.125 251.036 171.495 250.994 171.864C250.839 171.867 250.683 171.868 250.528 171.87C250.474 171.409 250.37 170.947 250.373 170.486C250.388 168.06 250.569 165.626 250.418 163.212C250.305 161.388 249.856 159.57 249.387 157.793C249.252 157.28 248.559 156.594 248.07 156.548C245.189 156.282 242.623 158.519 242.204 161.401C241.572 165.752 240.895 170.097 240.207 174.441C239.533 178.697 238.745 182.939 238.17 187.208C237.985 188.586 238.315 190.033 238.409 191.448C238.949 190.197 239.018 188.949 239.358 187.781C240.484 183.921 241.722 180.093 242.891 176.245C243.877 172.998 245.23 169.813 244.338 166.27C244.135 165.463 244.309 164.563 244.309 163.705C244.494 163.691 244.68 163.676 244.866 163.662C244.942 164.097 244.982 164.542 245.1 164.965C245.696 167.093 246.248 169.238 246.977 171.321C247.126 171.746 247.954 172.158 248.489 172.184C250.436 172.282 252.394 172.254 254.343 172.175C254.744 172.159 255.378 171.79 255.478 171.458C256.192 169.061 256.792 166.629 257.443 164.213C257.528 163.898 257.696 163.605 257.827 163.301C258.165 164.135 258.18 164.869 258.162 165.603C258.136 166.64 257.929 167.7 258.078 168.708C258.435 171.141 258.857 173.572 259.428 175.963C260.61 180.911 261.906 185.832 263.183 190.871H263.182ZM140.489 204.429C139.741 219.652 140.417 234.827 141.932 250.062H151.338C148.551 234.604 145.838 219.233 140.489 204.429ZM54.3055 233.524C57.6826 234.487 60.9982 235.432 64.6173 236.463C64.5119 222.73 65.317 209.178 63.5746 195.751C60.4973 208.293 57.417 220.844 54.3055 233.524V233.524ZM225.603 239.891C225.415 238.928 225.332 238.176 225.117 237.463C223.131 230.889 221.129 224.319 219.095 217.759C219 217.453 218.576 217.056 218.284 217.037C217.069 216.956 215.845 217.003 214.328 217.003V242.423C218.031 241.591 221.716 240.764 225.603 239.891V239.891ZM184.148 247.255C184.214 246.732 184.294 246.404 184.292 246.077C184.239 238.43 183.982 230.778 184.199 223.139C184.309 219.25 182.387 216.118 181.422 212.599C180.896 215.414 180.465 218.216 180.182 221.033C179.68 226.037 179.276 231.052 178.815 236.06C178.599 238.412 178.267 238.722 175.905 238.937C175.763 238.95 175.617 238.966 175.477 238.95C174.309 238.812 173.885 239.325 173.879 240.49C173.868 242.58 173.723 244.669 173.644 246.759C173.624 247.297 173.641 247.837 173.641 248.473C177.265 248.053 180.656 247.66 184.148 247.255ZM105.275 177.9C107.127 176.446 107.243 174.567 106.874 172.546C106.506 170.531 105.674 168.83 103.699 167.77C103.542 169.351 103.488 170.776 103.238 172.164C102.987 173.553 102.54 174.906 102.179 176.276C102.018 176.27 101.859 176.264 101.698 176.259C101.267 175.655 100.771 175.085 100.415 174.438C99.2727 172.361 98.1284 170.281 97.0954 168.148C96.6116 167.148 96.1574 166.852 95.0362 167.282C91.9425 168.468 89.8981 171.804 90.4428 175.06C90.4784 175.272 90.5964 175.518 90.7567 175.655C91.6746 176.44 92.6178 177.196 93.5513 177.961C93.8652 175.971 94.1553 174.133 94.4455 172.296C94.6666 172.322 94.8878 172.348 95.1089 172.375C95.0874 172.758 95.0614 173.142 95.0458 173.527C94.9954 174.776 94.9375 176.026 94.9071 177.276C94.8944 177.797 94.8744 178.331 94.9738 178.837C95.3241 180.621 95.7092 182.398 96.1292 184.166C96.176 184.364 96.5292 184.625 96.7422 184.627C99.6652 184.658 102.589 184.648 105.462 184.648C105.734 182.198 105.99 179.888 106.233 177.692C105.933 177.757 105.604 177.829 105.275 177.9ZM172.435 169.338C172.577 169.299 172.718 169.262 172.861 169.223C173.011 169.591 173.273 169.953 173.293 170.328C173.365 171.654 173.483 173 173.337 174.311C173.202 175.535 173.621 176.277 174.634 176.838C175.528 177.334 176.529 178.463 177.255 178.3C180.54 177.56 184.177 178.147 187.023 175.496C188.075 174.518 188.385 173.815 188.077 172.559C187.758 171.256 187.551 169.925 187.295 168.606C187.437 168.562 187.58 168.518 187.721 168.474C187.886 168.857 188.11 169.225 188.205 169.624C188.491 170.825 188.785 172.029 188.963 173.249C189.076 174.018 189.36 174.438 190.086 174.824C190.705 175.153 191.081 175.939 191.637 176.609C188.649 178.168 185.955 179.574 183.26 180.981C186.392 181.484 189.448 181.535 192.414 180.592C192.839 180.457 193.364 179.566 193.293 179.111C192.73 175.502 191.979 171.92 190.247 168.659C189.938 168.079 189.154 167.485 188.52 167.397C187.145 167.206 185.725 167.339 184.331 167.339C184.26 170.816 183.96 174.034 181.338 176.482C178.667 174.669 177.131 172.644 175.442 168.822C175.257 168.404 175.089 167.871 174.746 167.652C174.024 167.191 170.824 168.262 170.376 169.107C169.082 171.551 169.191 174.152 169.473 176.912C169.967 176.687 170.264 176.548 170.565 176.418C172.074 175.763 172.777 174.608 172.674 172.951C172.597 171.747 172.513 170.543 172.433 169.339L172.435 169.338ZM216.223 180.843C218.111 180.394 220.186 180.458 221.356 179.462C222.508 178.482 222.742 176.427 223.43 174.717C223.61 175.1 223.751 175.401 223.862 175.637C225.632 174.338 226.99 173.093 225.755 170.598C224.694 168.457 223.065 167.723 220.757 167.574C218.774 170.661 217.02 174.103 213.916 176.518C211.761 174.673 211.483 171.986 210.366 169.726C207.739 171.735 208.186 174.589 207.913 177.146C207.695 179.186 209.01 180.523 211.048 180.843C211.442 180.905 211.819 181.072 212.203 181.191C212.172 181.29 212.141 181.389 212.11 181.489H209.398C209.73 181.947 210.148 182.202 210.576 182.22C213.474 182.345 216.376 182.385 219.273 182.528C220.482 182.588 220.954 182.038 221.103 180.874C219.442 181.042 217.848 181.662 216.224 180.842L216.223 180.843ZM246.731 216.317C245.996 222.568 245.271 228.735 244.542 234.944C248.313 234.042 251.958 233.169 255.727 232.268C255.267 226.854 254.813 221.513 254.371 216.317H246.731ZM58.2058 157.324C56.4582 157.534 55.9328 158.322 56.056 159.944C56.1725 161.476 55.8119 163.043 55.6835 164.596C55.6137 165.44 55.3629 166.357 55.5892 167.124C56.3387 169.666 57.2307 172.17 58.1672 174.65C58.3089 175.026 59.0057 175.467 59.402 175.428C61.7165 175.201 64.0184 174.846 66.3218 174.518C66.5348 174.487 66.8731 174.386 66.9154 174.246C67.4111 172.598 67.8616 170.938 68.3246 169.28L67.9477 169.237C67.4045 169.597 66.8605 169.956 66.3173 170.316C66.2454 170.225 66.1726 170.133 66.1007 170.041C66.3774 169.745 66.6364 169.431 66.9333 169.157C68.1881 168 68.6764 166.711 68.1829 164.953C67.6204 162.947 67.3295 160.87 68.0323 158.787C68.1057 158.569 67.7696 158.213 67.6234 157.921C67.4045 158.109 67.0898 158.255 66.9822 158.493C66.4954 159.572 66.1051 160.694 65.6101 161.769C64.661 163.832 63.3357 165.622 61.6252 167.334C59.5066 164.16 58.8061 160.787 58.2058 157.324ZM248.412 174.547C248.303 174.457 248.194 174.367 248.086 174.277C247.719 174.678 247.163 175.019 247.014 175.489C245.416 180.535 243.718 185.558 242.373 190.673C240.618 197.347 239.151 204.095 237.586 210.818C237.489 211.233 237.457 211.967 237.675 212.103C239.087 212.977 240.576 213.726 242.183 214.594C243.478 200.844 244.851 187.526 248.412 174.547ZM261.216 213.901C262.025 213.528 262.693 213.176 263.393 212.907C264.598 212.444 265.193 211.78 264.862 210.348C263.323 203.709 262.085 196.992 260.301 190.421C258.904 185.274 256.887 180.293 255.07 175.265C254.914 174.832 254.195 174.601 253.737 174.275C256.252 179.871 259.546 196.69 261.216 213.902V213.901ZM241.465 215.173C241.436 215.62 241.411 215.807 241.415 215.993C241.553 224.054 241.814 232.117 240.88 240.157C240.755 241.236 241.278 242.047 242.438 242.518C242.692 241.953 243.069 241.462 243.13 240.933C244.076 232.713 244.982 224.488 245.903 216.206C244.419 215.861 243.004 215.531 241.465 215.174V215.173ZM151.288 179.532C150.426 182.351 149.559 185.035 148.812 187.752C148.637 188.389 148.754 189.171 148.939 189.829C149.569 192.061 150.303 194.264 150.97 196.486C151.411 197.958 151.807 199.444 152.253 201.032C153.175 200.429 153.941 199.927 154.786 199.374C153.538 198.227 153.502 196.984 153.787 195.592C154.157 193.785 154.432 191.954 154.649 190.121C155.119 186.147 153.867 182.695 151.288 179.532ZM226.029 185.093C226.603 184.325 227.43 183.727 227.402 183.171C227.259 180.282 226.897 177.404 226.587 174.258C225.869 174.952 225.522 175.431 225.056 175.711C223.675 176.542 223.568 177.672 223.859 179.137C224.363 181.676 225.128 184.211 224.469 186.864C223.99 188.795 223.721 190.783 223.163 192.688C222.543 194.809 222.17 197.255 220.837 198.85C219.189 200.823 218.816 202.609 219.502 204.966C220.839 204.119 221.704 202.951 222.257 201.496C223.402 198.482 224.682 195.515 225.716 192.465C226.555 189.991 227.117 187.424 227.853 184.711C227.036 184.882 226.636 184.967 226.029 185.094V185.093ZM257.178 240.552C258.421 239.302 258.847 238.06 258.881 236.551C259.001 231.283 259.224 226.017 259.376 220.75C259.427 218.976 259.384 217.199 259.384 215.271C257.753 215.628 256.439 215.916 255.144 216.199C255.361 218.759 255.619 221.163 255.757 223.574C255.976 227.357 256.128 231.143 256.278 234.929C256.35 236.748 256.087 238.611 257.179 240.551L257.178 240.552ZM214.593 153.637C215.548 157.945 219.915 162.585 222.976 162.678C223.485 158.236 220.03 152.814 215.864 151.257C214.477 150.738 213.355 150.944 212.291 151.759C210.386 153.218 208.685 154.902 207.773 157.163C207.385 158.125 207.345 159.227 207.147 160.264C207.333 160.328 207.518 160.392 207.705 160.456C209.932 157.628 212.16 154.8 214.321 152.057C216.31 154.381 218.228 156.623 220.146 158.866C220.038 158.979 219.929 159.09 219.821 159.203C217.868 157.647 216.209 155.773 214.593 153.637V153.637ZM177.952 163.446C178.162 165.219 177.239 166.545 175.616 167.394C178.184 172.529 179.111 173.841 181.276 175.423C182.757 173.624 183.272 171.499 183.389 169.241C183.423 168.59 183.687 167.591 183.374 167.343C182.034 166.28 181.562 164.913 181.602 163.446H177.953H177.952ZM144.365 163.379C143.845 163.734 143.378 164.164 142.827 164.396C142.282 164.625 141.652 164.653 141.095 164.763C140.066 169.628 140.453 174.245 142.876 178.66V175.326C143.064 175.312 143.251 175.297 143.438 175.283C143.527 176.412 143.616 177.543 143.705 178.672C146.134 173.669 146.484 168.612 144.367 163.379H144.365ZM61.8026 166.097C63.8166 163.475 65.5404 160.88 66.3782 157.705C64.5037 157.125 64.1134 155.676 64.1134 154.32C62.8897 154.095 61.8174 153.898 61.0805 153.763C60.4468 154.825 59.7827 155.934 59.1267 157.046C59.0592 157.16 58.9768 157.314 59.0028 157.427C59.658 160.349 60.0788 163.349 61.8033 166.096L61.8026 166.097ZM217.406 163.7C216.177 164.151 215.087 164.55 213.895 164.988C214.193 166.611 213.454 167.976 211.939 169.014C211.676 169.194 211.363 169.696 211.443 169.917C212.15 171.864 212.941 173.781 213.706 175.706C213.905 175.702 214.103 175.698 214.301 175.692C216.207 172.904 218.114 170.116 220.136 167.159C217.655 166.745 218.065 164.745 217.408 163.699L217.406 163.7ZM190.382 176.232C189.279 175.331 188.139 175.428 187.397 176.472C186.436 177.823 185.083 177.928 183.701 178.145C183.279 178.211 182.856 178.274 182.435 178.338C179.435 178.793 176.432 179.22 173.439 179.717C172.208 179.92 171.673 179.338 171.434 178.269C171.365 177.961 171.314 177.65 171.154 176.813C170.462 177.468 169.674 177.866 169.67 178.271C169.636 181.819 171.37 183.244 174.809 182.634C180.445 181.635 185.482 179.181 190.383 176.232H190.382ZM101.577 154.388C100.619 155.114 99.778 155.717 98.9832 156.375C98.7065 156.605 98.3235 157.008 98.3658 157.271C98.6389 158.967 98.6968 160.808 99.4456 162.288C100.297 163.97 102.29 163.789 103.176 162.091C104.596 159.37 104.906 158.448 102.864 156.222C102.392 155.708 102.052 155.073 101.577 154.388ZM210.219 158.403C209.714 159.018 209.405 159.497 208.997 159.87C208.001 160.782 207.764 161.787 207.927 163.167C208.088 164.528 207.746 165.967 207.498 167.349C207.29 168.509 206.788 169.621 206.626 170.783C206.507 171.639 206.726 172.541 206.784 173.298C208.067 171.462 209.383 169.819 210.417 168.014C211.076 166.863 211.726 165.447 211.646 164.197C211.525 162.311 210.762 160.466 210.219 158.403ZM97.5036 167.2C98.6701 169.516 100.053 172.262 101.435 175.007C103.074 171.386 102.89 167.857 102.228 164.415C101.115 164.025 100.073 163.661 99.2675 163.378C98.7614 164.475 98.2248 165.636 97.5036 167.2V167.2ZM206.853 174.292C206.692 174.348 206.531 174.404 206.369 174.46C206.156 181.485 205.943 188.509 205.731 195.533C206.33 194.174 206.581 192.776 207.019 191.439C207.46 190.094 207.964 188.74 208.661 187.515C209.569 185.919 209.555 184.379 208.919 182.751C208.592 181.913 208.399 180.994 207.929 180.248C207.029 178.816 206.954 177.338 207.199 175.739C207.269 175.285 206.979 174.776 206.854 174.292H206.853ZM213.485 154.388C212.878 155.337 212.128 156.461 211.439 157.621C211.261 157.921 211.109 158.407 211.229 158.685C211.894 160.227 212.503 161.827 213.419 163.216C214.066 164.195 215.7 164.064 216.596 163.12C217.34 162.335 218.036 161.398 217.307 160.243C216.062 158.269 214.758 156.331 213.485 154.388ZM59.6009 149.879C55.6456 153.101 51.1561 155.58 52.5208 161.615C53.0202 159.33 54.3277 157.797 56.5391 157.068C57.1223 156.876 57.6774 156.597 58.2429 156.351C59.2907 155.897 59.9682 155.154 59.914 153.96C59.8569 152.696 59.724 151.436 59.6009 149.88V149.879ZM140.659 155.091C139.851 156.015 139.139 156.768 138.507 157.583C138.275 157.883 138.048 158.379 138.134 158.701C138.476 159.973 138.792 161.292 139.401 162.444C140.213 163.982 141.984 164.267 143.273 163.11C144.042 162.42 144.568 161.461 145.337 160.444C142.706 159.377 141.137 157.776 140.659 155.09V155.091ZM178.897 154.663C178.446 155.2 177.986 155.957 177.336 156.474C176.012 157.528 176.172 158.816 176.813 159.996C177.37 161.021 178.126 162.19 179.105 162.679C180.661 163.459 182.104 162.262 182.684 160.344C181.356 158.353 180.146 156.536 178.897 154.663ZM92.4018 166.373C91.6442 163.992 92.6252 162.593 94.2511 161.386C95.0688 160.778 95.9942 160.065 96.3845 159.185C97.2743 157.18 98.3191 155.418 100.334 154.363C100.536 154.257 100.568 153.826 100.678 153.546C100.356 153.457 99.9784 153.212 99.7201 153.303C97.8071 153.978 96.2027 154.964 95.1735 156.894C94.4151 158.315 93.3302 159.64 92.1406 160.738C89.887 162.818 89.8053 164.104 92.4018 166.372V166.373ZM65.9218 145.991C64.5764 146.802 63.2941 147.572 62.0133 148.344C60.1463 149.471 59.9229 150.518 61.1622 152.314C62.2241 153.853 63.9635 153.846 64.9875 152.276C66.2387 150.358 66.6817 148.299 65.9218 145.991ZM249.324 144.655C249.154 144.657 248.984 144.659 248.815 144.66C248.623 145.931 248.266 147.202 248.28 148.47C248.3 150.185 249.586 152.003 250.634 152.215C252.822 152.657 254.209 151.042 253.905 148.3C251.639 148.087 250.078 146.879 249.323 144.655H249.324ZM66.9021 144.079C66.7848 145.006 66.5971 145.566 66.6706 146.09C66.8858 147.628 67.2753 149.144 67.469 150.684C67.8683 153.849 68.8367 156.743 71.192 159.242C71.796 157.739 71.2068 156.534 70.6347 155.379C69.8236 153.741 69.3316 152.13 69.4429 150.218C69.5669 148.069 68.7291 146.078 66.9021 144.079ZM55.2694 183.655C55.9692 181.752 56.6452 180.135 57.1431 178.466C57.4043 177.589 57.5988 176.561 57.3954 175.703C56.8775 173.51 56.1198 171.373 55.4505 169.19C54.3099 173.96 54.4717 178.681 55.2687 183.654L55.2694 183.655ZM222.72 179.542C220.188 184.757 220.183 187.549 222.64 191.087C223.648 187.286 224.582 183.497 222.72 179.542ZM250.392 153.063C250.135 153.894 249.889 154.651 249.671 155.416C249.591 155.697 249.465 156.04 249.555 156.283C250.061 157.654 250.627 159.004 251.088 160.15C252.035 158.85 253.124 157.356 254.206 155.871C253.905 154.953 253.549 153.869 253.235 152.915C252.267 152.965 251.341 153.014 250.393 153.063H250.392ZM210.356 185.39C213.016 185.39 215.571 185.387 218.126 185.392C220.019 185.395 220.108 185.295 219.785 183.153H209.977C210.081 183.77 210.198 184.461 210.356 185.39ZM173.78 160.878C175.557 162.563 175.554 164.498 175.665 166.483C177.679 164.408 177.567 163.006 175.025 158.137C174.45 159.787 172.071 159.74 172.111 161.653C172.145 163.312 173.227 164.561 174.325 165.702C174.466 165.656 174.607 165.61 174.748 165.564C174.452 164.129 174.155 162.693 173.781 160.878H173.78ZM187.008 161.93C186.288 157.548 183.007 155.646 179.925 153.27C180.408 157.808 183.831 159.604 187.008 161.93ZM55.6761 147.924C55.751 147.962 55.8267 148.001 55.9016 148.039C58.8588 146.117 61.8152 144.195 64.73 142.3C62.7383 141.134 60.9262 141.16 59.3063 142.902C57.9097 144.403 56.8723 146.237 55.6768 147.924H55.6761ZM205.831 172.638C205.516 169.08 207.876 166.13 206.943 162.596C206.071 163.946 205.231 165.098 204.549 166.337C203.163 168.853 203.499 170.721 205.831 172.638V172.638ZM262.247 193.982C261.95 187.186 260.245 180.901 255.538 175.726C258.87 181.411 260.638 187.664 262.247 193.982ZM183.735 160.624C182.265 162.834 182.299 163.281 184.251 164.636C185.381 165.42 186.473 166.453 188.138 166.089C188.153 162.967 185.494 162.202 183.735 160.624ZM179.406 151.475C181.734 153.496 183.987 155.452 186.165 157.343C186.076 153.231 182.672 149.871 179.406 151.475ZM172.648 159.119C175.085 156.828 178.739 155.523 179.073 151.324C175.083 152.529 175.037 156.801 172.648 159.119ZM148.451 187.212C144.405 186.606 140.896 186.081 136.936 185.487C137.484 186.018 137.757 186.483 138.151 186.634C141.004 187.724 143.97 188.28 147.028 188.159C147.441 188.143 147.835 187.638 148.45 187.212H148.451ZM186.801 182.169C183.454 182.385 180.09 181.054 177.099 183.464C179.647 183.646 182.197 183.703 184.741 183.612C185.517 183.584 186.628 183.702 186.801 182.168V182.169ZM186.697 199.281C186.105 197.013 185.525 194.787 184.944 192.561C184.869 192.544 184.794 192.526 184.718 192.509C184.227 194.73 183.737 196.95 183.221 199.281H186.696H186.697ZM106.918 178.174C106.755 180.818 105.553 183.721 107.537 186.518C108.051 187.242 108.385 188.1 108.76 188.915C109.365 190.229 109.935 191.558 110.519 192.881C109.958 190.369 108.99 188 108.344 185.546C107.691 183.07 107.357 180.511 106.919 178.174H106.918ZM97.8375 158.953C96.3303 160.416 95.0777 161.62 93.84 162.839C92.5539 164.107 92.5829 165.366 93.955 166.726C94.0886 166.53 94.3082 166.353 94.3268 166.157C94.4915 164.451 95.5044 163.272 96.5715 162.025C97.2171 161.271 97.3848 160.11 97.8375 158.953ZM66.3975 150.934C66.1971 151.389 65.9485 151.981 65.6792 152.564C64.4406 155.241 65.3838 156.868 68.3922 157.149C67.7221 155.062 67.0572 152.989 66.3975 150.934ZM257.133 169.305C255.058 172.747 256.372 175.419 259.019 178.023C258.357 174.964 257.744 172.131 257.133 169.305ZM70.605 180.043C70.041 177.068 69.4912 174.167 68.876 170.922C67.492 175.341 67.8631 177.14 70.605 180.043ZM135.601 182.283C134.862 184.808 134.168 187.179 133.474 189.551C134.272 189.014 134.767 188.34 135.299 187.697C136.771 185.914 136.876 184.671 135.601 182.283ZM67.2501 175.892C67.1195 175.698 66.9896 175.503 66.859 175.307C66.4071 175.355 65.9545 175.399 65.5033 175.454C63.4878 175.698 61.4716 175.932 59.4591 176.2C59.0963 176.249 58.7527 176.44 58.3995 176.564C58.7594 176.75 59.1408 177.128 59.4755 177.091C61.8189 176.832 64.1535 176.491 66.4888 176.16C66.75 176.123 66.9963 175.984 67.2494 175.892H67.2501ZM106.843 155.281C105.42 151.935 102.758 150.278 101.428 151.798C103.237 152.962 105.064 154.137 106.843 155.281ZM129.419 210.092C129.505 210.116 129.592 210.14 129.678 210.164C129.563 208.218 129.448 206.273 129.32 204.114C127.5 206.441 127.279 208.886 128.527 210.71C128.462 209.859 128.394 208.955 128.325 208.05C128.518 208.026 128.711 208.001 128.904 207.977C129.076 208.682 129.247 209.387 129.419 210.092ZM97.8011 161.92C96.6331 163.229 95.4183 164.34 95.1965 166.14C97.6134 165.832 98.5677 164.296 97.8011 161.92ZM112.666 198.821C112.537 198.825 112.409 198.829 112.281 198.833C112.548 201.098 112.815 203.362 113.117 205.913C114.453 203.242 113.497 201.036 112.666 198.821H112.666ZM244.099 175.706C245.702 174.015 247.138 172.24 245.36 170.088C244.963 171.859 244.527 173.801 244.099 175.706ZM247.237 173.165C247.233 173.289 247.229 173.413 247.226 173.537H255.104C255.104 173.413 255.104 173.29 255.103 173.165H247.237ZM94.3149 182.202C94.2266 184.068 94.1383 185.934 94.05 187.8C95.4681 186.007 95.6046 184.154 94.3149 182.202ZM96.2131 154.034C97.5355 153.477 98.8972 152.903 100.254 152.331C99.3914 151.137 97.1756 152.081 96.2131 154.034ZM212.708 164.303C212.334 165.543 211.922 166.908 211.53 168.207C213.255 167.214 213.637 165.852 212.708 164.303ZM185.804 166.46C184.847 165.786 183.891 165.112 182.688 164.266C183.025 166.314 184.273 166.597 185.804 166.46ZM130.571 161.77C130.31 160.261 130.068 158.867 129.847 157.589C128.875 158.68 128.993 159.673 130.571 161.77Z" fill="#5D5857"/>
<path d="M49.6972 236.469C45.5126 235.592 41.3281 234.716 36.9039 233.789C36.9707 235.249 37.0322 236.578 37.0931 237.908C36.9172 237.927 36.7406 237.947 36.5647 237.966C36.4148 236.999 36.1863 236.037 36.1277 235.063C35.6127 226.526 35.0101 217.992 34.6665 209.448C34.3267 200.997 34.2502 192.535 34.0707 184.078C33.9913 180.357 33.1742 176.826 31.3072 173.588C31.0957 173.221 30.485 172.912 30.0375 172.881C27.0633 172.671 24.0713 172.65 21.1111 172.327C20.2199 172.23 19.883 172.41 19.4022 173.035C16.2565 177.129 15.0329 181.737 15.0811 186.88C15.1842 197.817 15.0655 208.756 15.0425 219.695C15.0395 221.074 15.0692 222.453 15.0655 223.832C15.0648 224.214 14.9995 224.597 14.9638 224.979C14.7947 224.982 14.6262 224.985 14.457 224.987C14.4214 224.486 14.3561 223.984 14.3553 223.483C14.3398 211.545 14.227 199.605 14.3821 187.669C14.4303 183.967 13.6853 180.454 13.1064 176.866C12.2679 171.673 12.5024 166.449 13.0597 161.232C13.2808 159.162 13.7298 157.198 12.4979 155.064C11.2186 152.847 12.239 150.447 13.5376 148.344C13.7016 148.078 13.8997 147.833 14.1928 147.422C11.5065 148.838 10.5404 151.255 10.9196 154.84C10.7162 154.483 10.4343 154.149 10.3222 153.766C9.59423 151.27 10.7979 148.441 13.41 146.863C14.4125 146.257 14.9141 145.63 14.9564 144.429C15.0158 142.745 15.9293 141.384 17.4179 140.664C19.8467 139.489 22.314 138.335 24.8742 137.508C27.0188 136.816 28.9593 138.001 30.4019 139.421C32.4032 141.389 33.4733 143.965 33.7627 146.787C33.9438 148.557 33.5171 150.18 32.1613 151.421C32.2778 151.559 32.3238 151.669 32.3839 151.678C36.1692 152.202 37.1287 152.912 37.7884 156.717C39.1271 164.432 39.8543 172.163 36.9157 179.734C36.8475 179.91 36.8208 180.116 36.7117 180.26C34.2346 183.547 34.8083 187.383 34.8283 191.085C34.855 195.981 34.9552 200.88 35.186 205.771C35.5963 214.453 36.1477 223.129 36.5855 231.81C36.636 232.813 37.1154 233.081 37.9391 233.245C41.3259 233.918 44.7104 234.605 48.0883 235.32C48.7072 235.452 49.2935 235.737 49.8945 235.952C49.8285 236.124 49.7632 236.296 49.6972 236.469V236.469ZM14.9512 180.304C15.1316 179.735 15.392 179.179 15.4796 178.596C16.0881 174.563 16.6817 170.528 17.2227 166.485C17.3006 165.902 17.009 165.278 16.9971 164.672C16.9719 163.409 16.9823 162.141 17.0684 160.882C17.0862 160.624 17.5017 160.393 17.7347 160.15C17.4765 162.273 17.4795 164.115 18.2913 165.943C18.9629 167.453 19.4779 169.033 20.1606 170.538C20.3594 170.976 20.8692 171.531 21.2833 171.573C24.0223 171.852 26.7739 172.016 29.5225 172.193C30.4961 172.256 31.0816 171.841 31.3703 170.827C31.8927 168.995 32.0322 167.051 33.1698 165.381C33.5779 164.783 33.6484 163.805 33.5527 163.041C33.1067 159.473 32.5487 155.921 32.03 152.363C31.9112 152.295 31.7932 152.228 31.6745 152.161C31.3153 152.669 30.8849 153.14 30.6104 153.69C29.6353 155.64 28.8472 157.696 27.7267 159.555C26.8934 160.937 26.083 162.105 27.4314 163.566C27.5211 163.664 27.4432 163.915 27.4432 164.461C26.923 163.837 26.5594 163.488 26.299 163.075C24.3221 159.944 22.3467 156.811 20.4143 153.652C19.9639 152.917 19.5283 152.479 18.5213 153.04C20.9672 158.589 24.1803 163.636 27.7356 168.522C26.4592 167.503 25.2905 166.39 24.4668 165.064C22.2621 161.517 20.1969 157.883 18.0946 154.273C17.4112 153.1 16.9808 152.943 16.1348 154.01C15.389 154.952 14.6188 156.077 14.4206 157.217C13.0879 164.892 12.7643 172.581 14.9512 180.305V180.304ZM33.3523 152.779C33.8807 162.507 34.4038 172.143 34.9411 182.041C35.2839 181.479 35.6023 181.153 35.6958 180.773C36.5262 177.388 37.6341 174.03 38.0222 170.591C38.365 167.56 38.0251 164.424 37.7305 161.359C37.5235 159.209 36.9885 157.072 36.4052 154.983C36.0164 153.589 35.1044 152.543 33.3523 152.779ZM21.336 144.805C14.0147 147.022 11.0368 151.566 13.8982 155.918C14.6922 153.603 16.3426 152.469 18.6742 152.289C19.4311 152.231 20.1932 152.231 20.9531 152.209C22.4921 152.164 23.1006 151.76 22.875 150.264C22.5997 148.436 21.8836 146.673 21.336 144.805ZM20.9627 153.2C22.6183 155.908 24.1744 158.451 25.9672 161.382C27.4484 158.456 28.7359 155.912 30.1035 153.21C27.4269 153.192 27.9352 151.18 27.4143 150.13H23.7299C23.2802 151.212 23.7678 153.395 20.9627 153.2ZM26.9646 141.89C25.4092 142.919 23.8598 143.944 22.179 145.056C22.6636 146.13 23.0969 147.282 23.6846 148.348C24.38 149.61 25.7261 149.965 26.9861 149.354C28.028 148.848 29.2843 146.253 28.8509 145.398C28.212 144.137 27.513 142.905 26.9646 141.891V141.89ZM27.9382 138.707C27.8239 138.938 27.7631 139.013 27.7482 139.097C27.3215 141.483 28.4324 143.323 29.8869 145.031C31.3925 146.799 32.0077 148.708 30.9302 150.929C30.8849 151.023 30.9681 151.178 31.0111 151.415C32.8136 149.964 33.4072 148.126 32.8878 146.058C32.1353 143.062 30.9963 140.245 27.9389 138.707H27.9382ZM18.8849 143.046C18.7603 142.855 18.6349 142.664 18.5102 142.473C20.5806 141.152 22.6509 139.832 24.7213 138.512C23.2617 138.827 21.8836 139.294 20.5947 139.938C19.296 140.588 17.9893 141.295 16.8695 142.202C16.0072 142.9 15.4937 143.966 15.8313 145.228C18.3892 144.111 20.8744 143.076 23.3099 141.936C24.2434 141.499 25.1243 140.895 25.9183 140.234C26.4852 139.762 26.9787 139.084 26.2782 138.34C23.7833 139.928 21.3345 141.487 18.8849 143.046V143.046ZM17.9343 167.225C17.6227 169.854 17.3266 172.35 17.0031 175.082C19.3703 172.568 20.0537 170.108 17.9343 167.225ZM33.1646 168.025C31.3346 171.11 31.8044 173.824 33.9957 176.77C33.7011 173.666 33.4414 170.935 33.1646 168.025ZM29.5752 146.416C29.1908 148.324 27.5486 150.024 29.193 152.069C30.6816 150.638 30.8738 147.916 29.5752 146.416ZM21.2885 143.96L21.5987 144.444C23.019 143.606 24.4386 142.767 25.8589 141.929C25.7892 141.812 25.7187 141.697 25.6482 141.58C24.1952 142.374 22.7415 143.167 21.2885 143.96Z" fill="#5D5857"/>
<path d="M123.358 147.098C123.072 147.082 122.766 147.126 122.501 147.041C113.197 144.085 104.423 140.11 97.5221 132.98C90.4339 125.657 82.2444 119.713 74.0905 113.704C72.5611 112.576 71.1134 111.339 69.6062 110.181C68.5094 109.339 68.2631 108.399 69.1194 107.249C70.5346 105.35 71.9445 103.447 73.2498 101.29C70.6681 102.434 68.0872 103.578 65.3386 104.796C65.8803 105.237 66.3018 105.58 66.7225 105.923C66.6149 106.078 66.5066 106.234 66.399 106.39C63.0322 104.2 59.6647 102.01 56.128 99.7104C57.0422 100.67 57.8088 101.555 58.6592 102.352C62.3955 105.853 64.7553 110.339 67.5277 114.535C68.3536 115.786 69.2693 117.054 70.3988 118.015C75.0478 121.974 78.7782 126.694 82.1947 131.698C86.9284 138.633 93.584 142.883 101.467 145.416C102.173 145.642 102.861 145.929 103.557 146.188C103.534 146.322 103.511 146.456 103.488 146.59C103.054 146.552 102.601 146.582 102.19 146.464C93.7242 144.048 86.685 139.566 81.5847 132.272C78.5571 127.943 75.4953 123.624 71.503 120.106C68.6148 117.561 65.648 115.095 62.6011 112.743C59.7731 110.561 57.4459 107.982 55.4943 105.017C54.8465 104.032 54.0829 103.105 53.2599 102.261C52.3197 101.297 51.2467 101.174 50.0742 102.027C48.6131 103.09 47.0896 104.067 45.5847 105.069C45.3687 105.212 45.1038 105.283 44.6111 105.134C44.9005 104.804 45.1409 104.404 45.489 104.157C46.6132 103.36 47.7018 102.452 48.9418 101.892C51.2163 100.863 51.2712 98.9415 51.3676 96.8394C36.3296 102.62 20.6304 105.286 5.08104 108.565C5.01722 108.371 4.95341 108.177 4.88959 107.983C5.36154 107.807 5.82014 107.571 6.30694 107.463C16.7174 105.152 27.1591 102.972 37.531 100.5C41.9092 99.4563 46.1628 97.8638 50.4282 96.3921C51.6585 95.9669 52.5475 96.1039 53.5723 96.8231C56.9198 99.1734 60.3036 101.473 63.7164 103.728C64.1305 104.001 64.8933 104.089 65.3475 103.903C68.2074 102.734 71.0733 101.558 73.8353 100.18C74.9476 99.6252 75.6667 99.777 76.5171 100.473C79.7896 103.15 83.1579 105.717 86.3414 108.496C90.5548 112.173 95.2781 115.09 99.8938 118.201C106.515 122.664 112.88 127.509 119.343 132.206C121.151 133.52 122.931 134.876 124.698 136.244C125.172 136.611 125.556 137.095 125.981 137.526C125.886 137.644 125.79 137.763 125.694 137.881C125.287 137.626 124.859 137.399 124.477 137.111C114.35 129.463 104.177 121.896 93.5164 114.971C88.4414 111.674 83.9645 107.46 79.2183 103.66C78.2721 102.903 77.3304 102.14 76.1513 101.614C78.2202 103.924 80.3232 106.206 82.3475 108.554C84.3957 110.929 86.3206 113.41 88.3836 115.772C90.4465 118.133 92.6156 120.402 94.7372 122.713C96.7905 124.95 99.456 126.595 101.188 129.141C90.9318 121.725 84.1144 111.071 75.3105 102.047C75.24 103.316 75.2675 104.529 75.0849 105.709C74.8022 107.533 74.4742 109.362 73.9718 111.133C73.6735 112.184 74.0341 112.65 74.8096 113.231C79.4542 116.709 84.1612 120.118 88.644 123.797C92.0546 126.596 95.2106 129.711 98.3941 132.775C103.983 138.152 110.612 141.78 117.79 144.522C119.675 145.242 121.58 145.91 123.477 146.603C123.437 146.769 123.398 146.934 123.359 147.1L123.358 147.098ZM66.4747 114.721C63.0129 107.794 57.978 102.284 52.2359 97.1964C52.0325 98.4245 51.8648 99.437 51.7728 99.9881C53.0707 101.207 54.4346 102.049 55.1811 103.267C58.0485 107.945 62.0497 111.457 66.4739 114.721H66.4747ZM74.6775 102.124C74.4586 102.064 74.2404 102.004 74.0215 101.945C72.6257 103.803 71.1943 105.637 69.8622 107.541C69.5958 107.922 69.4548 108.805 69.6856 109.045C70.6444 110.042 71.7679 110.882 73.1726 112.068C73.7113 108.505 74.1944 105.314 74.6768 102.124L74.6775 102.124Z" fill="#5D5857"/>
<path d="M146.072 273.482C145.723 273.464 145.354 273.511 145.027 273.416C135.798 270.75 126.374 269.085 116.87 267.761C100.793 265.523 84.6398 264.917 68.4352 265.295C64.6759 265.382 60.9188 265.592 57.1624 265.779C47.9459 266.238 39.2711 263.981 31.0876 260.043C21.1943 255.283 11.494 250.123 1.71274 245.13C1.24746 244.892 0.788862 244.629 0.367367 244.323C0.21079 244.21 0.0423401 243.873 0.103932 243.755C0.20708 243.556 0.491292 243.325 0.69833 243.326C5.17375 243.351 9.65956 243.232 14.1224 243.5C19.6738 243.832 25.2096 244.448 30.7447 245.017C35.5652 245.513 40.3738 246.117 45.1891 246.663C45.7034 246.722 46.2236 246.72 46.7668 246.603C31.6026 241.46 15.9946 238.276 0.121 236.248C0.14252 236.049 0.16404 235.849 0.18556 235.65C1.25414 235.731 2.33163 235.753 3.3913 235.901C16.7092 237.76 29.9589 240.104 42.6987 244.44C60.659 250.552 78.4836 257.066 96.3081 263.566C99.9813 264.905 103.664 265.579 107.522 265.896C112.253 266.284 116.998 266.781 121.661 267.644C129.259 269.052 136.796 270.79 144.355 272.408C144.975 272.54 145.563 272.814 146.166 273.023C146.135 273.176 146.104 273.33 146.073 273.483L146.072 273.482ZM97.2052 264.584C96.9544 264.475 96.6324 264.315 96.2955 264.193C85.4241 260.284 74.5476 256.386 63.6793 252.469C56.5658 249.905 49.3736 247.691 41.7904 246.957C32.9969 246.107 24.2153 245.143 15.424 244.274C13.5065 244.084 11.5696 244.081 9.64175 243.992C9.62023 244.157 9.59871 244.321 9.57719 244.485C13.4901 245.8 17.3749 247.204 21.3204 248.413C35.7723 252.839 50.2879 257.067 64.6885 261.653C70.4558 263.49 76.1535 264.994 82.26 264.487C83.8643 264.353 85.4954 264.569 87.1146 264.578C90.488 264.596 93.8615 264.583 97.206 264.583L97.2052 264.584ZM70.5241 264.332C70.0648 264.133 69.8184 263.996 69.555 263.916C54.3745 259.296 39.1784 254.726 24.0186 250.04C19.0304 248.498 14.0422 246.877 9.23362 244.866C6.8026 243.849 4.54077 244.24 2.16763 244.181C2.32866 244.459 2.51121 244.607 2.71602 244.712C12.2479 249.575 21.7226 254.556 31.3376 259.25C37.2965 262.159 43.6078 264.41 50.2797 264.714C56.7825 265.01 63.3171 264.611 69.837 264.512C69.972 264.51 70.1056 264.444 70.5241 264.332Z" fill="#5D5857"/>
<path d="M217.808 115.405C215.23 117.606 212.811 119.598 210.472 121.679C205.39 126.201 200.373 130.797 195.278 135.305C192.612 137.663 189.518 139.219 186.106 140.358C182.293 141.63 178.641 143.382 174.921 144.931C174.344 145.171 173.777 145.437 173.206 145.691C173.131 145.562 173.057 145.434 172.983 145.305C173.364 145.025 173.724 144.71 174.127 144.468C177.657 142.351 181.391 140.678 185.396 139.718C189.417 138.755 192.716 136.596 195.719 133.899C202.615 127.705 209.487 121.486 216.442 115.212C213.116 112.787 210.325 109.336 205.855 108.345C205.096 108.177 204.674 108.19 204.139 108.777C202.957 110.075 202.258 111.519 201.831 113.251C200.628 118.134 198.03 122.221 194.212 125.528C192.343 127.147 190.517 128.818 188.654 130.443C188.387 130.676 188.014 130.788 187.69 130.955C187.6 130.825 187.51 130.694 187.421 130.563C189.058 129.095 190.658 127.584 192.34 126.168C195.932 123.146 198.895 119.678 200.431 115.164C200.733 114.278 200.935 113.358 201.205 112.376C196.61 114.927 192.902 118.203 190.186 122.545C188.22 125.687 186.233 128.816 184.242 131.943C183.936 132.424 183.563 132.862 183.22 133.32C183.087 133.245 182.953 133.169 182.821 133.094C182.945 132.75 183.006 132.363 183.203 132.068C186.366 127.327 189.429 122.512 192.79 117.913C193.95 116.324 195.742 115.095 197.449 114.024C200.952 111.825 202.885 108.842 202.904 104.607C199.397 106.116 195.632 106.634 192.565 109.456C187.077 114.504 180.947 118.851 175.368 123.81C170.931 127.753 166.959 132.212 162.703 136.364C159.571 139.42 156.319 142.354 153.102 145.323C152.848 145.557 152.456 145.641 152.128 145.794C152.05 145.679 151.972 145.563 151.894 145.448C155.924 141.627 159.955 137.807 163.985 133.987C163.884 133.862 163.782 133.739 163.68 133.614C162.414 134.439 161.145 135.26 159.88 136.087C154.029 139.918 147.704 142.71 141.047 144.827C134.275 146.979 128.321 150.801 122.198 154.267C120.749 155.088 119.304 155.917 117.839 156.709C117.469 156.909 117.029 156.98 116.482 156.846C116.582 156.714 116.653 156.531 116.786 156.458C123.249 152.914 129.631 149.208 136.22 145.913C139.683 144.182 143.502 143.157 147.169 141.836C153.28 139.635 158.608 136.004 163.959 132.475C166.669 130.687 168.967 128.28 171.475 126.18C178.223 120.531 184.922 114.821 191.767 109.292C194.562 107.034 197.655 105.134 200.67 103.157C202.132 102.198 203.714 102.056 205.423 102.789C207.473 103.667 209.615 104.329 211.709 105.103C212.178 105.276 212.618 105.529 213.072 105.746C213.024 105.912 212.976 106.077 212.929 106.243C212.02 106.017 211.111 105.789 209.999 105.512C213.401 107.81 216.638 109.996 219.876 112.183C219.819 112.322 219.761 112.462 219.704 112.601C219.322 112.453 218.899 112.364 218.562 112.147C215.412 110.108 212.31 107.996 209.123 106.016C207.558 105.043 205.846 104.306 204.008 103.364C203.726 105.075 203.473 106.609 203.22 108.143C204.869 106.724 206.275 107.751 207.736 108.187C210.872 109.123 213.097 111.367 215.478 113.397C216.192 114.007 216.902 114.623 217.808 115.404L217.808 115.405ZM202.882 103.465L202.611 102.97C201.343 103.664 200.075 104.358 198.807 105.052C198.888 105.201 198.97 105.348 199.05 105.496C200.328 104.819 201.605 104.142 202.882 103.465Z" fill="#5D5857"/>
<path d="M224.019 127.977C224.382 127.859 224.791 127.812 225.102 127.613C229.548 124.763 232.208 120.593 234.012 115.744C234.772 113.703 235.691 111.707 236.693 109.772C237.835 107.567 239.592 105.933 241.832 104.787C242.298 104.548 242.743 103.866 242.813 103.338C243.027 101.714 243.054 100.066 242.867 98.2969C241.316 99.9272 239.807 101.597 238.209 103.18C233.544 107.799 228.8 112.34 224.171 116.995C220.65 120.535 217.319 124.263 213.783 127.787C212.36 129.204 210.739 130.522 208.989 131.487C206.711 132.744 204.83 134.301 203.423 136.462C201.681 139.139 199.355 141.222 196.727 142.996C196.532 143.127 196.325 143.247 196.11 143.345C196.043 143.376 195.934 143.314 195.606 143.242C195.85 142.919 195.989 142.58 196.242 142.424C199.433 140.451 201.668 137.574 203.903 134.648C204.828 133.438 206.076 132.27 207.436 131.636C210.292 130.307 212.364 128.202 214.479 125.98C219.525 120.675 224.739 115.532 229.89 110.328C233.035 107.15 236.189 103.983 239.334 100.806C239.529 100.607 239.676 100.36 239.748 100.018C233.49 104.353 227.232 108.688 220.973 113.023C220.857 112.899 220.741 112.775 220.624 112.65C220.762 112.415 220.843 112.098 221.047 111.956C228.292 106.88 235.559 101.835 242.787 96.7348C243.575 96.1785 244.075 96.4474 244.677 96.8689C254.257 103.579 264.867 108.03 276.088 111.143C276.598 111.284 277.083 111.513 277.463 111.982C265.47 109.293 254.347 104.568 244.085 97.437C243.875 100.083 243.67 102.516 243.505 104.951C243.489 105.199 243.654 105.524 243.839 105.708C245.682 107.547 247.449 109.478 249.429 111.158C252.32 113.614 255.462 115.779 258.325 118.265C260.988 120.578 264.041 121.756 267.449 122.253C270.695 122.726 273.94 123.204 277.182 123.699C277.557 123.756 277.914 123.931 278.279 124.051C278.251 124.2 278.222 124.349 278.194 124.499C277.347 124.408 276.496 124.342 275.653 124.22C272.459 123.758 269.267 123.272 266.072 122.807C262.347 122.265 259.301 120.47 256.633 117.879C255.178 116.465 253.581 115.199 251.679 113.544C251.987 120.404 248.34 124.411 243.179 127.437C241.638 128.34 240.102 129.251 238.563 130.158C238.46 129.982 238.358 129.805 238.255 129.628C238.766 129.268 239.272 128.901 239.79 128.551C242.034 127.034 244.384 125.651 246.504 123.979C249.761 121.41 251.082 117.888 250.82 113.782C250.798 113.432 250.505 113.021 250.219 112.778C247.955 110.852 245.663 108.959 243.382 107.06C242.539 111.924 239.774 116.259 237.278 120.695C233.414 127.567 229.43 134.372 225.489 141.201C225.326 141.484 225.087 141.722 224.882 141.982C224.764 141.916 224.644 141.851 224.526 141.787C224.761 141.205 224.931 140.586 225.241 140.046C228.732 133.944 232.339 127.906 235.718 121.744C238.019 117.548 240.061 113.208 242.096 108.875C242.556 107.895 242.504 106.675 242.754 105.167C240.694 106.224 239.121 107.282 238.194 108.936C236.948 111.164 235.843 113.487 234.865 115.846C233.568 118.976 232.317 122.129 229.893 124.581C228.597 125.891 227.087 126.991 225.649 128.156C225.357 128.392 224.953 128.491 224.6 128.653C224.407 128.427 224.213 128.201 224.019 127.975V127.977Z" fill="#5D5857"/>
<path d="M11.3017 114.648C11.4323 114.532 11.5444 114.354 11.695 114.311C21.2796 111.594 30.8797 108.931 40.4458 106.15C42.5391 105.541 44.0374 105.934 45.5148 107.521C48.1677 110.372 50.7791 113.319 53.7726 115.784C57.3568 118.735 61.3254 121.22 65.1218 123.915C65.5767 124.238 65.9945 124.613 66.4301 124.963C66.347 125.098 66.2639 125.232 66.1807 125.367C65.8476 125.208 65.5025 125.071 65.1841 124.888C57.4451 120.435 50.6366 114.855 44.8329 108.07C43.7673 106.824 42.508 106.362 40.9029 106.823C33.2499 109.023 25.5925 111.207 17.9388 113.405C17.7733 113.453 17.6353 113.597 17.1359 113.922C20.6666 113.376 23.7974 112.894 26.9267 112.405C29.5937 111.988 32.2548 111.526 34.9307 111.175C35.4754 111.104 36.161 111.303 36.633 111.608C40.8539 114.33 44.0522 118.113 47.1845 121.946C49.709 125.037 52.0399 128.296 54.6905 131.271C58.1968 135.206 62.9186 137.465 67.4118 140.071C71.1764 142.255 74.6106 145.006 78.2023 147.488C78.7069 147.837 79.2783 148.091 79.8185 148.388C79.6092 148.628 79.4 148.869 79.1915 149.109C78.787 148.884 78.321 148.727 77.9886 148.423C73.4879 144.314 68.3053 141.266 62.906 138.499C57.3746 135.665 53.0988 131.385 49.4819 126.374C45.9163 121.435 42.0969 116.702 37.1999 112.965C36.8994 112.737 36.5848 112.526 36.167 112.229C36.167 112.517 36.1596 112.691 36.1677 112.865C36.3236 116.005 35.3448 118.581 33.1163 120.958C30.8285 123.399 29.0483 126.312 26.9297 129.175C34.1664 132.943 41.199 136.463 47.9266 140.517C47.8687 140.618 47.8108 140.718 47.7529 140.819C31.9105 132.868 16.068 124.917 0.226303 116.965C0.281958 116.825 0.336872 116.685 0.392527 116.545C0.790276 116.676 1.20732 116.764 1.58206 116.943C7.16392 119.605 12.7547 122.25 18.3009 124.984C19.0749 125.365 19.6025 125.355 20.234 124.905C21.7026 123.858 23.1726 122.812 24.6471 121.772C24.915 121.583 25.2059 121.426 25.6162 121.432C24.4052 123.477 22.2695 124.43 20.3772 125.964C22.1879 126.89 23.9243 127.821 25.7097 128.646C25.9687 128.765 26.6106 128.493 26.8228 128.213C29.3718 124.842 32.0893 121.568 34.2873 117.978C35.2713 116.371 35.1889 114.114 35.6601 111.811C27.2755 113.088 19.3925 114.613 11.3878 115.028C11.3596 114.9 11.3314 114.773 11.3032 114.645L11.3017 114.648Z" fill="#5D5857"/>
<path d="M279.875 241.18C248.332 245.31 217.474 252.07 188.208 264.948C190.485 264.474 192.757 263.974 195.041 263.531C202.895 262.011 210.741 260.448 218.612 259.021C231.551 256.676 244.537 254.577 257.443 252.071C264.461 250.709 271.356 248.718 278.307 247.016C278.775 246.901 279.253 246.829 279.726 246.737C279.775 246.873 279.824 247.009 279.872 247.145C279.368 247.371 278.884 247.677 278.356 247.809C272.248 249.343 266.179 251.08 260.01 252.312C249.593 254.393 239.102 256.098 228.659 258.054C213.99 260.803 199.29 263.417 184.694 266.519C175.923 268.383 167.332 271.08 159.119 274.802C158.604 275.035 158.039 275.157 157.497 275.33C157.425 275.171 157.353 275.012 157.281 274.854C158.305 274.352 159.287 273.72 160.361 273.369C167.854 270.926 175.383 268.593 182.862 266.106C185.331 265.285 187.686 264.119 190.09 263.104C205.844 256.45 222.09 251.272 238.796 247.692C250.608 245.16 262.554 243.255 274.446 241.105C275.894 240.844 277.38 240.794 278.85 240.671C279.182 240.643 279.522 240.72 279.858 240.748C279.864 240.892 279.87 241.036 279.876 241.179L279.875 241.18Z" fill="#5D5857"/>
<path d="M105.101 115.319C102.644 102.4 109.35 86.8191 123.247 78.9381C136.338 71.5141 153.069 73.9177 163.622 84.5703C171.79 92.815 177.53 109.735 174.08 115.834C174.398 111.106 174.124 106.565 172.829 102.18C168.825 88.6167 160.44 79.1907 146.283 76.1671C134.314 73.611 123.928 77.2374 115.419 86.0502C108.209 93.5186 105.065 102.582 104.984 112.823C104.977 113.654 105.06 114.487 105.101 115.319Z" fill="#5D5857"/>
<path d="M33.1469 237.789C32.8931 236.433 32.5963 235.084 32.4018 233.719C32.2898 232.929 32.0931 232.515 31.1611 232.339C22.8878 230.777 14.5521 229.764 6.14964 229.269C4.16015 229.152 2.17066 229.031 0.181917 228.913C0.151493 228.786 0.12181 228.659 0.0913849 228.532C0.542563 228.44 0.999678 228.245 1.44344 228.273C5.57157 228.534 9.71603 228.678 13.8204 229.157C19.616 229.833 25.3826 230.766 31.1618 231.585C31.3926 231.618 31.6286 231.61 32.0865 231.633C29.5827 218.677 27.096 205.81 24.6094 192.942C24.5366 192.945 24.4639 192.949 24.3919 192.952C22.5286 203.629 20.6653 214.306 18.8019 224.984C18.6431 224.976 18.4851 224.969 18.3263 224.96C18.373 224.19 18.3589 223.41 18.4769 222.65C18.8984 219.936 19.3466 217.225 19.8178 214.517C21.2285 206.403 22.6533 198.291 24.0818 190.18C24.133 189.888 24.2851 189.614 24.3897 189.331C24.5263 189.329 24.6628 189.327 24.7993 189.325C27.853 205.423 30.9066 221.521 33.9602 237.619L33.1476 237.789H33.1469Z" fill="#5D5857"/>
<path d="M279.808 254.291C271.558 257.651 263.222 260.818 255.082 264.426C246.987 268.014 239.32 272.459 231.877 277.287C235.75 273.718 240.311 271.192 244.905 268.745C249.53 266.281 254.234 263.964 258.861 261.407C241.469 262.928 224.069 264.236 206.983 268.083C206.939 267.937 206.895 267.792 206.851 267.646C207.219 267.485 207.573 267.249 207.957 267.175C212.702 266.259 217.42 265.113 222.207 264.519C233.523 263.115 244.856 261.782 256.216 260.827C260.512 260.466 264.515 259.596 268.453 257.969C271.703 256.627 275.04 255.494 278.346 254.289C278.793 254.126 279.285 254.085 279.756 253.988C279.773 254.089 279.791 254.189 279.808 254.29V254.291Z" fill="#5D5857"/>
<path d="M167.144 84.6716C187.564 75.5337 207.703 66.5202 227.868 57.4963C226.992 59.0103 169.128 85.1309 167.144 84.6716Z" fill="#5D5857"/>
<path d="M55.1234 58.9086C74.058 67.1873 92.9934 75.4653 111.928 83.744L111.674 84.3195C92.6951 76.1127 73.6825 67.9835 54.8273 59.4967C54.926 59.3004 55.0247 59.1049 55.1234 58.9086Z" fill="#5D5857"/>
<path d="M54.3074 42.7476C70.8534 53.2654 87.3985 63.7825 103.944 74.3004C101.974 74.2782 55.4272 44.6978 54.3074 42.7476Z" fill="#5D5857"/>
<path d="M115.338 78.1373C100.683 65.5263 85.4049 53.6989 69.9394 42.107C69.8563 42.0448 69.929 41.7737 69.929 41.5863C72.3972 42.0885 113.56 75.0375 115.338 78.1373Z" fill="#5D5857"/>
<path d="M74.4176 20.2086C72.9928 21.2922 72.0007 22.047 71.0085 22.801C70.8987 22.664 70.7889 22.5262 70.6791 22.3892C71.5302 21.4952 72.3821 20.6019 73.2333 19.7079C73.1976 19.5723 73.162 19.4375 73.1264 19.302H67.9111C67.8993 19.0902 67.8874 18.8791 67.8755 18.6672C69.6283 18.5235 71.3811 18.3806 73.3654 18.2184C72.3294 17.1266 71.4627 16.2133 70.5959 15.3C70.7065 15.1719 70.8178 15.0437 70.9284 14.9156C71.9821 15.7422 73.0359 16.5688 74.4473 17.6762V10.444C74.6165 10.4381 74.7857 10.4329 74.9549 10.427C75.6339 12.6402 74.8747 15.0408 75.4617 17.468C76.692 16.4451 77.7532 15.5622 78.8151 14.6793L79.2166 15.1415C78.3268 16.0926 77.4364 17.0436 76.5466 17.9947C76.603 18.1465 76.6594 18.2984 76.7151 18.4509H81.9622C81.9697 18.6657 81.9763 18.8813 81.9838 19.0961C80.1813 19.1827 78.3795 19.2694 76.163 19.3753C77.3614 20.636 78.2712 21.5922 79.181 22.5492C79.0563 22.6966 78.9316 22.844 78.807 22.9906C77.722 22.1366 76.6364 21.2833 75.5515 20.4293C75.409 20.4649 75.2673 20.5004 75.1248 20.536V26.9193C74.8888 26.92 74.6528 26.9208 74.4169 26.9222V20.2093L74.4176 20.2086Z" fill="#5D5857"/>
<path d="M48.7963 86.3771C68.1161 87.9059 87.4493 89.2821 106.696 91.6182C106.683 91.7545 106.671 91.8901 106.658 92.0263C87.3639 90.3361 68.0694 88.6466 48.7748 86.9563C48.7815 86.763 48.7889 86.5704 48.7956 86.3771H48.7963Z" fill="#5D5857"/>
<path d="M153.441 70.0177C154.06 67.7305 179.579 18.9314 180.372 18.4203C180.383 19.4861 154.46 69.3437 153.441 70.0177Z" fill="#5D5857"/>
<path d="M112.227 246.153C112.124 244.849 111.995 243.548 111.922 242.243C111.401 232.94 111.03 223.628 110.332 214.339C109.831 207.672 108.963 201.03 108.114 194.395C107.878 192.548 107.126 190.767 106.893 188.77C107.109 189.102 107.434 189.407 107.523 189.77C108.218 192.61 109.131 195.43 109.477 198.316C110.201 204.339 110.703 210.394 111.14 216.447C111.66 223.645 112.02 230.855 112.44 238.061C112.573 240.338 112.687 242.617 112.792 244.896C112.811 245.323 112.746 245.755 112.72 246.185C112.556 246.174 112.391 246.164 112.227 246.154V246.153Z" fill="#5D5857"/>
<path d="M174.5 77.8449C191.2 69.118 207.81 60.4379 224.312 51.8147C223.98 53.3168 177.725 77.6923 174.5 77.8449Z" fill="#5D5857"/>
<path d="M149.676 67.6692C155.642 50.3829 161.609 33.0965 167.596 15.7502C168.226 16.8813 151.88 65.0723 150.021 67.7788C149.906 67.7425 149.791 67.7055 149.676 67.6692Z" fill="#5D5857"/>
<path d="M172.563 91.6253C191.78 89.5269 211.05 88.0507 230.334 86.7471C230.35 86.93 230.366 87.1137 230.382 87.2967C211.12 88.8818 191.857 90.4668 172.595 92.0519C172.584 91.9097 172.573 91.7675 172.562 91.6253H172.563Z" fill="#5D5857"/>
<path d="M0.10083 253.038C5.19365 252.79 41.7754 273.742 43.1935 277.773C29.5491 267.8 15.3014 259.586 0.10083 253.038Z" fill="#5D5857"/>
<path d="M267.15 83.1411H260.657C261.746 84.9899 262.693 86.5964 263.64 88.203C263.473 88.3052 263.306 88.4082 263.139 88.5104C262.031 87.009 260.922 85.5076 259.814 84.0055L259.499 84.1344C259.308 86.0698 259.116 88.006 258.925 89.9414C258.765 89.9207 258.605 89.9007 258.445 89.8799V83.8655C257.533 84.3588 256.702 84.8091 255.872 85.2587C255.77 85.141 255.668 85.0232 255.567 84.9054C256.189 84.4269 256.813 83.9485 257.523 83.4041C255.737 81.2597 253.075 83.0485 251.327 81.5368H258.532C258.436 79.4739 258.336 77.3644 258.237 75.2542C258.422 75.2238 258.607 75.1927 258.792 75.1624C259.49 77.223 258.911 79.5717 259.837 81.7597C260.9 80.1591 261.879 78.6858 262.858 77.2133L263.365 77.4444C262.973 78.2096 262.613 78.994 262.18 79.7354C261.686 80.5813 261.127 81.3894 260.361 82.5811H267.163C267.159 82.7678 267.155 82.9545 267.151 83.1404L267.15 83.1411Z" fill="#5D5857"/>
<path d="M113.901 79.0808C100.198 69.4303 86.494 59.7805 72.791 50.13L72.9387 49.7886C73.4024 50.0093 73.9041 50.173 74.3234 50.4589C78.4478 53.2758 82.5796 56.0815 86.6669 58.9517C93.8257 63.978 100.968 69.0288 108.088 74.1107C110.164 75.5928 112.14 77.2135 114.162 78.7712C114.075 78.8741 113.988 78.9771 113.901 79.0808Z" fill="#5D5857"/>
<path d="M201.738 25.65C202.667 25.7255 203.494 25.7922 204.556 25.8788C203.911 25.0174 203.303 24.2049 202.696 23.3931C202.785 23.2938 202.874 23.1946 202.963 23.096C203.732 23.7493 204.502 24.4026 205.529 25.2744C205.756 23.6086 205.953 22.1628 206.15 20.7162C206.282 20.694 206.415 20.6717 206.547 20.6503C206.611 21.3636 206.701 22.0754 206.73 22.7894C206.762 23.5671 206.738 24.3471 206.738 25.5092C207.626 24.6463 208.188 24.1004 208.749 23.5545C208.865 23.6716 208.981 23.7878 209.096 23.9049C208.79 24.4093 208.456 24.8996 208.191 25.4248C208.082 25.6396 208.125 25.9299 208.099 26.1862C208.399 26.1914 208.71 26.2492 208.998 26.1914C209.685 26.0544 210.362 25.864 211.043 25.6944C211.077 25.8885 211.111 26.0825 211.145 26.2766C210.345 26.424 209.545 26.5706 209.054 26.661V29.5127C208.277 29.3238 207.791 29.206 207.089 29.0349C206.945 30.1223 206.814 31.114 206.689 32.0629C206.081 31.12 205.455 30.1489 204.792 29.1216C203.7 29.946 202.708 30.6948 201.715 31.4437C201.58 31.297 201.445 31.1496 201.311 31.0029C202.319 30.2015 203.326 29.3993 204.333 28.5979C204.35 28.4468 204.368 28.295 204.385 28.1439C202.754 28.209 201.847 27.5395 201.737 25.6485L201.738 25.65Z" fill="#5D5857"/>
<path d="M169.354 85.8605C186.46 80.0438 203.566 74.2279 220.673 68.4113L220.819 68.8312C203.988 75.456 186.56 80.3646 169.572 86.5345C169.499 86.3101 169.426 86.0849 169.354 85.8605Z" fill="#5D5857"/>
<path d="M133.842 66.4211C133.414 66.1744 133.11 66.1004 133.083 65.9693C129.615 49.4125 126.168 32.8521 122.72 16.2917C122.96 16.2428 123.2 16.1932 123.44 16.1443C126.889 32.8158 130.339 49.4873 133.843 66.4211H133.842Z" fill="#5D5857"/>
<path d="M209.981 53.9394C194.909 62.8114 179.837 71.6827 164.764 80.5548C164.648 80.3585 164.532 80.1622 164.416 79.9666C179.491 71.0731 194.567 62.1796 209.643 53.2869C209.755 53.5046 209.868 53.7224 209.98 53.9394H209.981Z" fill="#5D5857"/>
<path d="M52.4615 78.3467C68.3203 81.3243 84.1798 84.3019 100.039 87.2794L99.9228 87.895C84.0381 85.0574 68.1444 82.2627 52.3487 78.9474C52.3866 78.7474 52.4237 78.5474 52.4615 78.3467Z" fill="#5D5857"/>
<path d="M100.74 75.7027C98.0505 75.4805 59.1037 54.1581 58.2778 52.6345C72.5856 60.4074 86.6627 68.055 100.74 75.7027Z" fill="#5D5857"/>
<path d="M186.022 34.4191C176.657 47.8975 167.153 60.8863 156.893 73.3107C166.325 60.3471 175.758 47.3827 185.205 34.4295C185.266 34.3458 185.543 34.4191 186.022 34.4191Z" fill="#5D5857"/>
<path d="M128.678 65.3109C123.129 50.3037 117.582 35.2958 112.033 20.2886L112.453 20.1345C118.538 34.9454 123.974 49.9941 129.061 65.1702C128.933 65.2169 128.806 65.2643 128.677 65.3109H128.678Z" fill="#5D5857"/>
<path d="M188.098 118.486C177.127 127.569 166.744 136.932 155.648 145.429C155.533 145.29 155.42 145.153 155.306 145.014C165.966 136.018 176.626 127.022 187.3 118.043C187.347 118.003 187.597 118.203 188.098 118.486H188.098Z" fill="#5D5857"/>
<path d="M59.5594 74.9228C60.6888 74.6095 103.012 85.5947 103.752 86.3791C88.8043 82.5823 74.0015 79.4588 59.5594 74.9228Z" fill="#5D5857"/>
<path d="M100.689 194.271C100.373 210.993 100.057 227.715 99.7358 244.675C98.9181 243.656 99.5058 197.805 100.186 194.267C100.353 194.268 100.522 194.269 100.689 194.271Z" fill="#5D5857"/>
<path d="M65.2836 71.5817C80.1072 75.7762 95.1541 79.2501 109.397 85.3178C94.9256 79.9871 79.8719 76.5339 65.2836 71.5817Z" fill="#5D5857"/>
<path d="M176.89 86.0183C191.42 82.4889 205.95 78.9595 220.479 75.4293C220.522 75.6019 220.564 75.7752 220.606 75.9478C206.206 80.0164 191.547 83.0333 177.038 86.6619C176.989 86.4471 176.94 86.2323 176.89 86.0183Z" fill="#5D5857"/>
<path d="M96.4884 38.5508C105.741 50.9774 116.264 62.473 123.771 76.1795C115.761 62.8404 105.157 51.4055 95.9178 38.9693C96.1077 38.83 96.2984 38.69 96.4884 38.5508Z" fill="#5D5857"/>
<path d="M189.655 148.623C190.048 148.355 190.415 148.036 190.838 147.827C193.907 146.312 197.051 144.933 200.05 143.292C205.229 140.459 209.261 136.281 212.96 131.771C214.939 129.358 217.109 127.188 219.967 125.821C220.343 125.641 220.759 125.546 221.231 125.386C221.231 125.726 221.262 125.88 221.227 125.896C217.396 127.678 214.742 130.804 212.14 133.946C207.432 139.629 201.667 143.854 194.907 146.776C193.51 147.38 192.152 148.072 190.77 148.708C190.478 148.842 190.155 148.909 189.847 149.007L189.655 148.624V148.623Z" fill="#5D5857"/>
<path d="M236.835 36.0853C233.317 36.0942 230.584 33.3329 230.646 29.8331C230.707 26.3681 233.413 23.7179 236.869 23.7379C240.332 23.7579 242.951 26.4355 242.922 29.9264C242.894 33.4773 240.325 36.0771 236.835 36.086V36.0853ZM236.856 35.2661C239.735 35.2572 242.119 32.8736 242.128 29.9953C242.137 26.9221 239.786 24.5756 236.714 24.5934C234 24.609 231.485 27.0851 231.451 29.7775C231.413 32.7418 233.908 35.2757 236.856 35.2668V35.2661Z" fill="#5D5857"/>
<path d="M35.508 29.8818C35.5139 26.3783 38.1713 23.6925 41.6026 23.7222C45.2135 23.7533 47.8278 26.3783 47.793 29.9366C47.7581 33.5341 45.1645 36.1251 41.5714 36.154C38.2596 36.1806 35.5013 33.3275 35.5072 29.8818H35.508ZM36.3035 29.7536C36.2857 32.7364 38.7256 35.2563 41.633 35.2585C44.7304 35.2607 46.9485 33.0075 46.9641 29.8433C46.9789 26.8923 44.6354 24.5895 41.61 24.5821C38.7152 24.5754 36.3198 26.9094 36.3027 29.7536H36.3035Z" fill="#5D5857"/>
<path d="M26.8377 53.0219C23.0175 53.4833 21.1237 55.6461 20.4685 59.3392C19.7924 55.5424 17.7028 53.4863 13.8589 53.0826C15.5812 52.3412 17.2427 52.0286 18.2964 51.0583C19.3279 50.1087 19.7398 48.4888 20.6109 47.0526C21.0673 50.6739 23.3848 52.3004 26.8377 53.0219ZM20.5968 50.5546C19.7524 51.3716 18.7929 52.3012 18.0144 53.0545C18.801 54.0196 19.7138 55.1395 20.3987 55.9802C21.3204 54.9951 22.3467 53.8988 23.2394 52.9441C22.4394 52.2212 21.4064 51.2864 20.5968 50.5539V50.5546Z" fill="#5D5857"/>
<path d="M140.789 8.7974V44.41C140.592 44.4085 140.394 44.4077 140.198 44.4063C140.256 32.5285 140.187 20.65 140.301 8.77222C140.464 8.78036 140.626 8.78925 140.789 8.7974Z" fill="#5D5857"/>
<path d="M163.692 71.634C172.203 61.9028 180.714 52.1715 189.226 42.4403C189.42 42.6099 189.614 42.7795 189.808 42.9484C181.283 52.6611 172.758 62.3746 164.233 72.0873C164.053 71.9362 163.872 71.7851 163.692 71.634Z" fill="#5D5857"/>
<path d="M244.112 59.1481C245.602 58.4637 247.333 58.1164 248.352 57.0742C249.357 56.0446 249.641 54.3122 250.398 52.7686C250.697 56.5957 252.674 58.7415 256.709 58.8548C256.639 59.0067 256.569 59.1578 256.499 59.3096C255.978 59.4259 255.461 59.6148 254.934 59.6444C253.058 59.7481 252.023 60.8273 251.416 62.4857C250.97 63.7049 250.952 63.6982 249.603 63.6249C248.796 61.6122 246.965 60.1202 244.112 59.1489V59.1481ZM250.038 56.6194C249.402 57.3238 248.592 58.2215 247.929 58.9556C248.708 59.9599 249.54 61.0354 250.225 61.9183C251.075 60.914 251.957 59.8718 252.84 58.8297C252.721 59.0763 252.601 59.323 252.481 59.5696C251.654 58.5711 250.828 57.5734 250.038 56.6194Z" fill="#5D5857"/>
<path d="M67.3754 93.2641C80.1471 93.2804 92.9248 92.9745 105.674 94.3307C92.9048 94.1485 80.136 93.967 67.3665 93.7848C67.3694 93.6115 67.3724 93.4382 67.3754 93.2641Z" fill="#5D5857"/>
<path d="M129.614 14.3497C131.373 27.8578 133.133 41.3658 134.891 54.8746C134.666 54.9042 134.441 54.9339 134.216 54.9635C132.456 41.454 130.696 27.9444 128.935 14.4349C129.162 14.4068 129.388 14.3779 129.614 14.3497Z" fill="#5D5857"/>
<path d="M136.956 51.3692C136.365 37.7071 135.774 24.045 135.182 10.3829C135.406 10.3733 135.63 10.3636 135.854 10.354C136.459 24.0272 137.065 37.7004 137.671 51.3736C137.433 51.3721 137.195 51.3707 136.956 51.3692Z" fill="#5D5857"/>
<path d="M109.737 26.5608C115.341 38.6963 120.724 50.9311 125.977 63.2222C125.803 63.3 125.628 63.3785 125.454 63.4562C120.037 51.2518 114.621 39.0474 109.204 26.8437C109.381 26.7497 109.558 26.6556 109.736 26.5615L109.737 26.5608Z" fill="#5D5857"/>
<path d="M167.31 32.0266C162.455 43.714 157.676 55.2207 152.783 67.0015C152.53 64.8831 165.806 32.9984 167.31 32.0266Z" fill="#5D5857"/>
<path d="M142.4 68.3684C143.559 56.5713 144.718 44.7743 145.877 32.9773C146.105 33.0003 146.334 33.0225 146.562 33.0454C145.4 44.838 144.238 56.6306 143.075 68.4239C142.851 68.4054 142.625 68.3869 142.4 68.3684Z" fill="#5D5857"/>
<path d="M166.333 53.5377C171.745 44.3538 177.158 35.1699 182.712 25.7468C183.067 26.8593 167.88 52.8333 166.685 53.7717C166.568 53.694 166.451 53.6154 166.333 53.5377Z" fill="#5D5857"/>
<path d="M111.173 71.2015C102.732 63.4331 94.3625 55.7307 85.8287 47.8771C87.4976 47.9252 110.52 69.2898 111.173 71.2015Z" fill="#5D5857"/>
<path d="M103.272 216.324V244.961C103.155 244.959 103.039 244.958 102.923 244.955V216.287L103.272 216.324Z" fill="#5D5857"/>
<path d="M107.303 31.3909C108.632 31.8982 120.958 57.0626 120.64 58.4743C116.194 49.4468 111.749 40.4184 107.303 31.3909Z" fill="#5D5857"/>
<path d="M18.1994 84.4468C17.3327 84.5268 16.4652 84.6076 15.525 84.6942C16.1498 85.3283 16.7368 85.9238 17.3237 86.5193C17.2124 86.6297 17.1011 86.74 16.9898 86.8504C16.3553 86.4164 15.7209 85.9823 14.9335 85.4438C14.8875 86.5 14.8497 87.36 14.7948 88.6125C13.6052 87.5318 14.4215 86.2801 13.816 85.3623C13.1459 85.9134 12.527 86.4223 11.9081 86.9319C11.7983 86.8348 11.6885 86.7386 11.5779 86.6415C11.9979 86.0275 12.4172 85.4135 12.9277 84.6668C12.0669 84.5668 11.2774 84.475 10.4878 84.3831L10.4522 83.918C11.2484 83.8173 12.0447 83.7173 12.97 83.6002C12.4966 82.9032 12.0862 82.3003 11.6759 81.6967C11.7805 81.6026 11.8851 81.5085 11.9905 81.4137C12.5916 81.8759 13.1934 82.3381 14.0037 82.9618V79.3146C15.4404 80.3893 14.5291 81.8203 15.1562 82.7492C15.7921 82.347 16.4258 81.9455 17.0588 81.5448C17.2065 81.7292 17.3534 81.9137 17.5011 82.0981C16.7843 82.5151 16.0674 82.9329 15.3506 83.3499L15.7313 83.7373C16.5654 83.7736 17.3994 83.8098 18.2335 83.8469C18.2217 84.0469 18.2098 84.2469 18.1979 84.4461L18.1994 84.4468Z" fill="#5D5857"/>
<path d="M70.5649 97.853C81.6648 97.3471 92.6178 96.8486 103.889 96.3353C102.755 97.379 71.5771 98.667 70.5649 97.853Z" fill="#5D5857"/>
<path d="M175.565 69.6556C183.225 63.5382 190.885 57.4209 198.545 51.3035C198.671 51.4523 198.797 51.6012 198.923 51.7508C195.286 55.0025 191.375 57.9386 187.572 60.9969C183.719 64.0945 179.824 67.138 175.948 70.2052C175.82 70.0223 175.693 69.8386 175.566 69.6556H175.565Z" fill="#5D5857"/>
<path d="M182.195 87.6813C191.965 85.857 201.735 84.0334 211.504 82.2091C211.543 82.4121 211.583 82.615 211.622 82.818C201.883 84.8008 192.097 86.5414 182.31 88.2761C182.272 88.0776 182.234 87.8799 182.195 87.6813Z" fill="#5D5857"/>
<path d="M152.839 47.5768C150.657 56.2926 148.475 65.0076 146.293 73.7233C146.056 73.6641 145.818 73.6048 145.581 73.5455C147.761 64.8224 149.942 56.1 152.122 47.3768C152.361 47.4435 152.6 47.5102 152.839 47.5768Z" fill="#5D5857"/>
<path d="M145.299 66.1859C146.514 57.0976 147.73 48.0085 148.961 38.8047C149.793 39.8891 146.731 64.0201 145.299 66.1859Z" fill="#5D5857"/>
<path d="M158.859 73.7703C165.042 66.0745 171.224 58.3779 177.407 50.6821C177.582 50.8221 177.758 50.9621 177.932 51.1021C171.748 58.7957 165.563 66.4885 159.378 74.1821C159.204 74.0451 159.031 73.9073 158.858 73.7703H158.859Z" fill="#5D5857"/>
<path d="M201.109 41.5005C194.567 47.7571 188.024 54.013 181.482 60.2697C181.96 58.4713 199.846 41.3523 201.109 41.5005Z" fill="#5D5857"/>
<path d="M96.3289 25.0734C101.031 32.7099 105.733 40.3472 110.436 47.9845C110.248 48.1008 110.06 48.2164 109.872 48.3326C105.138 40.7153 100.404 33.098 95.6699 25.4815C95.8896 25.3459 96.1092 25.2104 96.3289 25.0741V25.0734Z" fill="#5D5857"/>
<path d="M131.444 67.803C129.034 59.0325 126.623 50.2612 124.213 41.4906C124.44 41.4277 124.667 41.3654 124.894 41.3025C127.304 50.0723 129.713 58.8429 132.122 67.6127C131.896 67.6764 131.669 67.7401 131.443 67.803H131.444Z" fill="#5D5857"/>
<path d="M175.169 96.4609C185.242 96.775 195.298 97.3624 205.335 98.2364C205.325 98.409 205.314 98.5823 205.303 98.7549C195.248 98.1497 185.192 97.5453 175.137 96.9402C175.149 96.7802 175.159 96.6202 175.17 96.4602L175.169 96.4609Z" fill="#5D5857"/>
<path d="M103.513 58.3317C97.8491 52.275 92.1848 46.2176 86.5214 40.161L86.8598 39.7284C87.2582 39.9973 87.7265 40.2017 88.0441 40.5446C92.9128 45.8013 97.7637 51.0736 102.612 56.3496C103.09 56.871 103.518 57.4399 103.968 57.9872C103.817 58.1021 103.665 58.2169 103.513 58.3317Z" fill="#5D5857"/>
<path d="M203.53 93.8382C193.713 93.99 183.896 94.1411 174.078 94.293C174.076 94.0863 174.074 93.8797 174.071 93.673H203.525C203.526 93.7278 203.529 93.7833 203.53 93.8382Z" fill="#5D5857"/>
<path d="M118.81 59.1554C114.786 52.3247 111.013 45.3585 107.462 38.2708C107.639 38.1745 107.815 38.079 107.991 37.9827C111.765 44.9489 115.538 51.9159 119.312 58.8821C119.145 58.9732 118.978 59.0643 118.81 59.1554Z" fill="#5D5857"/>
<path d="M181.558 62.2261C175.522 67.7998 169.696 73.1802 163.729 78.6917C163.949 77.3073 180.108 62.252 181.558 62.2261Z" fill="#5D5857"/>
<path d="M260.312 225.775C266.224 221.55 272.867 218.773 279.595 216.165C279.691 216.327 279.786 216.489 279.882 216.651C279.352 216.937 278.846 217.285 278.289 217.5C272.503 219.722 266.897 222.302 261.693 225.698C261.34 225.929 260.897 226.023 260.495 226.18C260.435 226.045 260.373 225.91 260.312 225.775Z" fill="#5D5857"/>
<path d="M262.145 141.917C267.764 137.992 273.739 134.635 279.914 131.212C279.677 132.22 264.072 141.672 262.145 141.917Z" fill="#5D5857"/>
<path d="M164.121 54.5825C164.27 56.0535 154.486 74.3494 153.291 74.6272C156.841 68.0572 160.391 61.4873 164.121 54.5825Z" fill="#5D5857"/>
<path d="M164.371 74.2901C168.99 69.7615 173.609 65.2321 178.277 60.6561C178.262 60.8139 178.351 61.2354 178.186 61.399C173.887 65.6366 169.564 69.8496 165.236 74.0575C165.045 74.2434 164.769 74.3442 164.533 74.4849C164.479 74.4197 164.425 74.3553 164.371 74.2901H164.371Z" fill="#5D5857"/>
<path d="M103.45 189.141V215.193C103.332 215.193 103.215 215.193 103.097 215.194V189.141H103.45Z" fill="#5D5857"/>
<path d="M149.108 33.0747C149.997 26.6454 150.886 20.2162 151.775 13.787C152.017 13.8218 152.259 13.8566 152.5 13.8922C151.583 20.3303 150.667 26.7684 149.75 33.2072L149.108 33.0754V33.0747Z" fill="#5D5857"/>
<path d="M175.808 98.8059C182.531 99.7614 189.255 100.717 195.978 101.672C195.952 101.858 195.927 102.044 195.901 102.229C189.164 101.325 182.427 100.421 175.69 99.517C175.729 99.28 175.769 99.0422 175.809 98.8052L175.808 98.8059Z" fill="#5D5857"/>
<path d="M83.5177 101.528C90.1229 100.543 96.7288 99.5589 103.334 98.5737C103.387 98.73 103.441 98.8863 103.494 99.0418C103.181 99.2063 102.883 99.4722 102.553 99.5189C96.3986 100.388 90.2409 101.231 84.0832 102.074C83.9206 102.096 83.7477 102.048 83.58 102.033C83.5593 101.865 83.5392 101.696 83.5184 101.528L83.5177 101.528Z" fill="#5D5857"/>
<path d="M263.276 227.502C265.106 225.466 278.318 221.027 279.624 221.735C274.207 223.646 268.741 225.574 263.276 227.502Z" fill="#5D5857"/>
<path d="M40.6567 58.1432C40.3502 56.7292 40.3168 55.5737 38.8994 55.5707C38.8727 55.5707 38.8475 54.8745 38.8223 54.5026C40.2263 54.5263 40.0103 53.2057 40.5149 52.4813C40.5609 52.4154 40.6722 52.3954 40.8607 52.2983C41.2474 53.4716 42.1222 53.679 43.038 53.3116C43.1411 54.153 43.2576 54.893 43.3029 55.6366C43.314 55.8211 43.038 56.2011 42.9882 56.1862C41.6295 55.77 41.4032 56.984 40.6574 58.1439L40.6567 58.1432Z" fill="#5D5857"/>
<path d="M104.767 59.6681C108.949 63.6849 112.692 68.0979 116.389 72.5517C116.26 72.668 116.131 72.7843 116.002 72.9013C112.143 68.5934 108.283 64.2863 104.424 59.9784C104.538 59.8747 104.652 59.7718 104.767 59.6681Z" fill="#5D5857"/>
<path d="M194.591 105.798C188.588 104.648 182.586 103.5 176.587 102.33C176.501 102.312 176.468 102.024 176.319 101.604C182.572 102.88 188.625 104.115 194.678 105.35C194.649 105.5 194.62 105.649 194.591 105.799V105.798Z" fill="#5D5857"/>
<path d="M241.297 157.916C237.257 160.515 233.217 163.113 229.177 165.712C229.059 165.529 228.94 165.345 228.822 165.162C232.721 162.343 236.801 159.805 240.936 157.35C241.056 157.538 241.177 157.727 241.297 157.916Z" fill="#5D5857"/>
<path d="M120.83 75.1969C117.76 71.1371 114.689 67.0781 111.619 63.0184C111.806 62.8784 111.994 62.7384 112.181 62.5984C115.247 66.6663 118.313 70.7342 121.38 74.8013C121.197 74.9332 121.013 75.065 120.83 75.1969Z" fill="#5D5857"/>
<path d="M101.566 102.684C96.6182 103.678 91.6709 104.672 86.7227 105.667C86.6886 105.5 86.6545 105.334 86.6203 105.167C91.5647 104.149 96.5084 103.131 101.453 102.112L101.566 102.685V102.684Z" fill="#5D5857"/>
<path d="M122.148 61.6942C124.113 65.7088 126.078 69.7233 128.042 73.7386C127.842 73.8371 127.642 73.9349 127.442 74.0334C125.479 70.0226 123.516 66.0125 121.553 62.0016C121.751 61.8994 121.949 61.7972 122.147 61.695L122.148 61.6942Z" fill="#5D5857"/>
<path d="M11.3878 218.032C7.43777 216.545 3.76601 215.163 0 213.745C1.19473 213.038 10.1211 216.341 11.3878 218.032Z" fill="#5D5857"/>
<path d="M103.251 51.5791C105.708 54.6315 108.164 57.6839 110.62 60.737C110.449 60.8755 110.277 61.0148 110.105 61.1533C107.628 58.1216 105.151 55.09 102.674 52.0576C102.867 51.8983 103.059 51.7384 103.252 51.5791H103.251Z" fill="#5D5857"/>
<path d="M0.0519714 218.943C1.453 218.622 8.26075 220.587 11.0339 222.088C10.5864 222.214 10.297 222.402 10.0848 222.338C6.86417 221.364 3.65324 220.359 0.443784 219.35C0.333216 219.315 0.259751 219.165 0.0519714 218.944V218.943Z" fill="#5D5857"/>
<path d="M230.454 71.2806C231.1 71.4095 231.638 71.5169 232.227 71.6347C232.332 72.2665 232.454 73.0035 232.573 73.7197C231.993 73.9731 231.412 74.2264 230.775 74.5049C230.343 74.1338 229.779 73.6479 229.204 73.1539C229.596 72.5657 230.034 71.911 230.454 71.2814V71.2806Z" fill="#5D5857"/>
<path d="M23.9732 76.4119C23.459 75.609 22.6338 74.8683 22.5804 74.0757C22.5314 73.3491 23.3158 72.5677 23.7699 71.7418C25.2125 73.1521 25.2785 74.6676 23.9725 76.4119H23.9732Z" fill="#5D5857"/>
<path d="M38.304 225.622C40.692 226.751 43.0807 227.881 45.7143 229.126C44.5137 229.563 38.6847 226.94 38.1081 225.999C38.1734 225.873 38.2387 225.747 38.304 225.622Z" fill="#5D5857"/>
<path d="M124.19 72.0629C122.754 69.2408 121.318 66.4195 119.882 63.5975C120.056 63.5079 120.231 63.4182 120.406 63.3286C121.875 66.1344 123.345 68.9409 124.814 71.7466C124.607 71.8518 124.398 71.9577 124.19 72.0629Z" fill="#5D5857"/>
<path d="M28.6306 36.417C29.202 37.2288 29.6465 37.8621 30.1185 38.5324C29.6287 39.1161 29.1538 39.6812 28.6039 40.3367C28.0659 39.716 27.5598 39.1324 27.0329 38.525C27.5509 37.8413 28.0214 37.2214 28.6306 36.417Z" fill="#5D5857"/>
<path d="M20.8552 225.392C23.3908 225.441 27.1301 226.844 27.6414 227.851C25.2452 226.95 22.8669 226.656 20.8552 225.392Z" fill="#5D5857"/>
<path d="M140.299 56.4549V46.9844H140.661V56.449C140.541 56.4512 140.42 56.4527 140.299 56.4549Z" fill="#5D5857"/>
<path d="M135.62 66.2404C135.244 63.828 134.87 61.4148 134.494 59.0023C134.678 58.969 134.862 58.9357 135.046 58.9023C135.687 61.2718 135.842 63.7324 136.193 66.156C136.003 66.1841 135.811 66.2123 135.62 66.2404H135.62Z" fill="#5D5857"/>
<path d="M173.109 18.0426C173.626 19.2714 171.733 23.5163 170.308 24.4548C171.348 22.0749 172.228 20.0588 173.109 18.0426Z" fill="#5D5857"/>
<path d="M27.0878 224.437C25.2786 223.651 23.4687 222.865 21.4607 221.993C22.668 221.406 26.3969 222.993 27.0878 224.437Z" fill="#5D5857"/>
<path d="M217.694 20.1112C217.168 19.2994 216.554 18.7617 216.64 18.3817C216.747 17.9077 217.391 17.3322 217.88 17.2485C218.186 17.1959 218.963 17.9914 218.937 18.3654C218.902 18.8646 218.293 19.3239 217.694 20.1112H217.694Z" fill="#5D5857"/>
<path d="M36.0186 84.6553C35.2713 85.2464 34.74 85.9293 34.4469 85.8397C33.9557 85.6893 33.4021 85.0916 33.2952 84.5923C33.2344 84.3072 33.975 83.5879 34.4091 83.5383C34.7987 83.4939 35.2624 84.0983 36.0179 84.6553H36.0186Z" fill="#5D5857"/>
<path d="M251.037 18.2287C250.252 18.8012 249.783 19.4064 249.381 19.3656C248.958 19.3227 248.288 18.6546 248.296 18.2701C248.303 17.8561 248.932 17.185 249.361 17.1243C249.756 17.0687 250.245 17.6731 251.038 18.2287H251.037Z" fill="#5D5857"/>
<path d="M35.2267 69.0528C34.6887 68.2003 34.1737 67.7374 34.1774 67.2781C34.1804 66.9093 34.8126 66.2538 35.1614 66.256C35.5435 66.2589 36.2099 66.8589 36.2262 67.2226C36.247 67.6863 35.7409 68.1729 35.2259 69.0521L35.2267 69.0528Z" fill="#5D5857"/>
<path d="M137.823 59.9802C137.946 61.7186 138.07 63.457 138.192 65.1954C137.993 65.2088 137.794 65.2221 137.595 65.2354C137.474 63.497 137.353 61.7586 137.233 60.0202C137.429 60.0069 137.627 59.9936 137.823 59.9802Z" fill="#5D5857"/>
<path d="M241.534 82.3414C240.788 82.7288 240.37 83.1236 239.997 83.0843C239.7 83.0525 239.458 82.4933 239.191 82.1681C239.539 81.9096 239.87 81.4792 240.237 81.4452C240.537 81.4178 240.88 81.8637 241.534 82.3414Z" fill="#5D5857"/>
<path d="M62.9245 31.9995C63.3186 32.5158 63.7772 32.8765 63.7163 33.0898C63.6139 33.4468 63.1813 33.709 62.8874 34.0112C62.6321 33.7246 62.198 33.452 62.1735 33.1461C62.1498 32.8558 62.5542 32.5306 62.9245 31.9995Z" fill="#5D5857"/>
<path d="M238.109 48.5716C237.595 48.953 237.269 49.3782 236.997 49.3456C236.724 49.313 236.367 48.8478 236.314 48.5278C236.281 48.3293 236.751 47.8479 236.984 47.8546C237.297 47.8634 237.599 48.2234 238.109 48.5716H238.109Z" fill="#5D5857"/>
<path d="M252.256 178.466C255.071 190.144 254.848 202.118 255.734 213.984C255.572 214.018 255.41 214.052 255.248 214.085C255.135 213.596 254.951 213.112 254.92 212.618C254.615 207.686 254.476 202.739 254.009 197.823C253.441 191.832 252.603 185.866 251.882 179.889C251.827 179.437 251.773 178.984 251.718 178.531C251.897 178.51 252.076 178.487 252.255 178.466H252.256Z" fill="#5D5857"/>
<path d="M248.766 214.593C249.08 203.62 249.393 192.647 249.714 181.449C250.453 182.387 249.752 213.747 248.766 214.593Z" fill="#5D5857"/>
<path d="M182.826 218.031V236.28C182.688 236.28 182.55 236.279 182.411 236.278V218.031C182.55 218.031 182.688 218.031 182.826 218.031V218.031Z" fill="#5D5857"/>
<path d="M253.359 229.814C253.183 230.057 253.059 230.391 252.822 230.528C251.22 231.454 249.607 232.362 247.965 233.211C247.699 233.348 247.269 233.169 246.915 233.136C247.186 232.897 247.428 232.602 247.736 232.428C249.141 231.636 250.563 230.871 251.985 230.109C252.371 229.903 252.777 229.738 253.174 229.554C253.236 229.641 253.297 229.728 253.358 229.815L253.359 229.814Z" fill="#5D5857"/>
</svg>
