<svg width="280" height="280" viewBox="0 0 280 280" fill="none" xmlns="http://www.w3.org/2000/svg">
<rect width="280" height="280" rx="20" fill="white"/>
<path d="M249.1 250.183C248.725 249.974 248.163 249.852 247.999 249.543C244.306 242.603 237.641 240.028 230.062 238.811C225.809 238.128 221.77 238.656 218.01 240.902C219.75 244.23 221.621 247.489 221.958 251.278C221.831 250.876 221.718 250.471 221.575 250.074C219.787 245.099 217.409 240.452 213.093 236.906C210.291 234.603 206.983 234.196 203.408 234.603C198.938 235.114 194.763 236.382 190.9 238.538C189.984 239.049 189.111 239.629 188.3 240.301C189.876 239.717 191.41 238.995 193.033 238.574C201.824 236.295 211.125 240.635 214.196 248.319C214.586 249.294 214.638 250.385 214.983 251.381C215.437 252.694 215.836 254.076 216.598 255.233C218.049 257.436 219.795 259.467 221.308 261.635C222.002 262.63 222.67 262.805 223.767 262.259C226.372 260.963 229.034 259.819 232.015 259.429C237.536 258.706 242.705 259.482 247.377 262.437C248.975 263.448 250.473 264.601 251.893 265.888C247.538 263.063 243.036 260.61 237.656 260.073C232.24 259.532 227.439 261.208 222.712 263.639C225.228 264.996 227.579 266.263 229.929 267.531C229.884 267.611 229.839 267.692 229.794 267.772C228.383 267.124 226.998 266.42 225.556 265.839C222.352 264.548 219.16 263.221 215.891 262.089C211.896 260.707 208.158 258.917 204.826 256.448C202.09 254.421 198.982 253.325 195.562 253.173C192.073 253.018 188.569 253.139 185.171 253.139C197.037 257.901 208.955 262.941 218.871 271.231C214.612 268.584 210.353 265.937 206.093 263.29C206.018 263.386 205.942 263.482 205.867 263.578C208.642 265.807 211.417 268.035 214.193 270.264C214.1 270.376 214.008 270.488 213.916 270.6C206.977 265.989 201.109 259.859 192.368 257.115C196.416 260.36 200.166 263.366 203.916 266.373C203.787 266.52 203.658 266.667 203.53 266.814C203.2 266.588 202.859 266.373 202.543 266.133C198.521 263.08 194.513 260.01 190.477 256.973C188.361 255.381 185.932 254.372 183.342 253.621C179.683 252.561 175.491 254.85 174.118 258.358C174.004 258.65 174.454 259.349 174.834 259.563C177.283 260.95 179.827 262.192 182.261 263.598C186.49 266.041 190.52 268.729 193.632 272.439C193.738 272.566 193.827 272.705 193.798 272.96C191.408 271.099 189.096 269.142 186.607 267.405C184.124 265.671 181.464 264.159 178.746 262.704C182.022 266.027 184.948 269.53 187.154 273.53C183.376 269.283 180.087 264.625 175.027 261.132C176.652 264.344 178.158 267.322 179.664 270.3L179.237 270.488C178.585 269.327 177.863 268.195 177.291 267C174.683 261.539 170.742 257.147 165.463 253.773C159.448 249.928 153.312 246.314 146.223 244.42C144.531 243.968 142.818 243.587 141.109 243.189C139.714 242.864 138.457 243.18 137.197 243.805C135.558 244.619 133.859 245.332 132.153 246.018C131.59 246.244 130.926 246.341 130.309 246.335C129.484 246.329 128.728 246.103 129.021 245.05C120.585 245.559 112.975 243.294 105.864 239.424C98.7091 235.53 93.002 230.315 89.734 223.028C89.626 223.074 89.5181 223.12 89.4102 223.166C90.1807 224.902 90.8346 226.693 91.743 228.363C95.0401 234.418 100.337 238.606 106.529 241.907C113.805 245.787 121.731 248.068 129.764 250.065C138.12 252.142 146.516 254.096 154.413 257.504C160.95 260.327 167.39 263.319 172.474 268.247C174.104 269.828 175.445 271.672 176.889 273.417C177.179 273.767 177.335 274.214 177.421 274.72C172.991 269.108 167.579 264.615 160.851 261.534C166.598 265.867 171.013 271.085 173.128 277.815C172.302 276.383 171.511 274.932 170.643 273.522C165.94 265.877 159.198 260.413 150.512 256.998C143.261 254.148 135.628 252.49 128.073 250.583C120.572 248.69 113.221 246.399 106.397 242.871C98.0915 238.577 91.4932 232.795 88.9611 223.889C87.4792 218.677 87.0585 213.421 89.9065 208.377C94.1924 200.784 105.779 199.645 111.255 206.397C112.301 207.686 112.972 209.423 113.247 211.039C113.701 213.701 112.536 215.08 109.685 215.929C111.143 218.324 112.584 220.693 114.134 223.242C114.537 220.009 114.905 217.052 115.298 213.896C115.605 214.163 115.903 214.302 115.99 214.516C117.07 217.184 118.189 219.881 117.911 222.79C117.708 224.92 118.396 226.716 119.569 228.432C120.179 229.324 120.83 230.191 121.447 231.049C121.931 227.755 122.409 224.494 122.888 221.233C123.01 221.198 123.133 221.164 123.255 221.13C123.563 221.496 123.97 221.822 124.164 222.236C125.37 224.815 125.954 227.489 125.424 230.313C124.9 233.099 125.955 235.425 128.508 236.865C127.079 232.823 129.535 229.143 129.152 225.262C129.276 225.214 129.4 225.165 129.524 225.116C129.86 225.7 130.326 226.252 130.507 226.876C131.028 228.675 131.39 230.513 131.896 232.317C132.815 235.586 135.011 238.16 137.391 240.564C137.898 241.076 139.119 241.065 140.021 241.108C140.716 241.141 141.429 240.881 142.261 240.727C141.701 235.334 139.727 230.477 136.632 225.994C133.528 221.496 129.669 217.754 124.294 215.556C124.354 215.417 124.414 215.278 124.474 215.139C125.005 215.266 125.565 215.329 126.062 215.53C129.178 216.793 131.677 218.84 133.877 221.193C138.042 225.648 141.01 230.712 142.38 236.529C142.7 237.889 142.877 239.277 143.086 240.466C147.199 240.679 151.207 240.886 155.238 241.095C154.821 240.584 154.203 239.988 153.786 239.287C151.204 234.945 148.481 230.664 146.166 226.199C143.53 221.114 141.24 215.871 138.858 210.673C134.845 201.918 127.295 197.378 117.768 195.409C114.301 194.693 110.67 194.668 107.114 194.329C106.758 194.295 106.4 194.275 106.017 194.247C106.609 193.097 115.2 193.554 120.25 194.99C125.037 196.351 129.442 198.389 133.32 201.555C133.041 200.98 132.788 200.391 132.478 199.831C130.581 196.403 128.547 193.008 124.591 191.343C122.56 190.489 120.316 189.837 118.111 189.632C113.17 189.173 108.214 189.265 103.573 191.3C102.552 191.748 101.628 192.389 100.663 192.947C100.315 193.147 99.9768 193.363 99.6341 193.572C99.5356 193.456 99.4379 193.341 99.3394 193.226C99.8641 192.759 100.345 192.237 100.921 191.834C103.457 190.062 106.349 189.105 109.485 188.988C112.697 188.87 115.93 188.771 119.129 188.988C124.828 189.375 128.936 192.246 131.773 196.782C132.707 198.276 133.506 199.844 134.447 201.521C134.411 195.922 128.372 186.091 123.667 183.867C123.48 184.003 123.284 184.257 123.053 184.291C122.149 184.423 121.137 184.737 120.36 184.475C119.92 184.327 119.764 183.204 119.66 182.496C119.575 181.926 119.76 181.322 119.842 180.576C118.072 180.458 116.334 180.343 114.446 180.218C114.489 182.377 114.947 184.278 115.929 186.07C116.652 187.389 116.338 188.057 114.783 187.996C113.703 187.954 112.415 187.734 111.624 187.129C110.087 185.954 108.341 185.723 106.558 185.633C101.524 185.379 97.2398 187.188 93.5338 190.222C88.4301 194.401 85.7073 199.808 84.609 205.995C84.4168 207.079 84.2561 208.168 84.0615 209.252C84.0465 209.337 83.885 209.401 83.4556 209.74C83.5911 207.99 83.5455 206.52 83.8417 205.112C85.2866 198.239 88.5664 192.342 94.803 188.21C99.5254 185.082 104.683 183.69 110.422 185.513C111.009 182.644 109.609 180.746 106.435 180.558C101.047 180.239 95.8091 180.879 91.2246 183.843C85.5198 187.532 82.1045 192.619 81.0724 199.048C80.7305 201.177 80.5784 203.332 80.2294 205.48C79.6842 203.289 79.7142 201.054 80.2444 198.876C80.784 196.658 81.382 194.407 82.3708 192.346C83.3572 190.29 84.8612 188.45 85.9153 186.29C84.3136 187.848 82.6008 189.319 81.1331 190.98C78.2811 194.208 77.3782 198.157 76.6739 202.175C75.7757 207.299 77.1592 212.115 78.7782 216.902C82.8175 228.848 91.1513 237.57 102.409 243.957C109.869 248.189 117.496 252.163 125.067 256.223C129.381 258.538 133.491 261.101 136.985 264.447C137.651 265.085 138.261 265.778 138.84 266.487C139.081 266.782 139.174 267.184 139.186 267.644C133.505 261.456 126.144 257.569 118.465 254.073C119.243 254.64 120.021 255.207 120.798 255.776C121.621 256.379 122.43 257 123.268 257.586C129.167 261.719 134.618 266.293 138.571 272.178C140.228 274.645 141.421 277.384 142.825 280H142.004C139.668 274.711 136.401 270.012 132.086 265.93C126.79 260.919 120.747 256.754 114.753 252.553C111.454 250.241 107.866 248.269 104.3 246.318C100.886 244.45 97.1271 244.172 93.2265 244.611C90.0436 244.969 87.0427 245.673 84.2167 247.148C80.7265 248.969 78.5489 252.008 75.9175 254.629C75.552 254.993 75.2549 255.418 74.9264 255.815C75.8884 255.537 76.6408 255.054 77.4633 254.721C81.2095 253.2 85.0944 252.22 89.177 251.774C94.9558 251.142 100.647 251.339 106.291 252.653C110.927 253.734 115.259 255.466 118.825 258.492C125.252 263.945 126.352 270.864 124.759 278.44C124.686 278.787 124.395 279.095 124.206 279.421C124.072 279.393 123.937 279.364 123.802 279.335C124.76 274.334 125.19 269.366 122.658 264.663C120.12 259.949 116.051 256.86 110.847 255.017C120.12 261.157 120.674 272.709 116.047 280H114.955C117.924 275.368 118.888 270.396 117.283 265.199C115.265 258.66 110.642 254.273 103.472 253.016C95.245 251.575 86.9852 251.971 79.1445 255.035C73.1372 257.382 68.8584 261.327 67.5254 267.564C67.419 268.062 67.3765 268.571 67.2827 269.071C67.1937 269.545 67.0763 270.014 66.799 270.429C66.4098 265.711 68.2258 261.78 72.0957 258.361C69.1988 259.378 66.4303 262.887 65.4738 265.442C64.3488 268.447 63.8516 271.514 64.2464 274.701C63.2655 272.161 63.3238 269.576 63.9801 267.021C64.9255 263.339 67.085 260.36 70.286 258.029C70.7099 257.72 71.1353 257.218 71.2353 256.745C72.0098 253.101 72.7472 249.448 73.4098 245.784C73.955 242.773 74.5924 239.756 74.8114 236.718C75.132 232.273 75.2841 227.804 75.184 223.351C75.1171 220.364 74.4899 217.387 73.8707 214.403C73.7234 215.868 73.658 217.344 73.4145 218.795C72.5526 223.932 71.8018 229.093 70.6736 234.181C69.7952 238.143 68.6126 242.072 67.2165 245.903C65.1524 251.568 61.1139 255.993 56.4057 259.94C54.7843 261.299 53.3087 262.813 51.8039 264.289C51.4675 264.618 51.2863 265.087 51.0334 265.491C50.8222 265.329 50.6111 265.167 50.3992 265.005C50.775 264.441 51.061 263.796 51.5423 263.327C53.493 261.428 55.424 259.499 57.5087 257.733C63.3561 252.782 66.7927 246.551 68.4779 239.47C69.9204 233.407 71.1463 227.292 72.2477 221.166C72.8717 217.695 73.019 214.152 73.4476 210.648C73.684 208.713 74.0598 206.794 74.3702 204.868C74.4372 204.454 74.4947 204.038 74.4718 203.605C71.0644 212.262 68.9443 221.316 65.4557 229.94L64.8428 229.758C67.2331 222.382 69.6226 215.006 71.9121 207.941C69.3674 212.999 66.5343 218.28 64.0368 223.696C61.5401 229.113 58.6905 234.325 55.1373 239.256C57.671 236.001 61.433 235.111 65.5045 234.199C62.61 237.132 60.4962 240.618 55.7392 240.676C54.6866 240.688 53.8704 241.108 53.5624 242.204C53.3244 243.049 52.914 243.853 52.5823 244.67C54.2525 244.151 55.8014 243.506 57.4236 243.213C59.0371 242.922 60.7231 242.984 62.4256 243.062C61.2155 244.422 59.8336 245.417 57.9081 245.463C56.6815 245.493 55.4501 245.398 54.2249 245.444C52.4058 245.513 51.859 246.064 51.6274 247.677H59.6193C57.1258 249.506 54.492 250.763 50.9373 249.907C50.4858 253.209 50.0517 256.38 49.6176 259.552C49.3718 259.517 49.1252 259.483 48.8794 259.448C49.1756 256.553 49.3813 253.646 49.8138 250.769C49.9785 249.677 49.8209 249.221 48.6312 249.035C44.7408 248.426 43.0289 245.532 41.2365 242.707C44.3706 244.452 48.3027 244.941 50.4378 248.28C51.1791 246.134 51.2295 246.077 49.5593 244.797C46.6522 242.572 45.1166 239.693 44.6573 236.263C44.5817 235.697 44.6463 235.114 44.8275 234.488C47.5519 237.536 50.9294 240.142 51.5746 244.469C52.1096 243.197 52.6626 241.931 53.1598 240.645C53.2283 240.467 53.0881 240.138 52.9305 239.975C50.1108 237.082 50.151 233.668 50.827 230.123C50.9837 229.301 51.0365 228.461 51.172 227.341C51.6455 227.808 51.9701 228.128 52.2136 228.369C62.5635 221.352 68.7521 211.335 74.1953 200.795C75.4149 198.433 76.7172 196.108 78.1172 193.514C77.7398 193.731 77.557 193.794 77.4357 193.912C68.3408 202.804 59.1939 211.649 50.1809 220.613C43.8529 226.907 39.3701 234.247 36.9837 242.627C35.3221 248.46 34.7636 254.416 35.4805 260.424C36.0186 264.93 36.9372 269.38 38.6382 273.655C38.7445 273.922 38.8005 274.206 38.5886 274.602C38.1978 273.848 37.7196 273.123 37.4288 272.336C34.8124 265.25 33.8804 257.97 34.58 250.499C35.5112 240.556 39.4867 231.702 46.0329 223.954C49.7161 219.595 54.0233 215.694 58.1114 211.641C63.572 206.227 69.0751 200.849 74.6002 195.494C76.0176 194.12 77.5885 192.886 79.0886 191.587C79.4668 191.259 79.8418 190.929 80.2176 190.6C80.1443 190.516 80.0711 190.433 79.9978 190.349C78.6285 191.289 77.1986 192.162 75.8994 193.181C65.1674 201.603 54.3628 209.946 43.771 218.52C32.0534 228.004 24.7823 240.064 21.3418 254.141C19.8748 260.144 19.0925 266.255 19.057 272.426C19.0492 273.735 19.3131 275.045 19.4462 276.356C19.5045 276.929 19.5471 277.502 19.5959 278.076C19.4171 278.101 19.2382 278.126 19.0594 278.152C18.7844 276.449 18.3362 274.753 18.2653 273.044C18.0344 267.469 18.7829 261.963 19.9071 256.499C21.5065 248.725 24.2986 241.339 28.5096 234.471C30.8613 230.635 33.5574 227.009 36.8695 223.8C44.1216 216.775 51.9276 210.334 60.081 204.25C61.3944 203.27 62.6573 202.23 63.8343 201.046C63.5783 201.167 63.3009 201.261 63.0677 201.413C56.9863 205.373 50.8522 209.265 44.8441 213.32C34.9865 219.973 27.2199 228.359 21.2346 238.274C18.5591 242.706 15.5622 246.997 12.3603 251.113C9.55561 254.718 5.81333 257.483 1.54872 259.557C1.16267 259.745 0.756146 259.896 0.123505 259.841C0.354344 259.558 0.519792 259.157 0.824688 259.008C9.56033 254.723 14.6293 247.367 19.2548 239.675C23.5824 232.477 28.5396 225.737 34.9479 220.01C40.4597 215.084 46.6214 210.929 52.8738 206.881C62.3303 200.759 71.7553 194.593 81.1914 188.443C85.3677 185.72 89.4827 182.925 94.3232 181.238C98.8502 179.659 103.477 179.391 108.111 179.905C108.672 179.049 109.167 178.201 109.755 177.415C111.291 175.36 111.304 172.939 111.672 170.607C112.485 165.464 112.468 160.185 114.431 155.231C115.028 153.723 115.892 152.309 116.583 150.832C117.8 148.23 118.254 145.458 118.395 142.655C118.566 139.252 118.598 135.842 118.676 132.435C118.682 132.201 118.58 131.965 118.432 131.73C117.699 138.386 118.419 145.227 115.253 151.791C114.735 150.297 114.236 149.011 113.842 147.696C112.317 142.609 110.643 137.552 109.373 132.409C108.245 127.842 108.695 123.218 111.495 119.256C114.28 115.316 114.065 111.499 112.24 107.451C112.188 107.338 112.129 107.227 112.062 107.122C112.047 107.098 111.988 107.096 111.854 107.056C111.721 108.568 111.576 110.061 111.464 111.555C111.162 115.546 109.51 119.118 107.591 122.612C106.926 123.822 106.303 125.052 105.679 126.28C105.027 127.563 104.718 128.823 105.035 130.324C105.341 131.779 105.101 133.335 105.101 134.847C104.973 134.868 104.845 134.89 104.717 134.912C104.534 134.616 104.352 134.32 104.111 133.928C103.624 135.399 104.932 135.781 105.852 136.612C104.479 136.909 103.519 136.628 102.862 135.734C102.106 134.705 101.726 133.63 102.062 132.267C103.331 127.126 104.275 121.909 105.698 116.809C106.681 113.284 107.472 109.798 107.32 106.147C107.275 105.041 107.323 103.932 107.327 102.823C107.339 99.9995 107.442 97.2132 110.942 95.7872C108.534 95.5881 106.773 96.3697 104.995 97.5133C100.361 100.495 95.0724 101.81 89.5323 101.414C85.0888 101.096 81.5877 98.8581 79.6062 94.9629C79.2887 94.3384 79.1737 93.3452 79.4912 92.7827C79.9245 92.0151 81.8941 91.9635 82.7332 92.6529C83.7471 93.4868 84.6343 94.4719 85.4867 95.4591C87.0214 97.2368 88.798 98.6399 91.3325 98.8294C92.2716 98.8994 93.2328 98.7099 94.1751 98.3531C94.0695 98.3125 93.9608 98.2321 93.8576 98.238C90.0034 98.4423 87.4784 96.4995 85.4016 93.7456C84.0568 91.9621 82.6197 90.1239 80.0584 89.9374C78.6608 89.8357 77.1796 90.0716 75.8135 90.4203C74.0322 90.8745 72.3186 91.5403 70.0701 91.1694C73.7273 90.6047 76.5706 89.0475 79.3525 87.3922C82.2739 85.6544 85.3181 84.3464 89.0052 84.6421C87.7833 83.8996 85.6033 83.7846 83.7755 84.2203C80.784 84.9333 78.5072 86.8267 75.9286 88.2335C74.3095 89.1168 72.5345 89.7958 70.7548 90.3606C69.3973 90.7912 68.0524 90.4137 66.8896 89.436C70.1284 90.5125 72.659 89.0622 75.4787 87.4645C72.7047 87.0722 70.78 85.8888 69.9086 83.5781C69.4706 82.4154 69.0396 81.1973 69.8196 79.8812C69.922 80.3251 70.0685 80.7653 70.1198 81.2143C70.4231 83.8664 72.124 85.8756 74.6924 86.4514C75.2652 86.5797 75.9112 86.4204 76.5667 86.1956C73.7533 85.5674 71.515 84.4194 70.9281 81.5866C70.8068 81.002 71.151 80.3332 71.5119 79.7279C71.6245 81.3625 71.8617 82.8283 73.4153 83.7993C74.7657 84.6435 76.1082 84.8647 77.6264 84.0987C79.4171 83.1955 81.2079 82.2148 83.1247 81.6265C85.8034 80.8036 88.4726 81.4119 91.1033 82.2333C95.0567 83.4675 99.1125 84.3722 103.228 83.0627C104.954 82.5142 106.516 81.4967 108.117 80.6333C108.7 80.3192 109.173 79.8282 109.705 79.4293C112.344 77.454 115.254 76.4107 118.783 77.2218C117.365 76.2264 114.057 76.222 112.412 76.8944C110.92 77.5049 109.444 78.1611 108.01 78.8822C102.133 81.8351 96.7198 81.3529 91.6067 77.3538C91.1883 77.0264 90.8811 76.5744 90.5218 76.1807C90.6077 76.093 90.6936 76.0052 90.7795 75.9175C91.5043 76.3739 92.185 76.9151 92.9626 77.269C94.903 78.1508 96.8167 79.1845 98.8706 79.722C101.864 80.505 104.687 79.5214 107.36 78.2341C108.005 77.923 108.65 77.6007 109.254 77.2269C114.026 74.2792 121.673 75.6476 124.781 80.1076C124.371 78.4354 123.444 77.3788 122.189 76.601C118.27 74.1723 113.948 73.9577 109.506 74.7997C108.01 75.0828 106.506 75.5031 105.125 76.1011C101.488 77.6782 97.8567 77.7799 94.1956 76.32C90.5344 74.8602 87.0348 75.3416 83.5762 76.901C80.8305 78.139 78.0762 79.3696 74.9099 79.242C72.5991 79.1491 70.4278 78.5983 68.4936 77.3825C68.0603 77.1104 67.7389 76.6813 67.3654 76.3245C67.4458 76.2286 67.527 76.1328 67.6073 76.0362C67.8602 76.1298 68.1454 76.1807 68.3621 76.323C72.4085 78.9906 76.64 78.8439 81.0094 77.1208C83.001 76.3355 84.9982 75.54 87.0529 74.9236C89.7261 74.1214 92.3741 74.6456 94.892 75.5783C98.16 76.7882 101.281 76.5958 104.542 75.4404C107.052 74.5512 109.708 73.7063 112.351 73.5293C116.452 73.2551 120.514 73.8759 123.753 76.6496C126.097 78.6566 126.654 81.0926 125.761 83.9556C125.33 85.3359 125.38 86.8414 125.078 88.2659C124.826 89.4567 124.487 90.6592 123.944 91.7504C123.8 92.038 122.757 91.9606 122.125 91.9915C121.873 92.0041 121.613 91.8551 121.348 91.7777C121.133 93.4131 121.927 94.783 123.501 95.3478C124.38 95.6633 125.319 95.8337 126.233 96.0637C129.248 96.8231 130.113 97.8067 130.229 100.703C130.339 103.463 130.29 106.235 130.544 108.982C130.734 111.033 131.15 113.091 131.72 115.082C133.445 121.1 135.316 127.082 137.08 133.09C137.559 134.722 136.07 136.928 134.095 137.498C134.189 136.145 135.847 134.865 134.236 133.483C134.18 133.885 134.132 134.234 134.083 134.584C133.914 134.582 133.745 134.581 133.576 134.579C133.576 133.178 133.619 131.775 133.562 130.376C133.522 129.394 133.597 128.31 133.182 127.46C132.05 125.142 130.741 122.895 129.399 120.674C127.342 117.269 126.552 113.558 126.155 109.732C126.076 108.973 125.95 108.22 125.728 107.467C124.937 110.666 124.192 113.834 125.793 117.064C126.764 119.024 127.707 121.035 128.29 123.114C129.66 128.005 129.024 132.883 127.625 137.687C127.091 139.526 126.489 141.366 125.695 143.118C123.462 148.055 121.871 153.174 120.297 158.318C118.661 163.664 116.605 168.897 114.835 174.208C114.396 175.524 114.32 176.952 114.141 178.335C114.036 179.145 114.378 179.555 115.388 179.537C116.916 179.508 118.448 179.655 120.224 179.738C120.141 178.683 120.208 177.614 119.948 176.62C119.325 174.239 118.505 171.903 117.859 169.528C117.678 168.86 117.632 168.058 117.85 167.414C118.869 164.399 120.001 161.418 121.358 158.429C121.503 160.692 121.542 162.966 121.817 165.216C122.296 169.121 122.87 173.017 123.511 176.901C123.801 178.664 124.918 180.077 126.546 180.969C130.448 183.106 133.318 186.223 136.005 189.508C138.035 191.99 139.927 194.569 141.906 197.139C142.604 193.812 144.99 191.836 148.288 190.742C153.529 189.002 159.837 191.135 162.596 195.654C163.599 197.298 164.266 199.124 165.038 200.886C165.214 201.288 165.189 201.767 165.257 202.211C165.133 202.25 165.007 202.289 164.883 202.329C164.723 201.946 164.544 201.569 164.405 201.18C163.339 198.19 161.819 195.478 159.204 193.386C155.259 190.228 148.915 190.236 145.052 193.47C142.789 195.364 142.302 197.843 142.846 200.473C143.886 205.503 145.753 210.268 148.539 214.698C148.779 215.08 149.084 215.427 149.477 215.946C148.614 213.41 147.642 211.116 147.099 208.736C146.802 207.437 147.099 205.967 147.404 204.629C147.507 204.178 148.467 203.599 149.018 203.614C149.644 203.632 150.251 204.251 150.865 204.607L150.616 205.06C150.352 204.988 150.032 204.981 149.836 204.832C148.764 204.016 148.105 204.433 147.994 205.508C147.868 206.749 147.72 208.096 148.09 209.254C150.303 216.174 153.62 222.546 159.206 227.701C159.323 227.81 159.463 227.898 159.762 227.863C158.307 226.105 156.877 224.33 155.393 222.595C153.594 220.491 152.35 218.151 152.009 215.469C151.882 214.475 152.044 213.44 152.155 212.432C152.275 211.343 152.501 210.266 152.659 209.181C152.801 208.196 153.401 207.518 154.431 207.614C154.991 207.666 155.533 208.256 155.992 208.687C156.135 208.821 156.1 209.383 155.944 209.491C154.76 210.308 155.217 211.474 155.186 212.5C155.021 217.924 155.961 223.012 160.28 227.091C161.461 228.206 162.503 229.459 163.531 230.704C164.696 232.117 165.771 233.595 166.893 235.04C167.177 235.406 167.491 235.751 168.092 235.989C167.33 233.126 166.594 230.258 165.787 227.407C165.574 226.651 165.181 225.95 164.134 225.849C163.845 225.821 163.591 225.471 163.416 225.051C163.809 225.114 164.201 225.177 164.804 225.273C163.384 223.824 160.947 223.323 160.882 220.937C160.641 221.386 160.401 221.835 160.16 222.284C160.951 219.308 158.408 217.049 158.284 214.307C158.247 213.484 158.059 212.666 157.917 211.68C162.424 213.2 163.406 217.137 165.323 220.355C165.444 220.319 165.564 220.283 165.685 220.246C165.742 219.26 165.794 218.273 165.858 217.287C166.103 213.513 166.259 209.729 166.65 205.968C166.791 204.61 167.368 203.247 167.976 201.983C170.422 196.894 174.353 195.325 179.827 197.546C183.314 198.96 186.601 200.818 189.927 202.563C192.542 203.935 195.121 205.377 197.64 206.9C201.798 209.413 206.505 210.23 211.255 210.962C212.817 211.202 214.374 211.498 215.947 211.644C216.412 211.688 217.127 211.436 217.379 211.093C219.376 208.39 222.283 207.245 225.59 206.897C228.5 206.591 231.304 207.001 233.763 208.677C234.19 208.967 234.68 209.179 235.141 209.426L234.692 209.968C232.034 208.214 229.115 207.389 225.904 207.701C222.66 208.017 219.908 209.167 217.896 211.956C221.894 212.494 225.686 213.008 229.48 213.511C230.868 213.695 232.257 213.904 233.653 213.989C234.028 214.012 234.575 213.715 234.802 213.409C237.65 209.558 241.709 208.377 246.449 208.789C247.694 208.896 248.949 209.207 250.128 209.61C251.307 210.013 252.397 210.647 253.588 211.209C254.041 209.283 255.285 207.841 257.122 206.872C259.253 205.749 261.511 205.112 264.014 205.393C264.477 205.444 265.254 205.237 265.44 204.92C268.603 199.527 273.671 197.123 280 196.633V197.655C274.105 197.682 269.642 200.153 266.638 204.806C265.819 206.075 265.087 206.397 263.546 206.269C260.025 205.977 256.044 207.498 254.265 211.239C254.042 211.708 254.671 212.533 254.956 213.334C254.558 213.095 254.132 212.888 253.765 212.613C249.176 209.174 242.77 208.587 238.393 211.218C236.776 212.19 236.001 213.006 235.496 214.414C242.328 214.98 249.093 215.664 255.876 216.069C262.658 216.474 269.458 216.6 276.233 217.027C252.289 218.086 228.804 214.448 205.174 211.004C206.594 211.752 207.991 212.541 209.437 213.241C213.555 215.233 218.04 216.088 222.551 216.813C229.645 217.952 236.73 219.17 243.859 220.072C248.758 220.693 253.727 220.836 258.665 221.189C260.654 221.331 262.644 221.464 264.617 221.745C247.853 222.225 231.491 219.391 214.854 216.256C222.43 220.265 230.025 223.354 238.42 224.507C246.723 225.647 255.007 226.937 263.454 226.377C257.523 227.262 251.592 227.138 245.682 226.288C241.084 225.627 236.487 224.931 231.929 224.066C226.258 222.989 221.17 220.45 216.193 217.849C207.393 213.25 198.763 208.366 190.04 203.636C186.94 201.955 183.864 200.203 180.627 198.782C174.118 195.923 169.919 198.075 167.962 204.432C166.587 208.899 166.743 213.516 166.618 218.096C166.549 220.652 166.464 223.218 166.636 225.764C166.737 227.255 167.37 228.709 167.69 230.194C168.181 232.472 168.589 234.765 169.076 237.042C169.18 237.526 169.474 237.975 169.68 238.44C169.812 238.406 169.942 238.373 170.074 238.34C170.009 237.702 169.9 237.065 169.886 236.427C169.783 231.617 169.726 226.807 169.577 221.999C169.557 221.356 169.266 220.597 168.824 220.115C168 219.217 168.391 218.474 169.039 217.886C169.756 217.234 170.694 217.204 171.477 217.921C172.24 218.618 172.266 219.522 171.437 220.019C170.316 220.69 170.418 221.587 170.437 222.544C170.521 226.843 170.6 231.142 170.705 235.441C170.721 236.074 170.816 236.715 170.963 237.334C171.701 240.461 171.02 243.583 170.95 246.707C170.941 247.127 170.948 247.547 170.948 247.966C171.061 247.989 171.174 248.013 171.286 248.036C171.408 247.399 171.558 246.767 171.646 246.127C172.153 242.39 172.704 238.658 173.09 234.91C173.163 234.196 172.532 233.427 172.274 232.669C172.173 232.376 172.095 231.999 172.212 231.743C172.303 231.546 172.771 231.328 172.972 231.393C173.249 231.482 173.603 231.817 173.622 232.066C173.697 233.039 173.653 234.019 173.653 234.998C173.781 235.001 173.908 235.005 174.035 235.009C174.109 233.232 174.299 231.45 174.208 229.681C174.165 228.854 173.566 228.055 173.247 227.234C173.14 226.956 173 226.6 173.103 226.368C173.192 226.167 173.674 225.93 173.856 226C174.128 226.104 174.394 226.436 174.476 226.719C174.711 227.518 174.851 228.341 175.141 229.141C174.504 223.392 175.72 218.322 180.555 214.479C180.738 214.509 180.92 214.54 181.103 214.57C181.103 215.986 181.187 217.409 181.079 218.818C180.973 220.205 180.774 221.601 180.43 222.952C179.983 224.707 178.457 225.616 176.84 226.475C176.682 225.823 176.531 225.202 176.381 224.58C176.284 224.593 176.188 224.606 176.091 224.619C176.209 225.311 176.326 226.003 176.444 226.696C177.443 226.326 178.442 225.956 179.757 225.469C179.223 226.122 178.854 226.783 178.289 227.227C176.336 228.762 175.192 230.677 174.962 233.076C175.23 232.554 175.458 232.007 175.779 231.514C176.103 231.015 176.52 230.569 177.024 229.94C177.425 230.37 177.729 230.696 178.033 231.023C177.711 231.243 177.334 231.418 177.078 231.692C176.469 232.344 175.598 232.97 175.397 233.736C174.455 237.314 173.653 240.928 172.905 244.547C172.493 246.54 172.259 248.566 171.994 250.582C171.846 251.711 171.798 252.852 172.017 254.031C172.359 252.344 172.723 250.66 173.038 248.97C174.461 241.327 178.198 234.606 182.568 228.152C183.73 226.435 184.964 224.721 186.43 223.234C189.145 220.48 192.611 219.25 196.632 219.671C198.588 219.876 200.2 220.684 200.933 222.542C201.495 223.966 201.011 225.57 199.764 226.594C198.593 227.555 196.954 227.663 195.454 226.878C194.055 226.146 193.111 224.56 193.435 223.276C193.547 222.834 193.985 222.464 194.287 222.043C192.934 220.795 192.026 220.663 190.277 221.539C187.971 222.693 186.156 224.386 184.779 226.407C180.843 232.182 177.087 238.056 174.931 244.675C174.632 245.594 174.416 246.536 174.418 247.539C175.007 246.063 175.534 244.563 176.196 243.116C177.239 240.837 178.792 239.009 181.21 237.769C183.021 236.84 184.593 235.508 186.301 234.396C186.715 234.127 187.247 234.018 187.958 233.746C187.829 234.479 187.744 234.96 187.64 235.554C188.414 235.458 189.166 235.364 189.918 235.271C189.924 235.361 189.93 235.451 189.936 235.542C188.555 236.287 187.14 236.983 185.806 237.796C185.134 238.206 184.602 238.821 184.019 239.357C183.86 239.503 183.589 239.775 183.635 239.852C184.592 241.463 182.857 241.246 182.186 241.694C181.286 242.294 180.314 242.801 179.11 243.5C180.588 244.01 181.679 244.386 182.804 244.774C185.197 241.843 187.748 239.16 191.236 237.401C196.197 234.899 201.412 233.36 207.11 233.687C211.255 233.925 214.119 236.223 216.594 239.077C216.991 239.534 217.349 240.023 217.723 240.494C219.696 238.876 221.984 238.058 224.498 237.829C231.827 237.161 238.227 239.515 244.157 243.27C245.85 244.342 247.418 245.587 249.067 246.722C249.413 246.961 249.861 247.07 250.262 247.238C250.064 247.437 249.865 247.637 249.667 247.836C248.551 247.046 247.434 246.256 246.319 245.466C246.256 245.515 246.192 245.563 246.129 245.612C247.111 247.138 248.094 248.665 249.076 250.192L249.1 250.186L249.1 250.183ZM104.969 210.361C105.292 210.512 105.581 210.563 105.716 210.726C106.64 211.831 107.507 212.978 108.441 214.075C109.545 215.371 110.959 215.237 111.817 213.755C112.597 212.408 112.557 211.014 112.06 209.568C110.762 205.796 106.572 202.384 100.078 202.964C93.5889 203.544 88.672 209.248 88.8548 215.626C89.0092 221.009 91.5397 225.698 95.1355 229.841C100.204 235.681 106.741 239.538 114.232 242.108C118.898 243.708 123.689 244.432 128.647 244.211C128.935 244.199 129.356 244.142 129.478 243.963C130.611 242.309 132.36 241.578 134.408 241.121C131.207 239.507 128.212 237.603 124.558 239.627C124.443 239.691 124.309 239.734 124.176 239.762C121.687 240.289 117.735 238.919 116.522 237.054C119.294 235.543 122.184 235.255 125.27 236.18C124.788 235.682 124.22 235.333 123.768 234.88C121.991 233.102 120.15 232.618 117.505 233.543C114.135 234.722 110.427 232.565 109.903 229.603C113.336 230.446 116.769 231.288 120.202 232.13C120.315 231.935 120.427 231.74 120.54 231.545C119.212 230.399 117.794 229.329 116.593 228.077C115.929 227.385 115.371 227.019 114.338 227.027C111.757 227.047 109.8 225.384 109.496 222.983H111.285C105.915 220.116 104.172 215.885 104.967 210.361H104.969ZM185.804 243.068C186.166 242.923 186.538 242.794 186.891 242.631C190.264 241.078 193.805 240.393 197.553 240.88C200.482 241.26 202.932 242.395 204.362 244.967C205.347 246.74 204.688 248.28 202.707 248.94C200.95 249.526 198.844 249.036 197.604 247.745C197.148 247.271 196.71 246.783 196.264 246.301C195.535 245.513 195.61 244.724 196.412 244.07C197.155 243.464 198.046 243.439 198.728 244.133C199.421 244.839 199.463 245.668 198.693 246.411C198.51 246.588 198.272 246.717 197.819 247.04C198.781 247.517 199.56 248.044 200.43 248.3C201.666 248.664 202.98 248.287 203.504 247.267C203.839 246.616 203.614 245.304 203.085 244.759C202.06 243.702 200.773 242.605 199.368 242.181C193.956 240.547 189.049 242.094 184.436 244.794C184.268 244.893 184.179 245.111 184.148 245.152C187.215 246.921 190.217 248.667 193.235 250.387C194.433 251.07 195.606 252.086 196.898 252.265C199.342 252.603 201.908 252.74 204.341 252.42C207.537 251.998 210.269 252.637 212.833 254.308C213.502 254.744 214.143 255.216 214.715 255.615C214.39 247.206 210.415 241.279 201.355 239.234C195.548 237.923 190.318 239.396 185.803 243.068L185.804 243.068ZM136.663 204.501C138.041 207.257 139.41 209.831 140.633 212.466C145.029 221.94 149.118 231.552 155.34 240.18C155.989 241.079 156.733 241.665 157.817 242.024C161.024 243.088 163.943 244.622 166.34 246.927C166.86 247.427 167.33 247.974 168.085 248.778C167.229 245.335 166.414 242.389 162.748 241.075C161.512 240.632 160.352 239.833 159.362 238.986C154.203 234.571 150.731 229.172 148.969 222.836C148.731 221.98 148.701 221.074 148.57 220.158C148.957 220.158 149.073 220.124 149.129 220.164C149.305 220.288 149.494 220.418 149.616 220.586C153.084 225.352 157.048 229.673 161.763 233.44C164.887 235.936 167.064 239.12 167.453 243.155C167.565 244.315 168.026 245.446 168.326 246.59C168.483 244.685 168.605 242.803 168.441 240.943C168.33 239.666 167.992 238.35 167.443 237.18C166.983 236.198 166.008 235.44 165.374 234.515C163.682 232.046 161.578 230.003 158.994 228.313C157.641 227.428 156.453 226.233 155.44 224.998C151.897 220.684 148.505 216.261 144.971 211.94C142.647 209.097 140.019 206.514 136.663 204.5V204.501ZM75.2376 203.971C74.4127 207.766 74.7318 211.567 75.2321 215.374C75.5803 218.025 75.9159 220.68 76.1255 223.342C76.5604 228.874 76.2271 234.38 75.3274 239.86C74.7791 243.203 74.3072 246.557 73.7415 249.897C73.3901 251.972 72.9292 254.031 72.4471 256.449C73.0939 255.649 73.6288 255.164 73.9384 254.574C75.4369 251.721 76.9346 248.864 78.3149 245.961C79.4668 243.539 80.9109 241.399 83.3611 239.931C83.7235 239.714 83.9969 239.043 83.9536 238.614C83.8046 237.14 83.5801 235.664 83.2342 234.221C82.3534 230.547 81.809 226.739 80.3689 223.261C77.7816 217.011 75.4511 210.77 75.2384 203.972L75.2376 203.971ZM124.924 183.537C127.445 184.926 129.437 186.846 130.565 189.287C132.47 193.407 134.05 197.658 135.792 201.844C136.048 202.462 136.281 203.26 136.802 203.583C140.08 205.614 143.003 207.972 145.26 211.179C144.344 208.523 143.445 206.044 142.641 203.539C142.135 201.966 142.005 200.254 141.299 198.775C138.88 193.705 135.182 189.445 131.066 185.508C129.725 184.226 128.169 183.141 126.743 181.993C125.993 182.63 125.464 183.079 124.925 183.537H124.924ZM169.984 256.027C168.716 251.165 166.554 247.177 161.96 244.744C156.142 241.662 149.801 241.102 143.286 241.538C142.407 241.597 141.544 241.858 140.674 242.025C151.908 243.991 161.108 249.424 169.984 256.027ZM99.4245 243.875C98.8383 243.366 98.4972 243 98.0875 242.725C95.8177 241.202 93.3636 240.091 90.5746 239.631C86.8615 239.018 82.4771 240.736 80.5485 243.779C79.6952 245.125 79.05 246.59 78.3551 248.019C77.505 249.77 76.703 251.541 75.8797 253.303C81.5672 245.67 89.4039 242.812 99.4245 243.876V243.875ZM68.9545 212.385L68.5779 212.222C64.5891 218.941 59.2877 224.573 52.7469 228.975C53.5726 231.861 54.3683 234.643 55.1956 237.536C55.6864 236.357 56.3167 235.228 56.6224 234.026C57.188 231.801 58.1216 229.775 59.5098 227.892C61.2888 225.479 63.1095 223.077 64.6537 220.533C66.2491 217.903 67.534 215.108 68.9553 212.385H68.9545ZM193.898 252.075C193.954 251.969 194.01 251.862 194.067 251.756C190.972 250.018 187.878 248.277 184.782 246.541C183.619 245.889 182.735 246.011 182.132 247.274C181.878 247.806 181.419 248.254 181.032 248.726C179.696 250.353 178.35 251.973 176.894 253.734C182.485 251.138 188.281 252.437 193.898 252.075ZM173.236 257.396C176.221 253.497 179.278 249.504 182.334 245.513C182.302 245.361 182.271 245.209 182.239 245.057C181.003 245.008 179.394 244.464 178.593 244.993C173.852 248.12 172.69 252.001 173.236 257.396ZM164.201 240.894C159.611 234.948 154.816 228.736 150.02 222.524C152.577 231.409 158.586 238.841 164.201 240.894ZM80.2081 92.7738C80.075 92.9434 79.9426 93.113 79.8095 93.2826C80.0206 93.8215 80.1727 94.3893 80.4532 94.8936C81.7499 97.2242 83.8685 98.6745 86.3691 99.7525C89.9168 101.282 93.4739 100.59 97.0097 99.8373C100.098 99.1796 103.002 98.0692 105.511 96.1831C105.214 96.1382 104.94 96.1492 104.694 96.2318C101.963 97.1439 99.2677 98.1577 96.5032 98.9658C91.5909 100.403 87.4815 99.7886 84.446 95.5955C83.9417 94.8995 83.3642 94.1858 82.6465 93.708C81.9501 93.2442 81.0299 93.0732 80.2081 92.7738ZM202.479 253.484C208.778 255.751 214.857 258.087 220.123 261.989C217.412 259.249 215.141 256.145 211.587 254.249C208.678 252.697 205.685 252.572 202.479 253.484ZM83.3146 228.373C83.2437 228.411 83.172 228.45 83.1011 228.488C84.3364 231.527 85.5789 234.562 86.8024 237.604C87.1546 238.481 87.6486 238.886 88.7886 238.889C90.3454 238.894 91.9014 239.266 93.4573 239.478C93.7229 239.514 93.9915 239.534 94.1759 239.553C92.2417 237.807 90.2201 236.16 88.4301 234.315C86.6062 232.436 85.0101 230.362 83.3146 228.373ZM194.793 222.089C193.97 223.943 194.481 225.335 195.962 226.157C197.31 226.906 198.64 226.668 199.569 225.512C200.564 224.274 200.423 222.663 199.186 221.594C197.65 220.267 195.779 220.348 193.753 220.461C197.025 222.673 197.663 223.693 196.391 224.349C195.914 223.675 195.442 223.006 194.793 222.088L194.793 222.089ZM130.285 228.789C130.078 228.807 129.871 228.826 129.663 228.844C129.502 231.094 129.145 233.351 129.237 235.593C129.322 237.699 132.319 239.718 135.58 240.105C132.479 236.792 130.627 233.096 130.285 228.79V228.789ZM106.194 212.601C106.064 212.655 105.933 212.709 105.802 212.762C105.322 217.683 108.612 220.345 112.631 222.476C110.486 219.185 108.34 215.893 106.194 212.601ZM169.615 239.091C169.47 239.145 169.325 239.2 169.179 239.254C169.922 244.048 168.204 249.045 170.585 253.71C170.699 253.518 170.722 253.329 170.718 253.139C170.642 249.065 170.598 244.99 170.447 240.918C170.424 240.3 169.905 239.699 169.615 239.09V239.091ZM217.786 261.652C213.666 258.453 208.672 256.816 203.947 254.701C208.121 257.792 212.639 260.278 217.786 261.652ZM127.301 237.833C124.255 236.848 121.309 235.789 118.087 237.345C121.043 239.487 124.079 239.191 127.301 237.833ZM124.625 234.02C124.001 230.786 125.605 227.331 123.723 224.153C122.022 227.859 122.453 232.353 124.625 234.02ZM138.135 242.497C135.403 241.403 133.303 241.965 131.372 243.37C130.673 243.878 129.954 244.447 130.496 245.819C133.008 244.727 135.428 243.674 138.135 242.496V242.497ZM165.968 241.082C164.555 237.257 162.012 234.286 158.545 232.013C158.438 232.094 158.332 232.175 158.226 232.256C160.807 235.198 163.387 238.14 165.968 241.082H165.968ZM154.664 220.258C154.495 217.189 154.32 214.018 154.137 210.675C152.225 212.525 152.514 217.221 154.664 220.258ZM53.6648 239.217C53.9957 235.968 53.0266 233.28 51.8937 230.449C51.1374 233.601 51.4825 236.402 53.6648 239.217ZM92.7239 84.6937C89.3503 81.392 82.3976 81.5151 79.0658 84.8699C83.5896 82.4891 88.1394 82.624 92.7239 84.6937ZM115.885 217.74C115.902 220.144 114.337 222.665 116.503 225.153C117.383 222.439 116.977 220.064 115.885 217.74ZM110.869 223.898C111.409 225.416 113.192 226.388 114.894 226.177C113.95 224.414 112.568 223.61 110.869 223.898ZM86.5322 239.027C85.6466 237.024 84.8249 235.167 84.004 233.309C83.9575 233.328 83.9118 233.346 83.8653 233.365C84.2655 235.336 84.6658 237.308 85.0881 239.386C85.5206 239.279 85.9854 239.163 86.5322 239.027ZM103.712 84.3516C102.042 84.4341 100.368 84.6273 98.7028 84.5691C97.0444 84.5108 95.3962 84.2004 93.7433 84.0013C96.9995 85.5128 100.343 85.3823 103.713 84.3523L103.712 84.3516ZM46.1708 237.439C45.9998 237.556 45.8297 237.673 45.6587 237.789C46.9413 239.779 48.2247 241.769 49.5073 243.759C49.709 243.643 49.9099 243.528 50.1116 243.413C48.7983 241.421 47.4841 239.43 46.1708 237.439ZM117.485 232.551C115.649 231.956 113.889 231.386 111.89 230.739C113.267 232.609 115.248 233.203 117.485 232.551ZM44.1177 245.015L43.8167 245.459C45.3562 246.444 46.8948 247.429 48.4343 248.415C48.5359 248.276 48.6367 248.138 48.7384 247.999C47.1981 247.005 45.6579 246.01 44.1177 245.015ZM61.7922 237.329C61.704 237.191 61.6157 237.053 61.5283 236.916C59.9597 237.769 58.3903 238.621 56.8217 239.474C56.8721 239.562 56.9225 239.649 56.973 239.737C58.5794 238.934 60.1858 238.132 61.793 237.329H61.7922ZM177.148 224.979L177.614 225.279C178.383 224.271 179.151 223.263 179.92 222.254C179.768 222.156 179.616 222.058 179.464 221.959C178.692 222.966 177.92 223.972 177.148 224.979ZM170.086 220.249C170.495 219.643 170.833 219.285 170.967 218.87C171.017 218.714 170.593 218.425 170.385 218.197C170.029 218.565 169.627 218.907 169.354 219.323C169.295 219.413 169.697 219.769 170.086 220.249ZM180.392 216.617C180.247 216.544 180.102 216.47 179.957 216.397C179.36 217.351 178.764 218.306 178.167 219.26C178.325 219.342 178.484 219.424 178.643 219.506C179.226 218.543 179.808 217.58 180.391 216.616L180.392 216.617ZM117.07 225.632C116.878 225.725 116.685 225.819 116.492 225.913C117.153 226.921 117.813 227.93 118.473 228.939C118.561 228.892 118.648 228.845 118.735 228.798C118.18 227.743 117.625 226.687 117.07 225.631V225.632ZM177.44 243.214C178.502 242.512 179.488 241.775 178.903 240.362C178.416 241.313 177.928 242.263 177.44 243.214ZM56.0323 248.637C55.9984 248.471 55.9645 248.305 55.9314 248.14C54.6488 248.407 53.3662 248.674 52.0836 248.941C52.1112 249.062 52.1395 249.183 52.1671 249.304C53.4552 249.082 54.7434 248.859 56.0323 248.637ZM198.826 245.749C198.693 245.528 198.559 245.308 198.426 245.086C198.112 244.881 197.798 244.677 197.484 244.472C197.282 244.79 196.936 245.103 196.925 245.427C196.917 245.672 197.329 246.127 197.568 246.136C197.982 246.151 198.406 245.892 198.826 245.748V245.749ZM153.301 209.619C153.481 209.773 153.661 209.927 153.841 210.081C154.269 209.712 154.697 209.342 155.125 208.973C154.876 208.778 154.626 208.582 154.375 208.387C154.017 208.798 153.658 209.208 153.301 209.618V209.619ZM59.7887 229.753C59.6973 229.715 59.6067 229.677 59.5153 229.638C58.8819 230.919 58.2477 232.199 57.6143 233.48C57.7143 233.522 57.8144 233.563 57.9144 233.605C58.5392 232.321 59.164 231.037 59.7879 229.753H59.7887Z" fill="#5D5857"/>
<path d="M107.848 279.997C110.861 276.88 112.258 273.234 111.954 269.03C111.507 262.865 106.902 257.277 99.4964 256.662C93.9129 256.198 88.5603 256.609 83.4078 258.735C79.6868 260.271 76.4054 262.361 74.0379 265.515C72.4811 267.588 71.6586 269.836 72.266 272.46C73.0996 276.061 76.6732 278.32 80.5715 278.048C84.9882 277.741 88.3239 274.624 88.3972 270.877C88.4681 267.252 84.9307 262.968 79.931 264.858C78.7555 265.303 77.5391 265.652 76.2636 265.853C77.5801 264.597 79.2527 264.023 80.9836 263.666C84.9157 262.855 88.9093 265.908 89.2496 269.903C89.6373 274.45 86.3055 278.259 81.1789 278.884C76.7843 279.42 72.4063 277.157 71.3789 272.614C70.7415 269.794 71.5491 267.222 73.3217 264.906C76.8127 260.346 81.8336 257.973 87.4084 256.531C92.349 255.252 97.4228 255.219 102.369 256.357C107.937 257.639 111.127 261.37 112.442 266.434C113.729 271.388 112.574 275.951 109.214 279.996H107.848V279.997Z" fill="#5D5857"/>
<path d="M279.998 184.612C277.598 182.716 275.15 180.886 272.082 180.001C266.896 178.506 261.192 179.611 258.713 185.189C258.279 186.166 257.706 186.397 256.513 186.277C252.785 185.905 249.571 187.027 246.932 189.604C246.146 190.371 245.136 190.964 244.159 191.53C242.547 192.464 240.771 193.177 239.26 194.228C236.853 195.902 235.621 198.303 235.17 201.061C235.122 201.354 235.064 201.647 234.997 201.938C234.98 202.013 234.908 202.077 234.86 202.146C232.358 200.953 229.567 201.976 227.396 204.88C227.809 202.278 230.499 200.81 233.864 201.138C234.87 199.105 235.63 197.049 236.837 195.258C238.428 192.898 241.15 191.835 243.805 190.776C244.494 190.501 245.271 190.169 245.717 189.646C248.474 186.414 252.064 185.084 256.388 185.426C257.408 185.506 257.866 185.172 258.188 184.334C259.88 179.924 265.259 178.142 269.498 178.63C273.698 179.113 276.981 181.043 279.998 183.589V184.612Z" fill="#5D5857"/>
<path d="M279.998 209.162C274.455 208.839 270.446 211.36 267.264 215.415C267.154 215.323 267.044 215.232 266.934 215.141C267.172 214.661 267.325 214.12 267.661 213.71C270.331 210.448 273.794 208.527 278.252 208.326C278.835 208.3 279.415 208.203 279.998 208.139V209.162Z" fill="#5D5857"/>
<path d="M67.3373 141.039C68.9429 139.907 70.3571 140.475 71.6492 140.762C79.8814 142.596 84.8306 147.692 86.9862 155.111C88.5816 160.603 88.0742 166.062 85.1079 171.178C83.7426 173.532 81.9274 175.526 79.6371 177.136C79.2928 177.378 78.9572 177.629 78.7595 178.021C84.547 175.518 89.1267 171.758 91.7337 166.23C94.4455 160.479 93.2212 154.865 90.262 149.428C90.4015 149.373 90.5409 149.318 90.6796 149.264C91.1358 149.929 91.6817 150.554 92.0339 151.264C95.7557 158.775 94.6425 167.382 87.492 173.357C77.4312 181.765 65.9893 187.962 52.9622 191.494C43.2583 194.124 33.5954 196.885 23.893 199.519C19.9743 200.583 15.9665 200.997 11.9611 199.912C9.12011 199.143 6.91178 197.619 5.88285 194.881C4.90356 192.275 6.24526 189.646 8.98382 188.842C10.8747 188.286 12.6985 189.339 12.7576 191.018C12.8372 193.296 13.7936 194.351 16.3155 194.283C18.3655 194.228 20.4754 193.923 22.4284 193.344C27.3462 191.885 32.1891 190.204 37.0658 188.624C37.9955 188.323 38.9456 188.075 39.8871 187.661C38.6809 187.598 37.4692 187.436 36.2685 187.488C30.095 187.754 24.4185 186.349 19.2061 183.243C14.0977 180.199 9.47071 180.292 5.42275 183.478C1.13529 186.851 -0.235566 192.056 1.95386 196.999C3.89511 201.382 7.65078 204.05 12.0446 206.07C12.745 206.392 13.4493 206.706 14.1513 207.024C14.0717 207.19 13.9914 207.355 13.9118 207.521C12.2691 206.818 10.5493 206.238 8.998 205.388C5.07925 203.239 1.85853 200.338 0.679912 196.153C-1.44018 188.629 2.49984 182.066 10.0695 180.441C11.7381 180.082 13.5699 180.388 15.6277 180.388C13.9756 178.909 12.563 177.417 10.9069 176.22C8.87431 174.75 6.57064 175.215 4.46945 176.166C2.98358 176.838 1.65684 177.819 0 178.818C0.279686 178.235 0.363197 177.699 0.694881 177.43C3.06236 175.508 5.70007 174.266 8.98303 174.602C10.9597 174.804 12.3196 175.903 13.5297 177.176C16.2139 180 19.1297 182.503 22.8428 184.132C26.2684 185.636 29.8649 186.421 33.6095 186.621C43.8586 187.169 53.7816 185.575 63.4729 182.527C63.7077 182.454 63.9259 182.332 64.3009 182.167C60.078 181.946 56.0553 181.771 52.0389 181.517C43.1315 180.955 34.2044 180.44 25.6736 177.672C23.804 177.065 22.0589 176.107 20.291 175.249C19.8522 175.035 19.5473 174.582 19.3905 174.075C21.5972 175.007 23.7221 176.214 26.0281 176.809C30.2447 177.897 34.5298 178.883 38.8566 179.436C44.6985 180.184 50.5971 180.674 56.4878 180.919C61.7656 181.139 67.0993 181.585 72.2818 179.847C80.2918 177.162 85.2529 172.108 86.567 164.153C87.711 157.227 85.7335 151.165 80.4415 146.166C77.1499 143.057 73.0366 141.511 68.404 141.13C68.148 141.108 67.8927 141.085 67.3381 141.037L67.3373 141.039ZM77.3185 179.444C74.0001 180.369 70.6872 181.315 67.3609 182.215C62.4629 183.54 57.6231 185.173 52.6329 186.056C45.7755 187.269 38.9984 188.589 32.464 190.942C28.6241 192.325 24.7014 193.522 20.77 194.663C18.4719 195.331 16.0855 195.626 13.7574 194.61C12.2849 193.967 11.6869 193.042 11.8082 191.591C11.9319 190.111 10.7486 189.236 9.21308 189.672C7.21353 190.239 6.03491 192.345 6.63052 194.23C7.5326 197.087 9.81972 198.448 12.6883 199.185C16.6401 200.199 20.5061 199.569 24.3082 198.519C34.815 195.614 45.3091 192.67 55.7969 189.706C63.606 187.499 70.7416 184.015 77.3185 179.442V179.444Z" fill="#5D5857"/>
<path d="M62.4653 138.899C60.6406 136.417 58.972 133.819 56.9614 131.478C52.2674 126.012 46.2065 122.128 39.6114 118.931C34.6543 116.528 29.668 114.178 24.7211 111.757C23.2085 111.016 21.9739 109.954 21.383 108.344C17.4895 108.599 13.8126 108.065 10.5596 105.846C5.99795 102.733 5.00841 97.1689 8.37409 93.3172C10.9149 90.41 15.5695 89.6785 18.6571 91.701C21.591 93.6224 21.9708 97.7042 19.3504 99.7509C18.7839 100.193 18.0039 100.418 17.2902 100.659C17.094 100.726 16.7812 100.485 16.2644 100.288C19.2393 99.3388 20.4612 97.786 20.1571 95.6743C19.8168 93.3105 17.9102 91.6685 15.2615 91.4754C12.4189 91.2682 10.1672 92.3432 8.62384 94.5013C6.86143 96.9661 6.81416 99.6123 8.34022 102.222C10.1727 105.354 13.2532 106.872 16.8371 107.342C21.4886 107.951 25.8785 107.052 29.6428 104.284C33.9121 101.144 35.2515 96.8489 34.559 92.0025C33.8625 87.1282 31.5407 82.9499 27.5542 79.6703C24.1058 76.8331 20.1556 74.9604 15.5616 74.3794C14.4862 74.2437 13.41 74.1058 12.3425 73.9274C10.209 73.5706 8.33707 74.3698 6.43205 75.0474C4.40807 75.767 2.38016 76.4756 0.353815 77.1885C0.259274 77.0647 0.164732 76.9401 0.0701904 76.8162C0.418419 76.536 0.719376 76.1364 1.12275 75.9956C3.01595 75.3342 4.93751 74.7444 7.1419 74.0351H0.244305C0.209639 73.9289 0.174974 73.822 0.140309 73.7158C0.464902 73.5919 0.781616 73.3877 1.11645 73.3553C5.71038 72.9099 10.3004 72.4027 14.9053 72.0819C23.6126 71.4744 32.4034 74.2024 37.5583 82.0592C42.4248 89.4758 40.9389 101.882 31.7133 107.582C35.2286 108.61 38.9213 109.504 42.4626 110.768C49.075 113.127 54.8626 116.642 59.0295 122.158C61.5963 125.557 63.1523 129.3 63.3091 133.499C63.3217 133.837 63.2839 134.177 63.2516 134.515C63.246 134.576 63.1539 134.629 62.8836 134.923C62.6087 133.433 62.4062 132.143 62.1297 130.867C60.717 124.351 56.5131 119.628 50.8816 115.927C45.6936 112.518 39.8722 110.414 33.69 109.157C32.7225 108.96 31.7731 108.678 30.8293 108.394C30.5142 108.299 30.2431 108.078 29.9516 107.914C30.1801 107.636 30.3479 107.269 30.6449 107.092C34.4881 104.809 37.0627 101.605 38.4399 97.5781C42.0443 87.0382 35.3114 76.1327 23.7206 73.617C20.737 72.9697 17.7306 72.7249 14.6824 72.8782C14.2081 72.9018 13.7401 73.0353 13.2721 73.2137C17.9685 73.5853 22.2725 74.8911 26.0967 77.4746C32.2309 81.619 35.3838 87.2734 35.5973 94.3059C35.7904 100.651 31.6258 105.629 24.6983 107.609C23.9254 107.83 23.1462 108.034 21.8983 108.374C23.2581 109.436 24.2571 110.513 25.5121 111.143C29.7909 113.293 34.1666 115.273 38.4919 117.343C44.4299 120.185 50.0701 123.443 54.7609 127.952C57.854 130.926 60.5051 134.213 62.4243 137.98C62.5677 138.262 62.6071 138.59 62.6953 138.898C62.6189 138.899 62.5425 138.901 62.4653 138.902V138.899Z" fill="#5D5857"/>
<path d="M0.118824 251.432C0.290575 251.13 0.381177 250.726 0.646682 250.539C6.7911 246.219 9.68801 239.922 12.4872 233.566C15.2124 227.378 18.7041 221.636 23.7211 216.801C28.0771 212.603 32.9019 208.909 38.0536 205.614C43.5678 202.086 49.1859 198.702 54.7536 195.185C54.3684 195.354 53.9776 195.512 53.5994 195.694C43.5008 200.559 33.4408 205.499 23.2902 210.267C17.8438 212.825 12.0523 214.529 5.97646 215.236C4.09745 215.454 2.19165 215.47 0.304756 215.578C0.0471302 214.231 1.02642 214.571 1.57477 214.571C6.89509 214.583 12.0531 213.585 16.9307 211.761C22.5299 209.668 27.9645 207.178 33.4117 204.744C37.3052 203.005 41.1026 201.077 44.9402 199.23C45.2955 199.059 45.6359 198.86 45.9353 198.584C40.2628 200.155 35.1315 202.875 29.9073 205.395C29.8403 205.294 29.7734 205.193 29.7064 205.092C29.9018 204.919 30.0688 204.7 30.2957 204.58C36.2763 201.413 42.5089 198.804 48.9764 196.596C56.2844 194.1 63.2159 190.794 69.863 186.984C75.3251 183.853 80.9503 180.954 86.2636 177.618C91.2199 174.506 94.8684 170.322 95.9052 164.556C96.7601 159.8 95.6177 155.429 92.8634 151.447C88.5562 145.221 82.2306 141.724 74.6271 140.145C71.8554 139.569 69.0192 139.265 66.2152 138.822C65.9419 138.779 65.6882 138.625 65.4258 138.522C65.4628 138.36 65.4999 138.198 65.5361 138.036C66.9794 138.138 68.4362 138.155 69.863 138.359C74.7602 139.061 79.5866 140.065 83.9205 142.426C91.1364 146.356 96.0124 151.985 97.0011 159.903C97.7197 165.662 95.4522 170.682 91.2309 174.889C88.1426 177.968 84.2813 180.09 80.4461 182.213C72.8182 186.435 65.0484 190.442 57.5363 194.836C49.8706 199.32 42.3198 203.997 34.9424 208.885C24.7737 215.622 17.0623 224.253 12.6653 235.343C10.9777 239.599 8.93798 243.773 5.64636 247.219C4.08878 248.849 2.29013 250.279 0.600199 251.8C0.439478 251.677 0.278757 251.555 0.117249 251.432L0.118824 251.432Z" fill="#5D5857"/>
<path d="M278.358 147.495C277.836 147.444 277.251 147.517 276.8 147.322C272.35 145.395 267.746 143.703 263.548 141.371C260.637 139.754 258.302 137.231 255.694 135.131C254.148 133.887 252.638 132.589 250.991 131.471C248.796 129.979 247.305 130.154 245.615 132.175C243.545 134.65 241.705 137.293 239.657 139.785C236.609 143.493 233.532 147.184 230.328 150.773C229.208 152.028 227.789 153.122 226.314 154.009C221.747 156.752 217.861 160.228 214.308 163.979C210.496 168.004 205.998 171.215 201.483 174.438C198.63 176.474 195.713 178.433 192.803 180.398C192.202 180.804 191.508 181.09 190.715 181.209C194.96 178.17 199.205 175.13 203.45 172.09C203.398 171.993 203.346 171.895 203.294 171.798C202.777 172.029 202.252 172.247 201.742 172.492C194.643 175.899 188.242 180.325 181.629 184.451C176.528 187.632 171.223 190.528 166.007 193.548C165.865 193.63 165.701 193.68 165.169 193.907C165.557 193.453 165.664 193.242 165.842 193.13C174.755 187.553 183.638 181.934 192.612 176.443C195.878 174.444 199.359 172.753 202.744 170.925C202.98 170.798 203.222 170.654 203.481 170.596C207.156 169.772 209.7 167.494 212.136 164.957C214.564 162.428 217.152 160.024 219.795 157.69C221.364 156.304 223.087 155.031 224.896 153.931C228.595 151.679 231.349 148.573 233.967 145.364C237.248 141.342 240.357 137.197 243.554 133.115C244.091 132.43 244.674 131.773 245.28 131.141C246.941 129.411 248.839 128.997 250.854 130.357C253.274 131.99 255.636 133.773 257.694 135.787C260.93 138.954 264.587 141.414 268.922 143.057C271.91 144.189 274.843 145.446 277.793 146.661C278.052 146.768 278.261 146.98 278.494 147.143C278.449 147.261 278.404 147.378 278.359 147.496L278.358 147.495Z" fill="#5D5857"/>
<path d="M17.0017 160.738C17.736 158.929 19.3409 158.127 21.0844 157.558C24.6494 156.395 28.0891 157.157 31.4091 158.427C35.9999 160.184 39.8572 163.063 43.8405 165.749C47.4512 168.185 51.0218 170.698 54.8137 172.867C59.7661 175.699 65.2022 176.58 70.7345 174.585C76.1052 172.648 79.2873 168.887 79.9995 163.428C80.592 158.891 79.415 154.917 75.8389 151.693C70.6415 147.009 61.419 147.696 57.1173 151.893C55.5826 153.39 54.6585 155.12 55.0949 157.302C55.5464 159.557 58.0415 161.338 60.4783 161.088C62.2643 160.905 62.819 160.124 62.8087 157.803C63.9645 158.227 64.1512 159.599 63.1404 160.664C61.8279 162.048 60.1041 162.14 58.3716 161.696C55.1209 160.861 53.3821 157.771 54.3386 154.635C54.9192 152.731 56.1081 151.189 57.8855 150.11C61.1472 148.129 64.6783 147.194 68.6033 147.735C74.4586 148.542 78.4979 151.471 80.2981 156.755C83.1525 165.133 78.4246 174.077 68.9634 176.033C63.8786 177.084 58.9538 176.36 54.5828 173.758C49.9574 171.005 45.5966 167.866 41.0697 164.964C38.3776 163.238 35.706 161.433 32.8186 160.038C27.5132 157.477 22.1196 156.357 17.0017 160.737V160.738Z" fill="#5D5857"/>
<path d="M215.638 157.892C213.436 155.764 211.234 153.634 208.814 151.294C208.822 151.275 208.783 151.559 208.614 151.732C207.232 153.151 205.809 153.263 204.21 152.082C203.48 151.543 202.785 150.961 202.075 150.398C201.997 150.475 201.918 150.552 201.84 150.628C203.579 152.237 205.318 153.846 207.057 155.455C206.969 155.542 206.882 155.63 206.793 155.717C201.679 152.166 197.854 147.199 192.568 143.835C192.398 143.925 192.228 144.013 192.057 144.102C193.004 146.353 193.95 148.603 194.896 150.854C194.753 150.909 194.609 150.965 194.466 151.02C193.317 148.784 192.168 146.548 191.021 144.315C186.052 150.287 181.035 156.315 176.019 162.344C175.91 162.27 175.799 162.196 175.69 162.122C177.615 159.637 179.539 157.153 181.465 154.669L181.035 154.348C179.017 156.581 176.869 158.723 175.005 161.065C170.263 167.023 164.317 171.704 157.744 175.758C156.195 176.714 154.631 177.648 152.964 178.471C161.67 172.612 170.411 166.797 176.288 158.099C176.078 158.042 175.823 157.973 175.448 157.87C175.562 157.822 175.624 157.808 175.671 157.775C176.944 156.856 178.387 156.083 179.456 154.989C182.979 151.38 186.384 147.669 189.797 143.968C191.233 142.411 191.949 142.217 193.69 143.432C194.994 144.343 196.106 145.494 197.406 146.412C199.454 147.858 201.628 149.146 203.674 150.593C206.235 152.403 206.169 152.403 208.766 150.471C209.178 150.164 210.272 150.139 210.683 150.433C213.589 152.521 216.399 154.726 219.24 156.893C219.151 157.002 219.06 157.111 218.97 157.22C216.078 155.193 213.186 153.166 210.294 151.139C210.189 151.236 210.084 151.332 209.979 151.429C211.956 153.503 213.934 155.578 215.91 157.652C215.82 157.732 215.729 157.813 215.638 157.893L215.638 157.892Z" fill="#5D5857"/>
<path d="M56.0545 144.565C55.0642 144.506 54.0471 144.561 53.0875 144.367C47.9247 143.324 42.9085 141.8 38.2665 139.447C31.5588 136.046 25.022 132.35 18.3096 128.957C13.7968 126.676 9.07365 124.775 3.98337 123.868C2.75433 123.649 1.48984 123.602 0.241889 123.475C0.222193 123.33 0.202496 123.185 0.1828 123.04C0.825683 122.939 1.46857 122.748 2.11066 122.751C8.4804 122.777 14.6256 123.893 20.5849 126.018C31.35 129.857 41.6637 134.607 51.9262 139.467C52.4517 139.715 52.9796 139.983 53.4397 140.32C53.7225 140.527 53.8801 140.885 54.0014 141.23C39.2033 134.742 25.0063 127.06 8.7396 124.13C11.0314 124.994 13.4297 125.672 15.5939 126.759C20.9158 129.431 26.1605 132.244 31.3807 135.09C37.9285 138.659 44.7434 141.606 52.1366 143.279C53.4381 143.573 54.7648 143.77 56.0797 144.013L56.0545 144.565Z" fill="#5D5857"/>
<path d="M17.6218 177.025C16.871 176.394 16.0461 175.825 15.3827 175.122C11.5034 171.012 9.60939 166.283 10.9149 160.807C11.9406 156.505 15.1653 154.051 19.634 153.2C25.3128 152.119 30.641 153.472 35.6477 155.952C39.8682 158.042 43.9642 160.352 48.1706 162.469C52.2792 164.536 56.5375 166.198 61.3638 165.958C65.2818 165.764 68.1291 163.673 68.8098 160.37C69.3384 157.802 68.2394 155.747 66.1469 154.217C64.2135 152.803 62.1076 153.014 60.0765 154.192C59.9623 154.258 59.8331 154.304 59.7062 154.348C59.6786 154.358 59.6322 154.322 59.5943 154.307C60.2577 152.96 62.3573 152.123 64.1394 152.497C67.2971 153.158 69.4763 155.43 69.8151 158.731C70.0814 161.326 68.8957 164.181 65.8877 165.624C61.9445 167.516 57.787 167.336 53.9329 165.707C48.8969 163.578 44.0667 161.016 39.1954 158.557C34.8205 156.348 30.3786 154.31 25.3789 153.743C19.1006 153.033 13.213 155.57 11.7752 160.98C10.7021 165.018 11.8343 168.711 14.0938 172.147C14.7792 173.19 15.7002 174.097 16.5267 175.057C17.001 175.609 17.502 176.141 17.9913 176.681C17.8684 176.795 17.7455 176.91 17.6218 177.025V177.025Z" fill="#5D5857"/>
<path d="M6.55319 227.122C4.48037 230.12 2.40754 233.119 0.33472 236.118C0.241754 236.082 0.148788 236.046 0.0566101 236.011C0.333144 235.287 0.51041 234.513 0.901182 233.848C3.12449 230.07 5.77559 226.575 8.92225 223.413C9.39496 222.937 9.77943 222.384 9.98821 221.651C6.75882 224.014 3.53023 226.377 0.300843 228.74C0.231512 228.72 0.162969 228.7 0.0936389 228.68C0.318175 228.251 0.43005 227.698 0.786156 227.414C2.82747 225.788 4.94441 224.245 7.00148 222.636C9.57538 220.622 12.1154 218.571 14.6735 216.539C15.1045 216.196 15.5504 215.87 15.99 215.536C16.094 215.606 16.198 215.676 16.302 215.747C16.1578 216.031 16.0609 216.35 15.8608 216.594C13.8471 219.052 11.7349 221.444 9.81409 223.964C7.94296 226.418 7.46789 229.348 6.99281 232.259C6.32551 236.346 5.43524 240.378 2.85583 243.867C2.11762 244.866 1.28092 245.801 0.489138 246.766C0.36781 246.702 0.245693 246.639 0.124365 246.575C0.27248 246.178 0.315024 245.698 0.584467 245.397C3.52944 242.095 5.11065 238.273 5.66135 234.039C5.7039 233.711 5.82759 233.393 5.74486 233.002C5.00114 234.479 4.33856 235.998 3.49162 237.421C2.61948 238.887 1.56928 240.259 0.596285 241.673C0.432413 241.591 0.269329 241.511 0.105457 241.43C0.322114 240.943 0.441867 240.388 0.769611 239.979C3.81306 236.174 5.25088 231.706 6.96209 227.35C6.82579 227.274 6.6887 227.198 6.55241 227.122H6.55319Z" fill="#5D5857"/>
<path d="M30.6173 275.587C30.1336 274.036 29.4915 272.511 29.1905 270.929C26.5757 257.194 29.5112 244.445 37.08 232.527C41.3982 225.727 46.9667 219.926 53.1978 214.642C53.4759 214.407 53.8139 214.234 54.3173 214.227C53.2789 215.32 52.2279 216.404 51.2053 217.51C47.6679 221.337 43.835 224.965 40.6781 229.051C35.1443 236.211 31.4256 244.177 29.9161 253.004C28.6792 260.237 28.8959 267.362 30.9387 274.436C31.0089 274.679 31.042 274.935 31.0624 275.186C31.0703 275.29 30.9986 275.4 30.9632 275.507C30.8481 275.534 30.7331 275.561 30.6181 275.588L30.6173 275.587Z" fill="#5D5857"/>
<path d="M0.296272 127.049C1.62379 127.131 2.9521 127.212 4.27963 127.294C4.29932 127.215 4.31981 127.136 4.3395 127.057C3.26015 126.811 2.19104 126.504 1.09751 126.338C0.209609 126.204 0.058342 125.819 0.401843 124.938C2.07129 125.401 3.76201 125.813 5.41255 126.338C10.7998 128.049 15.5521 130.894 20.291 133.748C27.2107 137.916 34.0768 142.168 41.7882 145.007C46.5271 146.752 51.4283 147.675 56.5399 147.51C56.9606 147.497 57.3829 147.551 57.8044 147.575C57.828 147.706 57.8509 147.836 57.8745 147.967C57.4183 148.072 56.9669 148.239 56.5044 148.272C50.2694 148.712 44.4693 147.187 38.8598 144.816C32.754 142.236 27.102 138.919 21.4878 135.527C18.2868 133.592 14.9699 131.827 11.7177 129.965C8.9941 128.407 5.96168 127.988 2.85993 127.791C1.98778 127.736 1.118 127.638 0.247425 127.56C0.263182 127.39 0.278939 127.219 0.294696 127.048L0.296272 127.049Z" fill="#5D5857"/>
<path d="M61.1156 143.799C60.3159 143.206 59.5139 142.616 58.7166 142.021C49.5027 135.139 39.724 129.095 28.5303 125.443C23.3352 123.749 17.8849 122.731 12.537 121.456C8.76949 120.558 4.97601 119.756 1.20301 118.878C0.798844 118.784 0.453767 118.467 0.0811157 118.253C0.159113 118.096 0.237897 117.938 0.315894 117.781C1.91286 118.152 3.50589 118.538 5.10758 118.89C10.9463 120.172 16.8032 121.386 22.6261 122.731C29.9649 124.426 36.8145 127.295 43.1692 131.058C48.6889 134.328 53.9549 137.975 59.3083 141.488C60.1221 142.022 60.8052 142.732 61.5481 143.361C61.404 143.507 61.259 143.653 61.1148 143.799H61.1156Z" fill="#5D5857"/>
<path d="M270.235 162.424C264.457 157.185 258.678 151.947 252.9 146.707C252.816 146.775 252.732 146.844 252.647 146.911C253.241 147.937 253.839 148.96 254.424 149.99C254.658 150.402 254.998 150.812 255.061 151.252C255.629 155.189 258.723 157.449 261.519 159.924C263.329 161.526 265.08 163.187 266.858 164.821C266.785 164.904 266.712 164.987 266.639 165.07C266.284 164.804 265.913 164.557 265.579 164.271C262.622 161.749 259.622 159.267 256.751 156.66C255.99 155.969 255.401 154.942 255.135 153.973C254.218 150.642 252.148 147.919 250.188 145.038C248.025 146.145 246.643 147.839 245.321 149.625C243.177 152.524 240.957 155.375 238.762 158.241C238.588 158.467 238.355 158.652 237.994 158.743C238.848 157.522 239.694 156.296 240.56 155.082C242.601 152.223 244.519 149.276 246.735 146.541C249.008 143.736 250.725 143.678 253.514 146.1C256.58 148.762 259.559 151.513 262.53 154.269C264.982 156.543 267.369 158.877 269.779 161.189C270.074 161.473 270.337 161.784 270.615 162.083C270.489 162.197 270.362 162.311 270.236 162.424H270.235Z" fill="#5D5857"/>
<path d="M206.937 164.684C202.783 161.644 199.683 157.493 195.324 154.562C194.166 156.814 194.325 157.65 195.87 159.249C198.548 162.02 201.185 164.825 203.61 167.83C203.011 167.28 202.394 166.745 201.816 166.177C199.495 163.894 197.207 161.583 194.867 159.319C193.751 158.24 193.322 157.054 193.779 155.513C186.112 162.315 179.457 170.046 171.398 176.441C171.294 176.351 171.19 176.263 171.086 176.174C171.651 175.617 172.214 175.06 172.779 174.504C179.116 168.278 185.452 162.051 191.795 155.828C192.202 155.429 192.632 155.042 193.1 154.707C194.707 153.558 195.77 153.485 197.216 154.801C200.509 157.798 203.689 160.903 206.908 163.97C207.045 164.1 207.106 164.298 207.203 164.465C207.115 164.538 207.026 164.61 206.938 164.683L206.937 164.684Z" fill="#5D5857"/>
<path d="M54.701 164.35C53.7871 163.761 52.8471 163.204 51.9624 162.579C46.0354 158.388 39.8406 154.626 32.954 151.929C28.368 150.133 23.5645 149.112 18.6995 148.298C12.9593 147.337 7.16386 147.007 1.33931 147.004C0.965867 147.004 0.592428 146.768 0.218201 146.641C0.578247 146.483 0.936717 146.19 1.29755 146.188C11.1905 146.156 20.9622 147.036 30.377 150.063C37.8859 152.477 44.6078 156.266 50.8476 160.827C52.1728 161.795 53.4806 162.785 54.7876 163.774C54.8727 163.839 54.8822 163.99 54.9271 164.101C54.8514 164.184 54.7766 164.266 54.701 164.35Z" fill="#5D5857"/>
<path d="M0.292189 134.433C2.02309 134.662 3.7595 134.86 5.4841 135.125C14.8327 136.56 23.2619 140.331 31.643 144.205C38.606 147.423 45.569 150.63 53.1354 152.473C53.3017 152.513 53.4443 152.64 53.605 153.077C53.0417 153.077 52.4319 153.21 51.9229 153.055C49.1678 152.213 46.3497 151.481 43.7152 150.375C36.9271 147.525 30.2406 144.464 23.4825 141.551C16.4943 138.538 9.26734 136.248 1.5622 135.47C1.06585 135.42 0.596298 135.141 0.114136 134.968C0.173224 134.79 0.232313 134.612 0.292189 134.434V134.433Z" fill="#5D5857"/>
<path d="M37.5748 220.474C36.4513 221.79 35.1994 223.029 34.2288 224.437C31.699 228.108 28.9344 231.692 26.9136 235.605C22.9673 243.245 19.5181 251.109 15.7482 258.832C14.3955 261.604 12.7237 264.24 11.1653 266.922C10.9117 267.358 10.4902 267.709 10.1459 268.1L9.81024 267.924C9.90478 267.643 9.93945 267.327 10.1025 267.086C14.5279 260.543 17.2121 253.251 20.4084 246.178C23.882 238.49 27.8054 231.027 33.188 224.324C34.3879 222.83 35.8194 221.498 37.1446 220.091C37.288 220.218 37.4314 220.347 37.5748 220.474Z" fill="#5D5857"/>
<path d="M243.282 169.851C244.247 166.831 245.211 163.809 246.256 160.534C240.298 165.456 234.568 170.19 228.838 174.923L228.753 174.815C230.587 173.003 232.347 171.12 234.271 169.396C238.044 166.014 241.939 162.752 245.721 159.377C247.849 157.477 249.853 157.044 252.881 158.701C256.755 160.821 260.432 163.259 264.182 165.577C264.401 165.713 264.514 166 264.468 166.44C262.983 165.531 261.514 164.602 260.011 163.719C257.63 162.32 255.228 160.953 252.833 159.575C252.678 159.485 252.514 159.41 252.35 159.339C248.854 157.825 247.9 158.257 246.764 161.675C245.959 164.097 245.025 166.481 244.132 168.876C243.992 169.251 243.762 169.597 243.574 169.957C243.477 169.921 243.381 169.887 243.284 169.851H243.282Z" fill="#5D5857"/>
<path d="M0.456178 93.1805C0.759499 94.3484 1.06361 95.5163 1.42444 96.9069C2.98595 88.8621 7.39238 83.9694 16.4471 84.1773C20.3635 84.2672 23.2029 85.643 23.5984 87.2061C20.1602 85.2125 16.5117 84.4685 12.6387 85.2294C10.0947 85.7293 7.85091 86.9112 6.19328 88.8149C-0.237915 96.2028 1.93024 102.641 9.00431 108.494C4.87521 107.173 -0.426211 99.1483 0.456178 93.1805Z" fill="#5D5857"/>
<path d="M226.133 174.093C225.951 174.014 225.686 173.817 225.598 173.871C223.181 175.367 220.677 176.76 218.4 178.426C210.379 184.291 202.378 190.175 193.709 195.201C192.419 195.948 191.074 196.613 189.621 197.105C191.933 195.618 194.299 194.2 196.546 192.632C204.49 187.092 212.377 181.481 220.325 175.946C221.733 174.965 223.298 174.168 224.852 173.394C225.405 173.119 226.141 173.169 226.793 173.071C226.872 173.212 226.95 173.352 227.029 173.493C226.719 173.683 226.409 173.873 226.099 174.063L226.132 174.092L226.133 174.093Z" fill="#5D5857"/>
<path d="M261.319 144.645C257.389 140.722 253.458 136.799 249.528 132.875C250.107 136.189 248.867 139.047 247.444 141.751C245.383 145.668 243.009 149.442 240.753 153.269C240.481 153.732 240.11 154.145 239.533 154.443C240.193 153.304 240.849 152.163 241.514 151.026C244.046 146.709 246.713 142.431 248.095 137.645C248.535 136.119 248.231 134.405 248.269 132.777C248.277 132.464 248.291 132.151 248.303 131.838C248.636 131.867 249.05 131.788 249.287 131.945C250.168 132.527 251.104 133.092 251.817 133.834C254.914 137.06 257.941 140.346 260.988 143.616C261.217 143.861 261.395 144.149 261.597 144.417C261.504 144.493 261.412 144.569 261.319 144.645Z" fill="#5D5857"/>
<path d="M29.5269 123.48C24.714 117.056 17.1893 114.428 10.0774 111.189C6.98979 109.783 4.02512 108.135 1.04784 106.527C0.584591 106.276 0.352964 105.65 0.181213 105.063C5.10132 108.386 10.6761 110.378 16.0201 112.79C20.5707 114.844 25.0055 117.103 28.3247 120.814C28.981 121.548 29.43 122.445 29.9744 123.267C29.8255 123.338 29.6758 123.41 29.5269 123.481V123.48Z" fill="#5D5857"/>
<path d="M202.29 184.538C212.351 174.382 220.97 163.346 229.605 152.435C229.287 155.742 208.156 180.704 202.29 184.538Z" fill="#5D5857"/>
<path d="M21.0284 166.654C21.3388 166.115 21.5389 165.477 21.9777 165.056C23.9797 163.135 26.5985 162.685 29.2606 162.94C37.8332 163.762 43.6695 168.203 47.3078 175.351C47.7372 176.195 47.901 177.158 48.1886 178.066C48.0358 178.119 47.8837 178.171 47.7309 178.224C47.5638 177.881 47.3826 177.543 47.233 177.193C44.2439 170.21 38.9881 165.584 31.0545 163.989C28.2096 163.417 25.2449 163.463 22.8278 165.477C22.3323 165.89 21.932 166.404 21.4877 166.87C21.3349 166.798 21.1812 166.726 21.0284 166.654Z" fill="#5D5857"/>
<path d="M30.1076 94.6449C30.403 98.2909 27.6227 103.69 22.07 105.064C18.6941 105.898 15.7948 105.17 13.432 102.76C11.85 101.146 11.5097 99.0754 12.4685 97.4754C13.2634 96.1475 14.6674 95.6233 16.1966 96.0819C16.1706 96.1512 16.1493 96.2795 16.1162 96.2825C12.9081 96.5479 11.7571 99.3556 14.0024 102.02C16.4219 104.892 20.4785 105.377 24.1515 103.278C27.2367 101.514 28.7202 98.7893 29.3914 95.5791C29.4647 95.2289 29.6223 94.8934 29.7405 94.5513C29.8626 94.583 29.9847 94.6139 30.1068 94.6456L30.1076 94.6449Z" fill="#5D5857"/>
<path d="M39.3727 246.91C37.63 257.476 39.4436 267.544 43.1063 277.509C38.6053 272.789 35.9629 249.43 39.3727 246.91Z" fill="#5D5857"/>
<path d="M35.1688 123.368C45.4068 128.672 55.3621 134.345 63.3634 142.569C58.8065 139.173 54.3938 135.589 49.6533 132.435C44.9215 129.288 39.8628 126.571 34.9466 123.666C35.0207 123.567 35.0947 123.468 35.1688 123.368V123.368Z" fill="#5D5857"/>
<path d="M247.188 181.046C247.407 179.883 247.591 178.713 247.855 177.559C248.101 176.486 248.484 175.44 248.701 174.362C248.801 173.866 248.652 173.327 248.615 172.806C248.032 172.883 247.296 172.776 246.893 173.068C245.543 174.049 244.196 175.076 243.063 176.265C241.161 178.26 239.434 180.4 237.613 182.463C237.278 182.842 236.852 183.15 236.272 183.34C236.96 182.538 237.662 181.746 238.333 180.932C240.298 178.55 242.188 176.109 244.246 173.799C244.908 173.055 245.938 172.507 246.916 172.131C247.577 171.878 248.769 171.796 249.129 172.156C249.589 172.617 249.686 173.649 249.524 174.351C249.071 176.329 248.406 178.263 247.824 180.214C247.735 180.513 247.648 180.812 247.56 181.111C247.437 181.09 247.313 181.068 247.189 181.046H247.188Z" fill="#5D5857"/>
<path d="M241.619 204.202C242.275 199.987 245.014 198.368 249.178 197.926C252.191 197.606 255.225 197.469 258.247 197.221C258.944 197.164 259.631 196.99 260.322 196.869C260.345 196.98 260.368 197.091 260.39 197.2C258.919 197.423 257.449 197.666 255.974 197.863C253.291 198.223 250.582 198.447 247.925 198.931C244.878 199.485 242.902 201.155 242.562 204.215C242.532 204.495 242.33 204.889 242.089 204.997C240.534 205.696 238.945 206.328 237.493 206.931C237.5 205.974 239.046 204.816 241.618 204.2L241.619 204.202Z" fill="#5D5857"/>
<path d="M242.535 172.038C242.071 175.753 230.923 188.954 226.103 191.328C229.051 188.278 232.163 185.351 234.899 182.142C237.615 178.957 239.952 175.489 242.535 172.038H242.535Z" fill="#5D5857"/>
<path d="M0.0715164 219.228C0.402412 218.965 0.693915 218.55 1.07129 218.463C4.25183 217.731 7.44655 217.055 10.6421 216.383C10.813 216.347 11.0289 216.497 11.2692 216.575C8.41718 219.996 4.4291 221.615 0.134544 222.953C0.423684 222.648 0.652947 222.24 1.01221 222.054C3.42617 220.808 5.87007 219.615 8.29585 218.39C8.63541 218.218 8.92613 217.962 9.50992 217.557C6.24193 218.264 3.31429 218.898 0.385867 219.532C0.280296 219.431 0.174724 219.33 0.0691528 219.229L0.0715164 219.228Z" fill="#5D5857"/>
<path d="M272.032 195.661C269.596 196.74 267.589 198.107 266.081 200.137C265.844 200.456 265.203 200.775 264.832 200.706C258.871 199.593 253.58 200.863 248.741 204.37C249.056 204.028 249.323 203.631 249.692 203.351C253.865 200.182 258.65 199.176 263.871 200.069C264.994 200.26 265.525 199.97 266.101 199.192C267.268 197.617 268.804 196.445 270.781 195.851C271.179 195.732 271.614 195.721 272.032 195.659V195.661Z" fill="#5D5857"/>
<path d="M157.229 199.272C156.923 200.265 156.776 200.976 156.488 201.634C155.915 202.942 154.627 203.655 153.558 203.339C152.286 202.963 151.127 201.381 151.689 200.212C152.374 198.785 153.51 197.538 154.546 196.281C154.664 196.137 155.62 196.292 155.785 196.541C156.385 197.45 156.815 198.459 157.228 199.272H157.229ZM154.729 196.958C153.984 198.056 153.227 199.036 152.63 200.096C152.195 200.866 152.8 202.343 153.707 202.491C154.252 202.58 155.181 202.118 155.493 201.646C156.274 200.464 156.578 198.384 154.729 196.958V196.958Z" fill="#5D5857"/>
<path d="M49.127 262.111C50.7429 267.203 52.1146 272.367 55.3266 277.226C52.5557 275.177 48.5771 265.485 49.127 262.111Z" fill="#5D5857"/>
<path d="M12.6607 154.411C11.9965 154.411 11.3316 154.431 10.6682 154.408C7.67834 154.302 4.68846 154.183 1.69858 154.071C1.42599 154.06 1.1337 154.115 0.886312 154.039C0.643655 153.964 0.446694 153.76 0.229248 153.614C0.453784 153.476 0.675957 153.222 0.902069 153.219C2.62824 153.194 4.35678 153.17 6.08059 153.24C7.98402 153.317 9.88352 153.487 11.783 153.637C12.0942 153.662 12.396 153.796 12.7017 153.879C12.6883 154.057 12.6741 154.234 12.6607 154.411Z" fill="#5D5857"/>
<path d="M0.374841 210.864C4.74739 210.57 9.11915 210.276 13.4917 209.981C13.535 210.06 13.5792 210.139 13.6225 210.218C13.3751 210.368 13.1387 210.629 12.8788 210.652C8.95213 210.99 5.02314 211.309 1.09178 211.589C0.779006 211.611 0.439444 211.314 0.112488 211.166C0.199939 211.065 0.28739 210.965 0.374841 210.864Z" fill="#5D5857"/>
<path d="M207.513 172.466C210.996 168.936 214.479 165.405 217.962 161.875C218.047 161.95 218.132 162.026 218.217 162.102C215.088 165.945 211.913 169.748 207.513 172.466H207.513Z" fill="#5D5857"/>
<path d="M0.344885 161.495C3.51991 161.983 6.76741 162.258 9.46815 164.139C6.78553 163.37 4.10685 162.747 1.26824 162.775C0.882985 162.779 0.490637 162.129 0.10144 161.781C0.182589 161.686 0.263737 161.59 0.344097 161.495H0.344885Z" fill="#5D5857"/>
<path d="M8.21644 207.344C5.96477 207.795 0.143376 204.349 0.282037 202.822C2.88587 204.306 5.57164 205.836 8.21644 207.344Z" fill="#5D5857"/>
<path d="M8.11626 170.972C5.53134 171.398 2.94641 171.824 0.100708 172.293C0.307124 171.946 0.397726 171.556 0.594688 171.501C3.03544 170.825 5.48958 170.181 8.06584 170.627L8.11705 170.972H8.11626Z" fill="#5D5857"/>
<path d="M0.303406 207.047C2.41326 207.523 4.43881 207.981 6.71648 208.495C4.55305 209.359 0.313648 208.264 0.303406 207.047Z" fill="#5D5857"/>
<path d="M172.879 156.322C171.074 154.396 169.645 155.359 168.106 156.606C166.932 157.557 165.571 158.305 164.293 159.143C164.229 159.058 164.165 158.973 164.101 158.888C165.988 157.556 167.791 156.095 169.793 154.936C171.129 154.163 171.946 155.523 172.88 156.322H172.879Z" fill="#5D5857"/>
<path d="M263.689 191.313C264.148 190.85 264.521 190.243 265.081 189.953C266.194 189.379 267.409 188.979 268.66 188.708C266.989 189.565 265.318 190.422 263.647 191.279L263.689 191.313Z" fill="#5D5857"/>
<path d="M263.647 191.28C262.915 192.524 262.182 193.768 261.488 194.946C261.174 193.79 262.366 191.736 263.688 191.312C263.689 191.314 263.648 191.28 263.648 191.28H263.647Z" fill="#5D5857"/>
<path d="M226.099 174.063C225.375 174.942 224.705 175.866 223.912 176.688C223.156 177.473 222.273 178.151 221.238 178.688C222.871 177.157 224.504 175.626 226.135 174.094C226.133 174.092 226.099 174.063 226.099 174.063Z" fill="#5D5857"/>
<path d="M162.981 159.998C161.973 160.633 160.964 161.268 159.956 161.902C159.897 161.82 159.839 161.739 159.781 161.657C160.781 161.001 161.78 160.345 162.78 159.688C162.847 159.792 162.914 159.894 162.982 159.997L162.981 159.998Z" fill="#5D5857"/>
<path d="M233.822 255.715C230.369 255.707 228.14 253.825 228.197 250.968C228.235 249.08 229.92 247.482 232.541 246.848C234.44 246.388 236.947 247.155 238.032 248.608C239.203 250.176 239.311 251.84 238.269 253.513C237.281 255.101 235.746 255.762 233.822 255.715ZM238.298 251.084C237.777 250.245 237.425 249.237 236.701 248.599C234.575 246.722 230.087 247.682 228.929 250.2C228.716 250.665 228.687 251.286 228.802 251.788C229.293 253.904 232.514 255.461 234.899 254.793C236.943 254.221 237.971 253.043 238.298 251.084L238.298 251.084Z" fill="#5D5857"/>
<path d="M216.531 220.31C220.599 222.469 224.626 224.7 228.746 226.771C234.199 229.512 239.862 231.775 246.052 232.642C246.569 232.714 247.088 232.78 247.605 232.85C247.581 233 247.556 233.151 247.531 233.301C245.403 232.943 243.243 232.703 241.154 232.205C235.78 230.923 230.927 228.49 226.137 225.963C223.052 224.336 220.035 222.595 216.99 220.902C216.768 220.779 216.563 220.632 216.35 220.496C216.41 220.433 216.47 220.372 216.53 220.309L216.531 220.31Z" fill="#5D5857"/>
<path d="M257.141 229.972C252.217 231.754 239.608 229.55 236.965 226.76C243.316 229.472 249.937 230.687 257.141 229.972Z" fill="#5D5857"/>
<path d="M123.941 218.156C123.542 216.488 123.105 213.659 122.162 210.987C121.241 208.378 119.804 205.927 118.677 203.583C121.747 206.114 124.298 213.698 123.941 218.156Z" fill="#5D5857"/>
<path d="M249.077 250.188C249.547 251.72 250.049 253.244 250.469 254.788C250.655 255.473 250.673 256.197 250.685 256.904C250.056 254.886 249.415 252.871 248.818 250.844C248.764 250.663 248.99 250.409 249.094 250.187C249.101 250.184 249.077 250.188 249.077 250.188V250.188Z" fill="#5D5857"/>
</svg>
