<svg width="29" height="29" viewBox="0 0 29 29" fill="none" xmlns="http://www.w3.org/2000/svg">
<path d="M24.625 28C25.7433 28 26.65 27.0933 26.65 25.975C26.65 24.8566 25.7433 23.95 24.625 23.95C23.5066 23.95 22.6 24.8566 22.6 25.975C22.6 27.0933 23.5066 28 24.625 28Z" fill="black" stroke="black" stroke-width="2" stroke-linecap="round" stroke-linejoin="round"/>
<path d="M11.125 28C12.2434 28 13.15 27.0933 13.15 25.975C13.15 24.8566 12.2434 23.95 11.125 23.95C10.0067 23.95 9.10004 24.8566 9.10004 25.975C9.10004 27.0933 10.0067 28 11.125 28Z" fill="black" stroke="black" stroke-width="2" stroke-linecap="round" stroke-linejoin="round"/>
<path d="M5.05 3.7H28L25.3 18.55H7.75L5.05 3.7ZM5.05 3.7C4.825 2.8 3.7 1 1 1" stroke="black" stroke-width="2" stroke-linecap="round" stroke-linejoin="round"/>
<path d="M25.3 18.55H7.74999H5.36153C2.95271 18.55 1.67499 19.6046 1.67499 21.25C1.67499 22.8954 2.95271 23.95 5.36153 23.95H24.625" stroke="black" stroke-width="2" stroke-linecap="round" stroke-linejoin="round"/>
</svg>
