<svg width="104" height="91" viewBox="0 0 104 91" fill="none" xmlns="http://www.w3.org/2000/svg">
<g clip-path="url(#clip0_98_90)">
<path d="M23.4263 30.5197C22.6853 29.2666 22.1318 27.7861 20.4264 27.876C19.109 27.9456 17.9124 28.9769 17.4073 30.165C16.7235 31.7751 17.3012 31.6376 18.3757 32.3294C19.604 33.12 21.2196 35.2397 21.9529 36.4979C18.6191 37.6758 15.3086 33.5111 16.3438 30.4357C16.8726 28.8644 18.2934 27.4457 19.9763 27.2483C21.8216 27.032 23.6976 28.5484 23.4259 30.5201L23.4263 30.5197Z" fill="#BC8F8F"/>
<path d="M16.0959 25.4237C16.0081 27.8663 12.7909 28.0028 12.462 25.5935C12.1061 22.9858 16.1897 22.8124 16.0959 25.4237Z" fill="#BC8F8F"/>
<path d="M35.5036 12.1778C35.9817 13.6804 35.7218 15.5672 34.2818 16.4357C33.0637 17.1704 31.0747 16.8766 30.6251 15.3325C32.8052 16.4869 35.1185 14.2496 35.5041 12.1778H35.5036Z" fill="#BC8F8F"/>
<path d="M10.4589 50.928C10.457 50.8909 10.4552 50.8537 10.4534 50.8171C10.4717 50.8533 10.4735 50.8904 10.4589 50.928Z" fill="#BC8F8F"/>
<path d="M85.7793 33.3194C85.7793 33.3194 81.3335 32.1714 79.1647 35.9981C76.996 39.8247 76.2911 41.9564 75.0986 46.3296C75.0986 46.3296 72.3334 56.7156 71.7373 61.9633C71.1413 67.2109 71.6829 67.8668 72.2794 68.9603C72.8759 70.0534 74.9 71.1833 77.0445 69.7499C79.189 68.3164 80.0567 66.7373 80.0567 66.7373C80.0567 66.7373 81.623 64.7693 80.9483 61.6598C80.9483 61.6598 81.2616 65.45 77.2856 68.851C73.3095 72.2524 76.4183 59.4732 76.4183 59.4732C76.4183 59.4732 81.7676 35.2329 85.7798 33.3198L85.7793 33.3194Z" fill="#BC8F8F"/>
<path d="M74.9668 70.4489C74.6676 70.4489 74.4019 70.4083 74.1777 70.3525C73.3589 70.1491 72.6055 69.6072 72.2588 68.9717C72.23 68.9186 72.2011 68.8665 72.1723 68.8149C71.6216 67.82 71.1454 66.9608 71.714 61.9604C72.3036 56.7708 75.0482 46.4268 75.0761 46.323C76.2563 41.9964 76.9544 39.8504 79.1446 35.9859C80.2694 34.0009 82.0155 33.3755 83.2826 33.2002C84.6535 33.0102 85.7742 33.2934 85.7857 33.2961L85.8488 33.3127L85.7898 33.3409C84.88 33.7749 83.8224 35.4168 82.6463 38.2223C81.704 40.4703 80.6848 43.464 79.6171 47.12C77.7997 53.3463 76.4549 59.4172 76.4411 59.4781C76.4196 59.5671 74.3035 68.3509 75.8542 69.3176C76.1804 69.521 76.657 69.3577 77.2705 68.8328C79.3198 67.0798 80.2045 65.222 80.5855 63.9731C80.9981 62.6203 80.9259 61.6712 80.9249 61.6619L80.9716 61.655C81.6408 64.7401 80.091 66.733 80.0755 66.7528C80.0691 66.7652 79.183 68.35 77.0582 69.77C76.2806 70.2898 75.5596 70.4494 74.9677 70.4494L74.9668 70.4489ZM84.2528 33.1822C83.9555 33.1822 83.6289 33.2002 83.2867 33.2477C82.031 33.4216 80.3001 34.0424 79.1853 36.0099C76.9978 39.8693 76.3002 42.0135 75.1214 46.3359C75.094 46.4397 72.3503 56.78 71.7606 61.9659C71.1939 66.9511 71.6664 67.8039 72.2135 68.7918C72.2423 68.8435 72.2711 68.8956 72.2999 68.9486C72.6407 69.5731 73.3822 70.1062 74.1892 70.3064C74.8479 70.4701 75.8757 70.5024 77.0312 69.7299C79.1455 68.3167 80.027 66.7413 80.0357 66.7256C80.0531 66.7034 81.5031 64.8374 80.9762 61.9235C80.9707 62.2998 80.9167 63.0474 80.6299 63.9869C80.247 65.2423 79.3587 67.1084 77.3002 68.8693C76.6694 69.4089 76.174 69.5735 75.8286 69.3582C75.1635 68.9435 75.0569 67.1513 75.5121 64.0321C75.8501 61.715 76.389 59.4896 76.3945 59.4675C76.4077 59.4076 77.7531 53.3353 79.5709 47.1071C80.6386 43.4488 81.6587 40.4532 82.6019 38.2039C83.7574 35.4477 84.8026 33.8081 85.7097 33.328C85.5291 33.2883 84.9778 33.1827 84.2528 33.1827V33.1822Z" fill="#BC8F8F"/>
<path d="M65.7911 50.1801C65.7911 50.1801 63.561 48.9861 64.7298 45.8364C65.8986 42.6868 69.9263 42.1122 74.696 43.3943C79.4657 44.6765 85.4422 46.5209 90.8047 43.2846C90.8047 43.2846 91.7553 42.7399 92.102 42.2409C92.4483 41.7418 92.3852 41.1289 92.3852 41.1289C92.3852 41.1289 90.7375 42.6891 88.0688 43.1227C88.0688 43.1227 84.6325 44.3121 77.0971 42.5526C69.5617 40.7931 66.3363 42.3963 64.781 43.1928C63.2253 43.9893 61.0122 46.8391 62.1 48.8883C63.1873 50.9379 65.7915 50.1806 65.7915 50.1806L65.7911 50.1801Z" fill="#BC8F8F"/>
<path d="M57.7667 68.8984C57.7667 68.8984 54.8185 63.3246 61.6101 55.9462C61.6101 55.9462 66.7696 51.0624 69.7182 53.5576C69.7182 53.5576 67.1383 51.8589 63.4005 57.3796C63.4005 57.3796 60.9789 61.6265 60.7154 68.1553C60.7154 68.1553 60.5923 69.6063 61.2478 69.6063C61.9033 69.6063 63.1197 67.6715 63.1197 67.6715C63.1197 67.6715 64.3131 65.9259 65.717 60.7589C67.1209 55.592 68.8056 54.5658 68.8056 54.5658C68.8056 54.5658 69.376 54.0409 69.7406 53.9201C69.7507 53.9169 69.7608 53.9136 69.7708 53.9109C70.1336 53.8108 70.3559 55.4029 69.9346 56.7538L71.1573 54.6954C71.1573 54.6954 71.5901 54.1175 71.6372 54.5658C71.6372 54.5658 69.3907 60.9356 68.5252 65.5126C67.6593 70.0897 68.619 68.9805 68.619 68.9805L69.9204 67.6416C69.9204 67.6416 70.3417 67.2523 70.3504 67.7656C70.3504 67.7656 69.3939 69.7917 67.6392 70.526C65.8844 71.2602 65.0244 69.765 64.8927 69.3051C64.761 68.8453 64.6031 66.9516 64.6031 66.9516C64.6031 66.9516 63.0501 70.3401 60.8736 70.7118C58.6976 71.0836 57.7672 68.8984 57.7672 68.8984H57.7667Z" fill="#BC8F8F"/>
<path d="M47.6317 0.0380554C47.6317 0.0380554 43.9443 3.33663 40.2052 16.4793C36.4661 29.6219 35.2195 38.0519 35.5832 41.9265L35.6354 42.3979L38.6993 40.7223C38.6993 40.7223 39.8937 33.8106 43.1136 28.313C46.3335 22.8154 47.2968 22.7919 47.7127 22.7919C48.1285 22.7919 48.128 23.676 48.128 23.676C48.128 23.676 47.9203 26.1195 46.4433 30.0292C44.9662 33.9389 45.1505 36.8943 45.2663 37.7554C45.3815 38.6164 46.3051 40.6412 48.2666 40.6412C50.2281 40.6412 51.7056 38.2207 51.7056 38.2207C51.7056 38.2207 52.1242 37.6507 52.0547 37.1793C51.9856 36.708 51.691 37.0483 51.691 37.0483C51.691 37.0483 50.6782 38.9508 49.6138 39.3521C48.5493 39.7533 49.1376 36.7255 49.1376 36.7255C49.1376 36.7255 50.3667 30.9834 51.5089 27.8767C52.6516 24.77 52.2015 23.0594 51.7857 22.2569C51.3703 21.4539 49.8123 20.3719 47.6655 21.2094C45.5188 22.047 41.7454 27.9814 40.5679 31.6817C40.5679 31.6817 42.8185 23.0248 45.5535 15.7293C48.2886 8.43393 49.1888 3.61659 47.6308 0.0385166L47.6317 0.0380554Z" fill="#BC8F8F"/>
<path d="M35.6166 42.4336L35.5608 41.9286C35.1477 37.5278 36.8329 28.2496 40.1837 16.4726C42.1159 9.68126 44.033 5.57096 45.301 3.31841C46.6761 0.876299 47.6074 0.0290562 47.6166 0.0207545L47.6399 0L47.6523 0.028595C48.4148 1.78027 48.6024 3.89446 48.225 6.49246C47.8732 8.91565 47.0311 11.8531 45.575 15.7365C43.2869 21.8392 41.3177 28.9746 40.7527 31.0759C41.3799 29.3712 42.4869 27.2423 43.7348 25.3587C45.2342 23.0956 46.6642 21.5754 47.6578 21.1875C48.8608 20.718 49.8036 20.8785 50.3832 21.0958C51.1407 21.3799 51.6151 21.8761 51.8063 22.2456C52.2857 23.1721 52.6269 24.9026 51.5304 27.8838C50.4015 30.9537 49.1719 36.6722 49.16 36.7299C49.1559 36.7511 48.7497 38.8754 49.2414 39.2956C49.3356 39.3763 49.455 39.3874 49.606 39.3306C50.6503 38.9367 51.6613 37.0564 51.6713 37.0375L51.6741 37.0333C51.6796 37.0269 51.8108 36.877 51.9302 36.912C52.0053 36.9342 52.0547 37.0232 52.0771 37.1758C52.1471 37.6509 51.7413 38.2103 51.7239 38.2343C51.7102 38.2569 50.2185 40.664 48.2666 40.664C47.1852 40.664 46.4675 40.0506 46.0563 39.5354C45.5796 38.9386 45.3047 38.2131 45.2439 37.7584C45.1675 37.1892 44.866 34.1406 46.4222 30.0211C47.881 26.1598 48.1038 23.6988 48.1056 23.6744C48.1056 23.6679 48.101 22.8147 47.7127 22.8147C47.3243 22.8147 46.36 22.8147 43.1332 28.3248C39.9522 33.7564 38.7336 40.6575 38.7217 40.7267L38.7199 40.7378L38.7103 40.7428L35.6166 42.4346V42.4336ZM47.6239 0.0765609C47.473 0.222303 46.591 1.11982 45.3381 3.34562C44.0719 5.59586 42.1571 9.70156 40.2271 16.4855C36.8778 28.2574 35.1935 37.5296 35.6061 41.9245L35.6541 42.3617L38.6792 40.7073C38.735 40.3932 39.9682 33.6388 43.0944 28.3012C46.3344 22.769 47.3 22.769 47.7127 22.769C48.1458 22.769 48.1509 23.6393 48.1509 23.6762C48.1486 23.7025 47.9258 26.1695 46.4643 30.0372C44.9118 34.1462 45.2123 37.1846 45.2882 37.7524C45.3481 38.2007 45.6199 38.9169 46.0915 39.5068C46.4968 40.0137 47.2031 40.6183 48.2666 40.6183C50.1933 40.6183 51.6718 38.2329 51.6864 38.209C51.6915 38.2016 52.0995 37.6394 52.0322 37.1828C52.013 37.0509 51.9732 36.9725 51.9174 36.9559C51.8429 36.9342 51.7441 37.0227 51.7097 37.0615C51.6681 37.1385 50.665 38.9801 49.6215 39.3735C49.4559 39.4358 49.3183 39.4215 49.2117 39.3306C48.6998 38.8934 49.0982 36.8096 49.1152 36.7211C49.1275 36.6634 50.3576 30.9412 51.4879 27.8686C52.5784 24.9026 52.2413 23.1855 51.766 22.2672C51.5789 21.9052 51.1128 21.4186 50.3672 21.1391C49.7954 20.9246 48.8636 20.7664 47.6742 21.2309C46.6894 21.6151 45.2672 23.1292 43.7727 25.385C42.3762 27.4927 41.1566 29.9081 40.5903 31.6888L40.5469 31.6759C40.5693 31.5892 42.829 22.9346 45.533 15.7213C48.4496 7.94066 49.0571 3.40373 47.6234 0.0774833L47.6239 0.0765609Z" fill="#BC8F8F"/>
<path d="M56.7979 88.5016C55.4974 89.978 53.5953 91.03 51.6005 90.9996C50.563 90.9613 49.5287 90.7639 48.5516 90.4083C48.0974 90.2386 47.6473 90.0306 47.2319 89.7783C46.575 89.3876 45.9717 88.8688 45.4996 88.2613L45.4621 88.2102L45.3866 88.1078L45.3116 88.0049C45.2421 87.8979 45.1725 87.7909 45.1053 87.6825L44.9813 87.4593C44.9612 87.422 44.9388 87.3851 44.9209 87.3468C44.8958 87.2905 44.8368 87.1724 44.8112 87.1157L44.7837 87.0576L44.77 87.0285L44.7581 86.999L44.6634 86.7615C44.6016 86.6065 44.5513 86.4363 44.5001 86.2772C44.2485 85.3829 44.1817 84.4393 44.2494 83.5238C44.254 83.4588 44.2663 83.3301 44.2755 83.266C44.281 83.2014 44.3016 83.0727 44.3121 83.0086C45.1295 78.3315 50.633 76.1098 54.8931 76.7804C55.4018 76.8612 55.9127 76.9843 56.4026 77.154C56.5312 77.1965 56.7329 77.2753 56.8624 77.3238C57.0371 77.3902 57.3665 77.5133 57.5284 77.5806C58.0545 77.7919 58.6423 78.0414 59.1615 78.2692C61.6902 79.4033 64.1571 80.6735 66.5656 82.0442C66.7828 82.1715 67.0962 82.3505 67.3235 82.4626C74.3132 85.9055 84.2483 85.9161 88.2518 78.0884C88.9338 76.7551 89.3872 75.3004 89.5651 73.8103C90.0916 69.4011 88.3913 64.89 85.503 61.537C87.7504 63.4957 89.6927 65.8871 90.7517 68.6853C93.3518 75.5578 89.0738 82.4432 82.8915 85.4337C81.0581 86.1301 79.119 86.5438 77.163 86.6628C73.4459 86.88 69.6807 86.0987 66.3345 84.4601C65.7248 84.1529 64.879 83.6386 64.2747 83.308C61.5516 81.7938 58.8051 80.3064 55.9278 79.1105C52.4467 77.6305 46.7438 79.0662 45.6249 83.0557C45.5897 83.182 45.5563 83.3273 45.5334 83.4569L45.5147 83.5584L45.5001 83.6608C45.383 84.5472 45.4017 85.447 45.6441 86.3026C45.6483 86.3197 45.6538 86.3363 45.6592 86.3529L45.6757 86.4027L45.7411 86.6024L45.7494 86.6273L45.759 86.6517C45.7873 86.7204 45.8285 86.8261 45.8564 86.8952C45.8688 86.928 45.8861 86.9584 45.9003 86.9903L45.9904 87.1798C46.0407 87.2721 46.0924 87.3634 46.1437 87.4552C46.1981 87.5372 46.2599 87.6396 46.3161 87.7199C46.3404 87.7499 46.4497 87.9039 46.4726 87.9325C46.5526 88.0252 46.6281 88.1276 46.7132 88.2152C47.172 88.7207 47.7369 89.134 48.3398 89.4508C49.1943 89.901 50.1293 90.1814 51.0794 90.3363C51.9179 90.4821 52.7697 90.4383 53.5985 90.2081C54.7618 89.8867 55.8638 89.2737 56.7983 88.5007L56.7979 88.5016Z" fill="#BC8F8F"/>
<path d="M51.0835 84.7206C51.2948 85.0938 51.6269 85.4 51.9997 85.5983C53.1571 86.1873 54.4868 85.7284 55.581 85.1985C57.1194 84.4324 58.4684 83.3158 59.7552 82.1738C61.0726 81.0134 62.3941 79.8544 63.7504 78.7286C65.9699 76.8967 68.2699 75.1178 70.8512 73.8241C71.0836 73.7083 71.3718 73.5732 71.6097 73.4666C71.8489 73.3638 72.1417 73.2337 72.3841 73.1429C72.7876 72.981 73.2372 72.8279 73.6531 72.7001C73.9733 72.6019 74.2999 72.5106 74.626 72.4354C75.2706 72.2804 75.9503 72.1587 76.609 72.0876C78.7 71.857 81.3357 71.8999 83.2089 72.9496C84.4303 73.6152 85.3685 74.8816 85.2404 76.3303C85.1997 76.78 85.0584 77.2333 84.7789 77.5889L84.7491 77.5686C84.96 77.19 85.0382 76.7518 85.0282 76.3238C85.0053 75.258 84.3708 74.3024 83.5008 73.7341C82.7122 73.2088 81.7831 72.9376 80.855 72.7979C79.6931 72.6277 78.5065 72.6521 77.3405 72.7698C74.0812 73.0783 71.139 74.4029 68.4474 76.2367C65.1955 78.4408 62.2976 81.1472 59.2392 83.622C58.5356 84.1713 57.8069 84.6897 57.0339 85.139C56.0577 85.7026 54.9987 86.196 53.8606 86.2938C53.1722 86.3524 52.4339 86.2242 51.8703 85.8049C51.5057 85.5347 51.2139 85.1551 51.0826 84.7211L51.0835 84.7206Z" fill="#BC8F8F"/>
<path d="M92.5178 57.1781C92.1976 57.0111 91.9163 56.7275 91.7169 56.3973C91.1181 55.3701 91.3326 54.1014 91.6304 53.0456C92.0659 51.5592 92.801 50.2212 93.5636 48.9381C94.3371 47.626 95.1092 46.3092 95.8512 44.9634C97.057 42.762 98.2116 40.4901 98.9485 37.995C99.0144 37.7704 99.0894 37.4927 99.147 37.2635C99.2015 37.0338 99.2719 36.752 99.3168 36.52C99.4 36.1335 99.4709 35.7046 99.5253 35.3084C99.5674 35.004 99.6031 34.6936 99.626 34.3855C99.6763 33.7758 99.6964 33.1357 99.6786 32.5195C99.626 30.5626 99.2943 28.1223 98.2486 26.4675C97.5817 25.3869 96.4692 24.6166 95.332 24.8486C94.9789 24.9215 94.6344 25.088 94.3837 25.3749L94.4034 25.4007C94.6806 25.1752 95.02 25.0686 95.3613 25.0447C96.2112 24.9824 97.0424 25.4962 97.5922 26.2576C98.0986 26.9476 98.4193 27.7879 98.6352 28.6375C98.9019 29.7015 99.0162 30.8038 99.0542 31.8941C99.1768 34.9404 98.4559 37.7722 97.3022 40.4113C95.9171 43.5991 94.0928 46.4983 92.4707 49.5275C92.1135 50.223 91.7837 50.9393 91.5138 51.6911C91.1757 52.6402 90.9031 53.6609 90.9539 54.724C90.985 55.3669 91.1702 56.0417 91.5673 56.531C91.8235 56.8479 92.1578 57.0886 92.5178 57.1767V57.1781Z" fill="#BC8F8F"/>
<path d="M67.0079 28.4227C66.8684 28.4157 66.7385 28.4941 66.6795 28.6219C66.2513 29.5499 64.4243 33.3313 61.9908 35.814C59.1999 38.6615 58.7347 38.6279 57.705 38.6279C56.6753 38.6279 56.243 35.8477 56.8743 32.6985C57.5056 29.5499 59.1336 25.7642 59.1336 25.7642C59.1336 25.7642 60.9277 21.1079 62.7881 21.5769C64.6485 22.046 63.3196 25.4963 62.7881 26.4007C62.7881 26.4007 60.2296 31.7941 56.0765 30.5212L55.8771 31.0571C55.8771 31.0571 58.1698 32.0621 61.2593 30.3869C64.3493 28.7118 65.9773 26.0322 65.6118 23.7206C65.2463 21.409 62.8544 20.8062 61.3261 21.041C59.7978 21.2753 55.7444 23.7543 53.4188 28.5112C51.0932 33.2681 52.8209 36.7516 52.8209 36.7516C52.8209 36.7516 53.718 39.3644 57.3395 39.3644C60.9611 39.3644 64.0177 34.8754 64.0177 34.8754C64.0177 34.8754 66.5962 31.0488 67.3163 28.8783C67.3885 28.6606 67.2353 28.4333 67.0079 28.4222V28.4227Z" fill="#BC8F8F"/>
<path d="M57.3395 39.3869C55.4617 39.3869 54.3277 38.6729 53.707 38.0743C53.0341 37.4249 52.8026 36.7658 52.8003 36.7594C52.7971 36.7534 52.3662 35.8706 52.2262 34.4178C52.0972 33.078 52.196 30.9638 53.3996 28.5019C55.7115 23.7731 59.7653 21.259 61.3233 21.0196C62.1842 20.8877 63.1531 21.0321 63.9152 21.4071C64.5844 21.7359 65.4261 22.4042 65.6338 23.7177C65.8167 24.8749 65.5112 26.1156 64.75 27.3046C63.971 28.5222 62.7674 29.5945 61.2702 30.4062C59.6203 31.3009 58.1871 31.4292 57.2123 31.3554C57.0915 31.8092 56.9836 32.2626 56.8958 32.7026C56.4068 35.141 56.5362 37.5075 57.2032 38.3293C57.3518 38.5124 57.5206 38.6056 57.705 38.6056H57.774C58.7392 38.6056 59.2543 38.5742 61.9752 35.7982C64.3753 33.3492 66.1676 29.6789 66.6598 28.6121C66.7225 28.4756 66.8611 28.393 67.0088 28.3999C67.1241 28.4059 67.227 28.464 67.292 28.56C67.3569 28.6559 67.3734 28.7744 67.3368 28.8851C66.6241 31.0334 64.0615 34.8495 64.0355 34.8878C64.0277 34.8993 63.256 36.0251 62.0511 37.1362C60.9381 38.1628 59.2168 39.3864 57.3395 39.3864V39.3869ZM61.9651 21.0164C61.74 21.0164 61.526 21.0326 61.3297 21.063C59.7795 21.301 55.7435 23.8067 53.4384 28.5212C52.2395 30.9739 52.1407 33.0794 52.2692 34.4137C52.4083 35.8586 52.836 36.734 52.8401 36.7423C52.8433 36.7515 53.0725 37.4023 53.7385 38.0443C54.3533 38.637 55.4768 39.3431 57.339 39.3431C59.2013 39.3431 60.9134 38.1259 62.0209 37.1053C63.2221 35.9975 63.9915 34.8753 63.9993 34.8643C64.0249 34.826 66.5843 31.0155 67.2952 28.8727C67.3276 28.7754 67.313 28.6707 67.2558 28.5863C67.1986 28.5019 67.1076 28.4507 67.0065 28.4456C66.8748 28.4396 66.7545 28.5125 66.6991 28.6324C66.2065 29.7005 64.4115 33.3769 62.0063 35.8305C59.2731 38.619 58.7516 38.6508 57.775 38.6508H57.705C57.5069 38.6508 57.3267 38.5526 57.1693 38.3588C56.495 37.5277 56.3619 35.1461 56.8532 32.6956C56.941 32.2575 57.0485 31.806 57.1684 31.354C56.3601 31.2871 55.8793 31.0833 55.8688 31.0786L55.8501 31.0703L56.0637 30.4957L56.0834 30.5017C56.5252 30.6373 56.9497 30.6954 57.3523 30.6926C58.0856 28.1606 59.1011 25.7872 59.1139 25.7572C59.118 25.7461 59.5704 24.5793 60.2451 23.4848C61.1417 22.0297 62.0227 21.3632 62.794 21.5574C63.1897 21.657 63.4687 21.8973 63.6233 22.2714C64.1274 23.489 63.1878 25.766 62.8072 26.4135C62.8018 26.4255 62.1536 27.7768 61.0058 28.9552C60.3311 29.648 59.6175 30.1461 58.8861 30.4362C58.3934 30.6317 57.8911 30.7323 57.3843 30.7383C57.329 30.9297 57.2754 31.1225 57.2242 31.3148C58.1912 31.3867 59.6125 31.2571 61.2501 30.3698C64.2203 28.7597 65.9649 26.0897 65.5912 23.7265C65.2687 21.6875 63.4019 21.0183 61.9651 21.0183V21.0164ZM55.9054 31.045C56.0024 31.0833 56.4612 31.2511 57.1798 31.3097C57.2311 31.1188 57.2841 30.9274 57.339 30.7369H57.3372C56.9241 30.7369 56.5079 30.6737 56.0902 30.5478L55.9054 31.0445V31.045ZM62.5232 21.5662C60.7954 21.5662 59.1706 25.7281 59.1537 25.7724C59.1404 25.8029 58.1295 28.1666 57.3971 30.6908C58.9195 30.6636 60.1468 29.772 60.9734 28.9239C62.1165 27.751 62.762 26.4047 62.7684 26.3914C63.1471 25.7471 64.0807 23.4894 63.5826 22.2871C63.4335 21.9264 63.164 21.6949 62.7825 21.5985C62.6961 21.5768 62.6092 21.5662 62.5227 21.5662H62.5232Z" fill="#BC8F8F"/>
<path d="M35.1532 55.3895C35.1532 55.3895 37.1678 56.2358 38.5945 52.512C38.5945 52.512 40.6091 47.6034 36.832 47.6882C35.3682 47.721 33.8921 48.5926 32.6327 49.6479C30.5706 51.3761 29.0272 53.6489 28.1343 56.198C26.7396 60.181 24.6921 67.5452 26.7592 71.8925C26.7592 71.8925 29.2774 76.3778 33.0545 69.6921C33.0545 69.6921 36.4121 63.6834 33.2224 63.1757L33.3061 62.3293H42.2033V63.2601C42.2033 63.2601 40.6923 62.2445 40.2729 66.0527C39.8534 69.8609 37.5031 78.5778 34.7328 82.1323C31.963 85.6869 26.6751 92.2877 17.358 90.7643C17.358 90.7643 14.6161 90.1721 13.6925 87.9011C12.7753 85.6458 13.3901 81.8454 16.7294 82.0567C16.7523 82.0581 16.7752 82.0599 16.798 82.0618L17.3438 82.4146C17.3438 82.4146 13.9725 81.8505 13.6504 85.4752C13.3288 89.1003 17.4138 90.1297 17.4138 90.1297C17.4138 90.1297 23.9995 92.1503 29.7911 81.7726C29.7911 81.7726 33.1908 75.5522 33.285 71.839C33.285 71.839 27.9971 78.2498 22.3312 71.2044C22.3312 71.2044 18.8689 67.1102 22.7717 57.4626C22.7717 57.4626 27.5982 47.18 36.7053 47.18C36.7053 47.18 43.1685 47.2644 42.3291 53.2735C42.3291 53.2735 40.6503 58.6051 35.1523 55.389L35.1532 55.3895Z" fill="#BC8F8F"/>
<path d="M54.4626 54.3472C54.2701 54.2711 54.072 54.2107 53.8707 54.1627C49.0864 53.0203 44.4909 59.1133 43.7984 64.0644C43.7984 64.0644 42.2243 72.3155 49.0864 72.0618C49.0864 72.0618 51.7935 72.1886 53.8081 68.8246C55.3826 66.1957 56.3738 63.1918 56.7489 60.1474C57.0179 57.9649 56.8061 55.2765 54.4622 54.3472H54.4626ZM55.0591 63.6244C54.5523 65.627 53.6173 67.4972 52.2958 69.0769C51.3164 70.2469 50.101 71.3003 48.8979 71.3003C47.0032 71.3003 47.2058 66.6998 47.4977 63.9376C47.6839 62.1785 48.1257 60.4554 48.8261 58.8334C50.8562 54.1336 53.1159 54.5437 53.1159 54.5437C56.8189 54.5437 55.9054 60.2816 55.0596 63.6244H55.0591Z" fill="#BC8F8F"/>
<path d="M50.4609 57.31C49.6595 59.7027 50.0657 62.5539 52.2504 64.0247C53.2554 64.7055 54.5111 64.9661 55.7068 64.8116C56.9126 64.6607 58.0462 64.0847 58.9034 63.2172L59.408 63.706C58.0036 65.2469 55.7622 65.942 53.743 65.4443C52.3973 65.133 51.1764 64.2706 50.4499 63.0866C49.3727 61.3686 49.2551 58.9883 50.4614 57.31H50.4609Z" fill="#BC8F8F"/>
<path d="M45.3518 45.259H43.6428V44.6368H47.8028V45.259H46.0855V50.3019H45.3518V45.259Z" fill="#BC8F8F"/>
<path d="M50.4038 44.6373V47.0075H53.1214V44.6373H53.8552V50.3023H53.1214V47.6462H50.4038V50.3023H49.6783V44.6373H50.4038Z" fill="#BC8F8F"/>
<path d="M59.2735 47.6462H57.0892V49.6885H59.5232V50.3019H56.3637V44.6368H59.3979V45.2502H57.0887V47.0407H59.273V47.6458L59.2735 47.6462Z" fill="#BC8F8F"/>
<path d="M71.9514 30.8554C71.9514 30.8554 71.4171 29.9851 69.9721 30.4366C68.5266 30.8886 67.8432 33.2044 67.8432 33.2044C67.8432 33.2044 67.1483 35.825 68.8289 36.9434C70.5096 38.0618 72.3805 37.6666 72.3805 37.6666C72.3805 37.6666 76.6045 37.079 78.8226 33.5323C81.0412 29.9851 78.7778 27.4097 78.7778 27.4097C78.7778 27.4097 77.0075 25.4892 75.1027 24.5405C73.1979 23.5918 73.6238 21.7391 73.6238 21.7391C73.6238 21.7391 74.8113 18.5988 76.9626 18.531C79.114 18.4632 77.9484 20.0898 77.9484 20.0898C77.9484 20.0898 76.6937 22.2815 77.9708 23.072C79.248 23.8625 80.167 22.1007 80.167 22.1007C80.167 22.1007 81.108 20.3384 79.3825 19.0055C76.1644 16.5196 71.5187 19.8823 70.7333 23.2533C69.9492 26.6197 72.1449 28.3367 72.1449 28.3367L74.1842 30.3476C74.1842 30.3476 76.1562 32.5167 75.2596 34.166C75.2596 34.166 74.1169 36.8544 71.3609 36.6284C71.3609 36.6284 67.9772 35.973 69.3216 32.2003C69.3216 32.2003 70.0764 30.2134 71.951 30.8568L71.9514 30.8554Z" fill="#BC8F8F"/>
<path d="M39.1521 38.3685C38.9467 39.1655 38.8502 39.9975 38.7628 40.8148C38.7281 41.2008 38.6874 41.6187 38.7377 41.9913C38.8068 42.5651 39.1942 42.7283 39.7216 42.6868C40.309 42.6375 40.8639 42.418 41.4293 42.2016C41.7957 42.0596 42.1497 41.8954 42.4631 41.6648C42.7169 41.4748 42.9374 41.2608 43.0573 40.973C43.1355 40.8033 43.1954 40.5602 43.1607 40.4131C43.1227 40.2092 42.9466 40.0976 42.7581 40.027C42.5038 39.9339 42.2513 39.9131 41.9695 39.9274C41.5907 39.9468 41.1973 40.0257 40.8099 40.1313C39.2317 40.5823 37.7441 41.3383 36.3041 42.1306C35.9629 42.3202 35.5997 42.5328 35.2657 42.7376C35.2104 42.7759 35.1152 42.8183 35.0292 42.8151L35.2319 42.7583C31.5312 45.0575 27.9847 47.6287 24.6678 50.4587C24.2584 50.8152 23.8504 51.1736 23.4579 51.549C22.0705 52.8519 20.9031 54.3624 19.7549 55.8747C17.8245 58.3638 16.159 61.0965 15.2784 64.1317C15.0707 64.8508 14.8987 65.5998 14.7935 66.3395C14.616 67.6139 14.5424 68.89 14.8091 70.1265C14.9083 70.608 15.0369 71.0716 15.1897 71.5319C15.4577 72.3284 15.75 73.0935 16.1846 73.8167C17.3977 75.8944 19.8555 76.9898 22.2141 77.3883C22.7603 77.4824 23.3092 77.5516 23.8636 77.5802C23.3591 77.8421 22.8193 78.0432 22.2649 78.2069C20.7508 78.6483 19.1342 78.7696 17.5706 78.4832C14.31 77.9182 11.4812 75.418 10.6258 72.1706C10.1249 70.3659 10.1089 68.7125 10.5329 66.9138C10.8376 65.6459 11.3229 64.4158 11.8828 63.2439C12.7561 61.3751 13.8512 59.6091 15.1572 58.0267C15.5982 57.4839 16.1 56.9221 16.578 56.412C17.5487 55.3927 18.5363 54.4182 19.5646 53.4626C20.4992 52.6033 21.7548 51.5573 22.7191 50.7193C24.7945 48.8929 27.0231 47.2542 29.2811 45.6723C31.0829 44.4021 32.9323 43.202 34.8252 42.0776L35.0279 42.0209C34.9615 42.0162 34.8668 42.0485 34.828 42.0762L34.8325 42.0734L34.8412 42.0679L34.8586 42.0573C35.0645 41.9346 35.1861 41.8677 35.3773 41.758C37.0516 40.8272 38.7697 39.9477 40.626 39.4358C41.4942 39.2176 42.5413 39.0188 43.3564 39.5474C44.0152 39.9984 43.9561 40.7899 43.6076 41.4245C43.3102 41.9549 42.8016 42.3114 42.2833 42.5812C41.6868 42.8672 41.0981 43.0876 40.4467 43.2647C39.7033 43.4608 38.7514 43.4995 38.2752 42.7509C38.0296 42.3557 38.0035 41.8433 38.0177 41.401C38.0319 40.9624 38.0813 40.5404 38.1279 40.1101L38.1636 39.7946C38.1755 39.6904 38.1888 39.5801 38.2029 39.4731C38.2606 39.0433 38.3393 38.6162 38.4376 38.1933L39.1512 38.369L39.1521 38.3685Z" fill="#BC8F8F"/>
<path d="M70.6519 6.06445C71.8147 5.28408 73.4839 5.26656 74.7404 5.93623C76.5505 6.87341 77.6552 8.93087 77.6127 10.963C77.5509 14.3561 74.8763 17.4171 71.6289 18.1523C69.0719 18.762 66.0679 17.5647 65.5747 14.7403C65.3607 13.3843 65.7797 11.8121 67.001 11.064C68.3317 10.2882 69.946 10.8407 70.8024 12.0385C73.0406 15.0401 69.9158 20.8135 66.4379 21.2097C68.4507 20.1613 70.1153 17.1575 70.3069 14.928C70.365 14.1684 70.2411 13.418 69.7772 12.8189C69.4579 12.4116 69.0398 12.1137 68.5444 12.0519C68.098 11.9896 67.6396 12.1492 67.3578 12.5145C66.8912 13.1011 66.7714 14.0383 66.9736 14.7675C67.2444 15.7563 68.0829 16.4749 69.0485 16.7645C72.4409 17.7584 76.1603 14.6319 76.5043 11.2369C76.7596 8.97745 75.3621 6.87572 73.2002 6.22172C72.3814 5.96114 71.5201 5.94315 70.6514 6.06445H70.6519Z" fill="#BC8F8F"/>
<path d="M70.0594 17.7631C70.0594 17.7631 64.8615 16.7904 66.5015 12.6247C66.5015 12.6247 67.3212 10.2638 69.0032 11.6949C70.6852 13.1256 71.3348 13.614 71.0109 14.9109C70.687 16.2078 70.0594 17.7631 70.0594 17.7631Z" fill="#BC8F8F"/>
<path d="M104 61.5384C99.2157 61.9825 98.8584 62.3423 98.4179 67.1665C97.9774 62.3427 97.6206 61.9825 92.8358 61.5384C97.6201 61.0942 97.9774 60.7345 98.4179 55.9102C98.8584 60.734 99.2152 61.0942 104 61.5384Z" fill="#BC8F8F"/>
<path d="M98.4179 14.0212C93.6335 14.4654 93.2763 14.8251 92.8358 19.6494C92.3952 14.8256 92.0384 14.4654 87.2536 14.0212C92.038 13.5771 92.3952 13.2174 92.8358 8.3931C93.2763 13.2169 93.6331 13.5771 98.4179 14.0212Z" fill="#BC8F8F"/>
<path d="M11.1638 5.70472C6.37941 6.14886 6.02215 6.50861 5.58163 11.3329C5.14112 6.50907 4.78432 6.14886 -0.000488281 5.70472C4.78432 5.26057 5.14158 4.90083 5.58209 0.0765686C6.0226 4.90037 6.37941 5.26057 11.1642 5.70472H11.1638Z" fill="#BC8F8F"/>
<path d="M32.0235 7.87518C31.1758 7.89962 30.3186 8.07073 29.4929 8.30641C27.778 8.79575 26.6408 9.21638 24.9451 10.4782C23.6866 11.4145 18.1164 16.1414 21.356 22.4222C22.3839 24.4146 24.4291 25.6913 26.1582 27.0274C28.6814 28.9774 30.2376 31.9061 29.3017 35.1631C27.144 42.6698 17.3351 41.7921 12.5146 37.6749C9.60486 35.1894 7.59305 31.3093 7.45353 27.4494C7.30532 23.3612 9.20414 19.5263 11.7233 16.4315C13.9734 13.6675 16.8951 11.5976 19.9526 9.81226C22.8655 8.11132 28.1705 6.53444 29.4723 6.24065C31.0047 5.89474 32.507 5.55898 34.0783 5.43676C35.1039 5.35697 36.2095 5.19555 37.2355 5.33668H37.2337C36.1944 5.05949 35.1222 4.93173 34.0472 4.95479C33.0715 4.97555 32.1008 5.01014 31.1141 5.1176C26.6563 5.60372 21.958 6.35226 17.8589 8.26398C16.5026 8.89676 15.2067 9.65729 13.9629 10.493C12.3687 11.5649 11.2709 12.5652 10.2265 13.5056C9.08201 14.5369 5.12242 18.4378 4.9582 24.1218C4.83423 28.4226 6.38358 31.5223 6.96956 32.6159C9.81116 37.9133 15.5529 41.7967 21.5747 41.9724C27.5085 42.1459 33.4182 38.0171 34.5439 31.9817C35.0554 29.2375 34.3189 26.6381 32.351 24.6563C30.2948 22.5855 26.1838 21.45 25.0027 18.6836C24.2218 16.8531 24.9108 14.7278 25.8833 13.1164C26.5438 12.0224 27.4591 11.1318 28.5968 10.5553C30.2125 9.73662 32.5655 9.48895 34.3097 10.0484C35.5659 10.451 37.0251 11.9799 36.2689 13.46C37.1262 11.7816 36.9336 9.9211 35.339 8.79898C34.3193 8.0818 33.1794 7.84289 32.0225 7.87656L32.0235 7.87518Z" fill="#BC8F8F"/>
</g>
<defs>
<clipPath id="clip0_98_90">
<rect width="104" height="91" fill="white"/>
</clipPath>
</defs>
</svg>
