<svg width="182" height="183" viewBox="0 0 182 183" fill="none" xmlns="http://www.w3.org/2000/svg">
<g clip-path="url(#clip0_25_930)">
<path d="M51.3189 141.497C51.3189 130.568 51.3322 119.64 51.3433 108.712C51.3544 97.8625 50.3385 86.4505 51.9504 75.6973C53.477 65.5175 58.4834 57.2784 63.4444 48.4727C65.9991 43.9378 69.0733 39.3852 70.9257 34.5077C72.7348 29.7444 73.0372 24.5729 72.5509 19.5401C66.4488 17.2012 64.2287 9.90148 68.2358 4.64242C73.0671 -1.69905 83.4987 0.4303 90.4106 0.422537C97.4809 0.414773 108.082 -1.7911 113.49 3.9526C118.272 9.03088 116.137 16.9505 109.805 19.4248C107.33 39.1168 125.185 53.3635 129.581 71.5606C131.861 81.0018 130.937 91.1895 130.948 100.824C130.96 111.261 130.963 121.698 130.963 132.135C136.987 129.312 141.903 126.566 148.832 128.237C154.835 129.685 159.741 133.982 162.306 139.565C162.997 141.068 163.542 142.67 163.891 144.29C164.277 146.077 163.965 148.275 165.337 149.609C166.421 150.664 168.507 151.214 169.771 152.184C171.034 153.154 172.179 154.289 173.133 155.565C178.105 162.216 177.285 170.204 173.251 177.036C175.287 177.036 179.066 176.31 180.823 177.714C182.96 179.421 181.951 181.974 179.651 182.61C176.766 183.406 172.981 182.747 169.995 182.748C166.281 182.748 162.565 182.75 158.85 182.75C144.238 182.754 129.625 182.755 115.013 182.756C86.2783 182.758 57.5428 182.759 28.8085 182.764C21.038 182.764 13.2676 182.764 5.49821 182.766C3.27918 182.766 -0.456495 182.958 0.0453616 179.586C0.529493 176.331 5.04066 177.03 7.41479 177.03C4.95868 170.369 2.96455 164.298 6.67585 157.607C8.15151 154.947 10.3207 152.732 12.8865 151.112C14.3167 150.208 15.4755 149.916 16.2665 148.396C17.0719 146.849 17.3566 145.05 18.2307 143.487C21.3383 137.937 27.2143 134.678 33.457 134.087C40.4974 133.421 46.3934 136.491 51.0176 141.606L51.3178 141.5L51.3189 141.497ZM124.776 143.661V83.2709H57.3689V143.661H124.776ZM57.6038 77.5738H124.537C124.095 73.8563 123.361 70.263 121.713 67.0413C118.223 60.2229 114.461 53.5443 110.77 46.8313C110.59 46.5052 110.021 46.2125 109.632 46.2114C97.2682 46.1781 84.9056 46.1748 72.542 46.2114C72.1388 46.2125 71.5704 46.5884 71.36 46.9522C69.4965 50.1706 67.7063 53.4301 65.875 56.6674C63.3469 61.1357 60.6869 65.5463 59.291 70.5447C58.654 72.826 58.1787 75.1528 57.6038 77.5738ZM66.2882 176.92C73.6344 177.361 81.1079 176.998 88.4685 176.995C95.6285 176.991 102.877 177.283 110.027 176.901C115.414 176.614 121.291 174.086 123.601 168.879C126.14 163.155 124.849 155.52 124.999 149.427H57.2891C57.2891 151.863 56.4992 155.057 58.2131 156.924C59.7763 158.629 61.8136 159.593 63.2649 161.547C66.5053 165.909 67.5678 171.657 66.2882 176.919V176.92ZM153.874 176.982C159.586 176.982 165.378 177.611 169.028 172.273C171.68 168.395 171.053 163.05 168.459 159.292C165.469 154.962 160.957 154.548 156.127 154.355C154.141 154.276 151.472 153.938 152.079 151.144C152.667 148.434 156.228 148.826 158.31 148.645C157.658 140.47 152.321 133.1 143.288 133.448C138.977 133.615 134.375 136.291 132.112 139.995C129.758 143.85 130.819 150.538 131.033 154.867C145.836 151.138 157.046 164.234 153.875 176.982H153.874ZM22.5303 148.772C24.705 148.772 28.6767 148.039 30.1313 150.196C32.1974 153.26 28.5061 154.258 26.3325 154.321C20.473 154.491 15.1221 154.802 11.885 160.549C9.55515 164.685 9.91964 170.008 13.0958 173.596C17.5383 178.616 25.4584 176.981 31.4374 176.981C28.783 165.234 37.5339 154.467 49.4611 154.277C49.5962 147.995 44.7749 141.894 38.757 140.32C32.378 138.652 24.2608 141.969 22.5292 148.771L22.5303 148.772ZM75.2241 40.5641H107.59C103.564 33.962 103.123 26.862 103.689 19.4969H78.3937C78.3937 23.1955 78.8058 26.8398 78.2774 30.341C77.7523 33.8201 76.2821 37.1561 75.2241 40.5641ZM37.7588 177.003C41.4435 177.003 45.1271 176.996 48.8119 176.992C51.6989 176.99 56.5535 178.026 59.2556 176.854C62.9624 175.246 60.0698 167.294 58.3649 165.019C49.8433 153.646 33.6121 164.404 37.7588 177.002V177.003ZM124.963 176.992C131.656 176.992 138.667 177.605 145.331 176.962C151.465 176.37 147.322 166.331 144.592 163.642C142.975 162.048 140.935 160.928 138.722 160.423C137.029 160.037 132.374 159.486 131.212 161.177C130.093 162.806 130.787 167.2 130.085 169.28C129.082 172.255 127.19 174.818 124.962 176.992H124.963ZM91.0664 13.7177V13.7077C96.5159 13.7077 101.965 13.6789 107.414 13.7299C108.686 13.7421 109.406 13.1321 109.899 12.1129C111.109 9.61535 108.865 6.28602 105.791 6.26605C96.0894 6.20506 86.3857 6.23611 76.6843 6.27714C74.7788 6.28491 73.2843 7.13665 72.4357 8.94105C71.309 11.3332 72.7636 13.711 75.3826 13.7155C80.6105 13.7243 85.8385 13.7177 91.0664 13.7177Z" fill="#BC8E8F"/>
<path d="M33.2499 39.0059C39.5592 38.9638 44.9843 44.2228 45.0209 50.5643C45.0585 57.0045 39.5171 62.3467 33.138 62.3634C17.8674 62.4033 18.0214 39.1102 33.2499 39.007V39.0059ZM27.1357 50.5832C27.0637 58.0015 38.5311 58.4695 39.1071 51.0745C39.7109 43.3234 27.2133 42.6913 27.1357 50.5832Z" fill="#BC8E8F"/>
<path d="M166.884 110.578C166.918 121.628 149.397 121.572 149.903 110.374C150.378 99.891 166.852 100.078 166.884 110.578ZM158.452 107.703C154.559 107.645 154.582 113.569 158.374 113.604C162.165 113.64 162.158 107.757 158.452 107.703Z" fill="#BC8E8F"/>
<path d="M22.7098 88.0265C15.1454 88.0066 15.6717 76.2352 23.1275 76.4216C30.6886 76.6101 30.2322 88.0465 22.7098 88.0265Z" fill="#BC8E8F"/>
<path d="M31.1871 125.206C31.2071 132.277 20.0732 132.595 20.0333 125.349C19.9945 118.24 31.1672 118.039 31.1871 125.206Z" fill="#BC8E8F"/>
<path d="M155.122 62.5641C155.15 56.6829 164.291 56.7772 164.258 62.6384C164.225 68.482 155.095 68.5308 155.122 62.5641Z" fill="#BC8E8F"/>
<path d="M147.385 86.4206C153.197 86.4616 152.424 95.4803 146.711 94.7229C141.675 94.0563 142.292 86.384 147.385 86.4206Z" fill="#BC8E8F"/>
<path d="M35.1876 19.4625C35.2009 14.0637 43.5452 14.4696 43.4056 19.5767C43.2704 24.4931 35.1754 24.7071 35.1876 19.4625Z" fill="#BC8E8F"/>
<path d="M51.3866 27.5518C56.5126 27.5163 56.0251 35.4903 50.9035 34.9435C46.3846 34.4611 46.7879 27.584 51.3866 27.5518Z" fill="#BC8E8F"/>
<path d="M152.747 31.0974C147.781 31.0996 148.276 23.2354 153.372 23.8243C158.09 24.37 157.359 31.0952 152.747 31.0974Z" fill="#BC8E8F"/>
<path d="M142.949 17.3276C143.03 12.948 149.727 12.4567 150.255 16.9006C150.817 21.6406 142.856 22.3415 142.949 17.3276Z" fill="#BC8E8F"/>
<path d="M147.416 66.9792C151.726 67.1001 152.147 73.3473 147.941 74.1081C142.967 75.0086 142.184 66.8328 147.416 66.9792Z" fill="#BC8E8F"/>
<path d="M38.1622 91.8083C38.1034 96.4408 30.8924 96.4086 30.8492 91.7506C30.806 86.9829 38.2209 87.147 38.1622 91.8083Z" fill="#BC8E8F"/>
<path d="M141.399 43.228C141.382 47.4723 134.711 48.0812 134.216 43.6883C133.662 38.7764 141.422 38.1941 141.399 43.228Z" fill="#BC8E8F"/>
<path d="M37.8996 107.731C42.6501 107.729 42.506 114.897 37.8076 114.891C33.1148 114.884 33.1547 107.733 37.8996 107.731Z" fill="#BC8E8F"/>
<path d="M128.359 31.0153C123.957 31.0497 123.726 24.3156 128.061 23.8964C132.935 23.4239 133.4 30.9765 128.359 31.0153Z" fill="#BC8E8F"/>
<path d="M134.761 20.9819C130.163 20.9264 130.375 13.6977 134.984 13.8253C139.621 13.9539 139.536 21.0396 134.761 20.9819Z" fill="#BC8E8F"/>
<path d="M162.912 79.2152C167.071 79.254 167.046 85.4613 162.978 85.7785C158.568 86.1223 158.387 79.1731 162.912 79.2152Z" fill="#BC8E8F"/>
<path d="M149.26 37.9069C153.475 37.8714 153.513 44.0975 149.333 44.0787C145.33 44.0609 145.189 37.9413 149.26 37.9069Z" fill="#BC8E8F"/>
<path d="M18.8601 105.598C15.0734 105.573 14.9372 99.8588 18.6385 99.4574C22.9159 98.9938 23.1884 105.627 18.8601 105.598Z" fill="#BC8E8F"/>
<path d="M131.427 39.8322C128.451 39.8222 128.682 35.1398 131.654 35.2652C134.669 35.3927 134.424 39.8422 131.427 39.8322Z" fill="#BC8E8F"/>
<path d="M73.6045 124.25C74.6736 122.634 77.2837 116.87 79.9891 118.605C81.7882 119.758 80.7679 126.457 80.769 128.366C80.769 129.828 81.4404 135.998 77.9839 134.289C76.0063 133.311 76.938 128.454 76.938 126.668C76.3044 127.441 74.9572 129.763 74.0045 130.015C72.6761 130.365 71.401 127.916 70.4095 127.054C70.4095 128.86 71.4431 134.54 68.3256 134.444C65.3532 134.353 66.5165 128.072 66.5287 126.23C66.542 124.213 65.3233 118.257 68.6214 118.309C70.6964 118.341 72.5698 122.705 73.6045 124.251V124.25Z" fill="#BC8E8F"/>
<path d="M75.1023 100.259C78.2043 103.028 77.4355 107.339 73.3686 108.474C72.0846 108.832 68.9903 109.241 67.7185 108.605C65.6612 107.577 66.3824 104.525 66.3758 102.586C66.3669 100.144 66.0301 97.3579 66.4168 94.9402C66.7968 92.5613 67.8703 92.6955 70.1635 92.7066C74.3113 92.7266 79.1272 96.0149 75.1034 100.259H75.1023ZM70.3076 105.313C73.5237 104.22 73.6466 103.135 70.3076 102.177V105.313ZM70.2965 99.2122C72.9886 97.9801 73.4738 97.2714 70.2965 96.0404V99.2122Z" fill="#BC8E8F"/>
<path d="M114.175 102.494H110.445C110.445 104.074 111.293 109.535 108.033 108.719C105.549 108.097 106.626 103.085 106.637 101.294C106.648 99.5505 105.719 93.8101 107.683 92.8364C111.081 91.1529 110.446 97.2248 110.446 98.6245H114.233C114.233 97.023 113.482 91.5821 116.756 92.7898C119.094 93.6515 117.974 98.8341 117.976 100.687C117.978 102.518 119.043 107.553 116.821 108.59C113.452 110.162 114.174 103.95 114.174 102.494H114.175Z" fill="#BC8E8F"/>
<path d="M108.96 129.178C108.834 130.712 109.114 135.773 106.02 134.347C103.918 133.378 104.914 128.921 104.912 127.103C104.912 125.352 103.946 119.789 105.721 118.614C108.866 116.53 108.753 122.063 108.826 123.468C109.928 122.148 113.315 116.482 115.573 118.953C117.44 120.997 112.518 124.822 111.266 126.227C112.479 127.669 117.781 132.057 115.418 134.081C112.986 136.164 110.114 130.655 108.96 129.178Z" fill="#BC8E8F"/>
<path d="M81.478 108.775C76.5148 108.828 82.4252 98.6976 83.3171 96.453C84.0228 94.6774 84.7805 91.7795 87.2566 92.9562C89.3227 93.9377 90.1614 98.2917 90.9169 100.179C91.4487 101.507 94.2925 106.517 93.3509 107.918C91.6957 110.378 90.4804 107.641 89.6174 106.717C88.4885 105.508 86.7736 105.095 85.0985 105.527C83.2373 106.007 82.7953 107.456 81.4791 108.775H81.478ZM87.5867 102.065C87.1602 101.014 86.7813 100.083 86.4035 99.1523C86.2894 99.1779 86.1764 99.2023 86.0623 99.2278C85.7809 100.141 85.4995 101.053 85.1882 102.065H87.5867Z" fill="#BC8E8F"/>
<path d="M96.4595 96.4918C95.0005 96.4918 92.6828 96.5217 92.8446 94.3758C93.0384 91.8106 96.6068 92.5758 98.293 92.5758C99.9293 92.5758 103.49 91.8849 103.83 94.2815C104.136 96.4275 101.912 96.5084 100.406 96.5084C100.406 98.5579 101.929 109.218 98.1955 108.661C95.0149 108.187 96.4595 98.7919 96.4595 96.4918Z" fill="#BC8E8F"/>
<path d="M97.0444 130.722C98.3772 130.722 101.34 130.315 102.005 131.991C102.803 133.998 100.526 134.315 99.2203 134.411C97.7645 134.518 94.9384 134.973 93.7874 133.823C92.4912 132.528 93.2246 128.673 93.2268 127.035C93.2279 125.694 92.2873 115.883 96.2512 118.688C98.3949 120.205 97.0444 128.117 97.0444 130.722Z" fill="#BC8E8F"/>
<path d="M85.4308 126.232C85.4308 124.412 84.2731 117.823 87.5767 118.434C90.2943 118.936 89.1654 125.168 89.1665 127.152C89.1665 129.003 90.2544 134.471 87.2344 134.463C84.2565 134.455 85.4131 128.11 85.4131 126.232C85.4198 126.232 85.4253 126.232 85.4319 126.232H85.4308Z" fill="#BC8E8F"/>
<path d="M168.171 168.032C167.674 169.596 165.089 173.601 163.354 174.211C161.26 174.946 159.453 172.898 160.273 170.971C160.635 170.119 162.051 169.326 162.621 168.489C163.141 167.726 163.389 166.623 164.103 166.024C165.733 164.654 168.315 165.741 168.171 168.034V168.032Z" fill="#BC8E8F"/>
<path d="M152.212 146.098C149.963 146.056 150.063 142.51 152.195 142.411C154.467 142.306 154.735 146.146 152.212 146.098Z" fill="#BC8E8F"/>
<path d="M21.0082 172.133C19.1581 174.234 17.9306 174.932 15.8943 172.65C14.6502 171.256 12.1155 168.368 13.2942 166.495C15.7027 162.67 20.1684 170.186 21.0071 172.133H21.0082Z" fill="#BC8E8F"/>
</g>
<defs>
<clipPath id="clip0_25_930">
<rect width="182" height="183" fill="white"/>
</clipPath>
</defs>
</svg>
