<svg width="37" height="37" viewBox="0 0 37 37" fill="none" xmlns="http://www.w3.org/2000/svg">
<path d="M18.1659 25.7608C22.1339 25.7608 25.3507 22.5439 25.3507 18.5759C25.3507 14.6079 22.1339 11.3911 18.1659 11.3911C14.1978 11.3911 10.9811 14.6079 10.9811 18.5759C10.9811 22.5439 14.1978 25.7608 18.1659 25.7608Z" stroke="white" stroke-width="4" stroke-linecap="round" stroke-linejoin="round"/>
<path d="M2 25.7608V11.3912C2 6.43111 6.02095 2.41016 10.981 2.41016H25.3507C30.3107 2.41016 34.3317 6.43111 34.3317 11.3912V25.7608C34.3317 30.7209 30.3107 34.7419 25.3507 34.7419H10.981C6.02095 34.7419 2 30.7209 2 25.7608Z" stroke="white" stroke-width="4"/>
<path d="M28.045 8.71478L28.0629 8.69482" stroke="white" stroke-width="4" stroke-linecap="round" stroke-linejoin="round"/>
</svg>
