<svg width="137" height="122" viewBox="0 0 137 122" fill="none" xmlns="http://www.w3.org/2000/svg">
<g clip-path="url(#clip0_12_162)">
<path d="M30.8597 40.949C29.8835 39.2896 29.1544 37.329 26.9079 37.4481C25.1725 37.5403 23.5961 38.906 22.9309 40.4794C22.03 42.6116 22.7911 42.4295 24.2065 43.3457C25.8245 44.3926 27.9528 47.1997 28.9188 48.8658C24.5271 50.4257 20.1662 44.9105 21.5299 40.8379C22.2264 38.757 24.0981 36.8783 26.315 36.6168C28.7458 36.3304 31.217 38.3386 30.8591 40.9496L30.8597 40.949Z" fill="white"/>
<path d="M21.2032 34.2005C21.0875 37.4351 16.8496 37.6159 16.4163 34.4252C15.9475 30.972 21.3268 30.7423 21.2032 34.2005Z" fill="white"/>
<path d="M46.7692 16.6592C47.3989 18.6491 47.0566 21.1477 45.1597 22.2978C43.555 23.2708 40.9349 22.8817 40.3426 20.8368C43.2145 22.3656 46.2618 19.4028 46.7698 16.6592H46.7692Z" fill="white"/>
<path d="M13.7776 67.9743C13.7751 67.9255 13.7727 67.8766 13.7703 67.8284C13.7944 67.876 13.7968 67.9249 13.7776 67.9743Z" fill="white"/>
<path d="M112.998 44.6562C112.998 44.6562 107.141 43.1359 104.284 48.2035C101.427 53.2711 100.499 56.094 98.9279 61.8854C98.9279 61.8854 95.2853 75.6393 94.5001 82.5887C93.715 89.538 94.4284 90.4065 95.2142 91.8547C96 93.3022 98.6664 94.7986 101.491 92.9003C104.316 91.002 105.459 88.9107 105.459 88.9107C105.459 88.9107 107.523 86.3046 106.634 82.1868C106.634 82.1868 107.047 87.2061 101.809 91.7099C96.5712 96.2143 100.666 79.2911 100.666 79.2911C100.666 79.2911 107.713 47.1902 112.998 44.6568L112.998 44.6562Z" fill="white"/>
<path d="M98.7544 93.8263C98.3603 93.8263 98.0102 93.7726 97.7149 93.6987C96.6363 93.4293 95.6438 92.7117 95.1871 91.87C95.1491 91.7998 95.1111 91.7308 95.0732 91.6624C94.3477 90.3449 93.7204 89.2071 94.4694 82.5851C95.2461 75.7127 98.8616 62.0144 98.8984 61.8769C100.453 56.1473 101.373 53.3054 104.258 48.1877C105.74 45.559 108.04 44.7308 109.709 44.4987C111.515 44.2471 112.991 44.6221 113.006 44.6257L113.089 44.6477L113.012 44.685C111.813 45.2597 110.42 47.4341 108.871 51.1494C107.629 54.1263 106.287 58.0908 104.88 62.9323C102.486 71.1777 100.715 79.2173 100.697 79.2979C100.668 79.4158 97.8806 91.0479 99.9234 92.3281C100.353 92.5975 100.981 92.3812 101.789 91.6862C104.489 89.3647 105.654 86.9045 106.156 85.2505C106.7 83.4591 106.604 82.2021 106.603 82.1899L106.665 82.1808C107.546 86.2662 105.505 88.9054 105.484 88.9316C105.476 88.9481 104.308 91.0467 101.509 92.9273C100.485 93.6156 99.5353 93.8269 98.7556 93.8269L98.7544 93.8263ZM110.987 44.4749C110.595 44.4749 110.165 44.4987 109.714 44.5616C108.06 44.7919 105.78 45.614 104.311 48.2195C101.43 53.3304 100.511 56.1699 98.9581 61.894C98.9219 62.0315 95.3076 75.7249 94.5309 82.5924C93.7842 89.1943 94.4067 90.3236 95.1274 91.6318C95.1654 91.7002 95.2033 91.7693 95.2413 91.8395C95.6902 92.6665 96.667 93.3725 97.73 93.6376C98.5977 93.8544 99.9517 93.8972 101.474 92.8741C104.259 91.0027 105.42 88.9164 105.432 88.8956C105.455 88.8663 107.365 86.3951 106.671 82.5362C106.663 83.0346 106.592 84.0247 106.214 85.2688C105.71 86.9313 104.54 89.4025 101.828 91.7344C100.997 92.449 100.345 92.6671 99.8897 92.3819C99.0135 91.8328 98.8731 89.4593 99.4727 85.3287C99.918 82.2602 100.628 79.3132 100.635 79.2839C100.653 79.2045 102.425 71.1631 104.819 62.9152C106.226 58.0706 107.57 54.1037 108.812 51.1249C110.334 47.475 111.711 45.3037 112.906 44.6679C112.668 44.6153 111.942 44.4755 110.987 44.4755V44.4749Z" fill="white"/>
<path d="M86.6671 66.9849C86.6671 66.9849 83.7295 65.4036 85.2691 61.2327C86.8087 57.0617 92.1145 56.3007 98.3977 57.9986C104.681 59.6966 112.554 62.1391 119.618 57.8533C119.618 57.8533 120.87 57.132 121.327 56.4711C121.783 55.8102 121.7 54.9985 121.7 54.9985C121.7 54.9985 119.529 57.0648 116.014 57.6389C116.014 57.6389 111.487 59.2141 101.561 56.884C91.6342 54.5539 87.3854 56.6769 85.3366 57.7317C83.2872 58.7865 80.3719 62.5605 81.8048 65.2741C83.2372 67.9884 86.6677 66.9855 86.6677 66.9855L86.6671 66.9849Z" fill="white"/>
<path d="M76.0965 91.7731C76.0965 91.7731 72.2128 84.392 81.1594 74.6209C81.1594 74.6209 87.956 68.1534 91.8403 71.4577C91.8403 71.4577 88.4417 69.2082 83.518 76.5191C83.518 76.5191 80.3279 82.1431 79.9808 90.7892C79.9808 90.7892 79.8187 92.7107 80.6822 92.7107C81.5457 92.7107 83.148 90.1485 83.148 90.1485C83.148 90.1485 84.7201 87.8367 86.5695 80.9943C88.4188 74.1518 90.6381 72.7928 90.6381 72.7928C90.6381 72.7928 91.3896 72.0978 91.8698 71.9377C91.8831 71.9335 91.8963 71.9292 91.9096 71.9255C92.3874 71.793 92.6803 73.9014 92.1253 75.6903L93.736 72.9645C93.736 72.9645 94.3061 72.1992 94.3681 72.7928C94.3681 72.7928 91.4088 81.2282 90.2687 87.2895C89.128 93.3507 90.3923 91.8818 90.3923 91.8818L92.1066 90.1088C92.1066 90.1088 92.6616 89.5933 92.6731 90.2731C92.6731 90.2731 91.4131 92.9562 89.1015 93.9285C86.79 94.9009 85.6571 92.9208 85.4836 92.3118C85.3101 91.7029 85.1022 89.1951 85.1022 89.1951C85.1022 89.1951 83.0564 93.6824 80.1893 94.1747C77.3228 94.667 76.0971 91.7731 76.0971 91.7731H76.0965Z" fill="white"/>
<path d="M62.7456 0.58252C62.7456 0.58252 57.8881 4.95075 52.9626 22.3553C48.037 39.7598 46.395 50.9234 46.874 56.0545L46.9427 56.6787L50.9789 54.4598C50.9789 54.4598 52.5522 45.3068 56.7938 38.0264C61.0354 30.746 62.3045 30.7149 62.8522 30.7149C63.4 30.7149 63.3994 31.8857 63.3994 31.8857C63.3994 31.8857 63.1258 35.1216 61.1801 40.2991C59.2343 45.4766 59.4772 49.3904 59.6296 50.5307C59.7815 51.671 60.9981 54.3523 63.582 54.3523C66.1659 54.3523 68.1122 51.147 68.1122 51.147C68.1122 51.147 68.6636 50.3921 68.572 49.7679C68.481 49.1437 68.0929 49.5944 68.0929 49.5944C68.0929 49.5944 66.7588 52.1138 65.3566 52.6452C63.9544 53.1766 64.7293 49.1669 64.7293 49.1669C64.7293 49.1669 66.3485 41.5628 67.8531 37.4486C69.3584 33.3345 68.7654 31.0691 68.2177 30.0064C67.6705 28.943 65.6181 27.5102 62.7902 28.6193C59.9622 29.7285 54.9915 37.5873 53.4404 42.4875C53.4404 42.4875 56.4052 31.0233 60.008 21.3621C63.6109 11.701 64.7968 5.32149 62.7444 0.58313L62.7456 0.58252Z" fill="white"/>
<path d="M46.918 56.7264L46.8445 56.0576C46.3004 50.2296 48.5203 37.9428 52.9342 22.3467C55.4796 13.3532 58.005 7.90997 59.6754 4.92696C61.4868 1.69293 62.7136 0.570949 62.7257 0.559955L62.7564 0.532471L62.7727 0.570338C63.7772 2.89004 64.0243 5.68982 63.5271 9.13029C63.0637 12.3393 61.9544 16.2293 60.0363 21.372C57.0222 29.4537 54.4281 38.9029 53.6839 41.6856C54.51 39.4282 55.9683 36.6088 57.6121 34.1145C59.5874 31.1174 61.4711 29.1043 62.7799 28.5907C64.3647 27.9689 65.6067 28.1814 66.3701 28.4691C67.368 28.8453 67.9929 29.5025 68.2448 29.9918C68.8763 31.2188 69.3258 33.5104 67.8814 37.4584C66.3942 41.5237 64.7745 49.0967 64.7588 49.173C64.7534 49.2011 64.2183 52.0143 64.8661 52.5707C64.9902 52.6776 65.1475 52.6923 65.3463 52.6171C66.722 52.0955 68.0538 49.6054 68.067 49.5804L68.0706 49.5749C68.0779 49.5663 68.2508 49.3678 68.4081 49.4143C68.5069 49.4436 68.572 49.5615 68.6015 49.7636C68.6937 50.3927 68.1592 51.1336 68.1363 51.1653C68.1182 51.1953 66.1532 54.3829 63.582 54.3829C62.1574 54.3829 61.212 53.5705 60.6703 52.8883C60.0424 52.098 59.6802 51.1372 59.6001 50.535C59.4994 49.7813 59.1023 45.7441 61.1523 40.2887C63.074 35.1754 63.3674 31.9163 63.3699 31.8839C63.3699 31.8754 63.3638 30.7454 62.8522 30.7454C62.3406 30.7454 61.0704 30.7454 56.8197 38.0423C52.6293 45.2354 51.024 54.3743 51.0084 54.4659L51.006 54.4806L50.9933 54.4873L46.918 56.7276V56.7264ZM62.7353 0.633859C62.5365 0.826862 61.3747 2.01542 59.7242 4.963C58.0562 7.94295 55.5338 13.38 52.9915 22.3638C48.5794 37.9531 46.3606 50.2321 46.9042 56.0521L46.9674 56.6311L50.9523 54.4403C51.0259 54.0243 52.6504 45.0796 56.7685 38.0112C61.0366 30.685 62.3087 30.685 62.8522 30.685C63.4229 30.685 63.4295 31.8375 63.4295 31.8864C63.4265 31.9212 63.133 35.1882 61.2078 40.3101C59.1626 45.7515 59.5585 49.7752 59.6585 50.5271C59.7375 51.1207 60.0954 52.0693 60.7167 52.8505C61.2506 53.5217 62.181 54.3224 63.582 54.3224C66.1201 54.3224 68.0676 51.1635 68.0869 51.1317C68.0935 51.122 68.631 50.3774 68.5425 49.7728C68.5172 49.5981 68.4647 49.4943 68.3912 49.4723C68.293 49.4436 68.1628 49.5608 68.1176 49.6121C68.0628 49.7141 66.7413 52.153 65.3668 52.6739C65.1487 52.7564 64.9673 52.7375 64.8269 52.6171C64.1526 52.0381 64.6775 49.2787 64.6998 49.1614C64.716 49.085 66.3364 41.5072 67.8254 37.4383C69.2619 33.5104 68.8178 31.2365 68.1918 30.0205C67.9453 29.541 67.3313 28.8966 66.349 28.5265C65.5958 28.2425 64.3683 28.033 62.8016 28.6481C61.5042 29.1568 59.6308 31.162 57.6621 34.1493C55.8224 36.9405 54.216 40.1391 53.4699 42.4973L53.4127 42.4802C53.4422 42.3654 56.419 30.9042 59.9809 21.3518C63.823 11.0481 64.6232 5.03996 62.7347 0.63508L62.7353 0.633859Z" fill="white"/>
<path d="M74.8202 117.733C73.1071 119.688 70.6015 121.081 67.9736 121.041C66.607 120.99 65.2445 120.729 63.9574 120.258C63.359 120.033 62.7661 119.758 62.2189 119.424C61.3536 118.906 60.5588 118.219 59.9369 117.415L59.8875 117.347L59.7881 117.212L59.6893 117.075C59.5977 116.934 59.5061 116.792 59.4175 116.648L59.2542 116.353C59.2277 116.303 59.1982 116.254 59.1747 116.204C59.1415 116.129 59.0638 115.973 59.03 115.898L58.9939 115.821L58.9758 115.782L58.9601 115.743L58.8354 115.429C58.7541 115.223 58.6878 114.998 58.6203 114.787C58.2889 113.603 58.2009 112.353 58.2901 111.141C58.2961 111.055 58.3124 110.885 58.3244 110.8C58.3316 110.714 58.3588 110.544 58.3726 110.459C59.4494 104.265 66.6992 101.323 72.3111 102.211C72.9811 102.318 73.6542 102.481 74.2996 102.706C74.4689 102.762 74.7347 102.866 74.9052 102.93C75.1354 103.018 75.5693 103.181 75.7826 103.271C76.4755 103.55 77.2499 103.881 77.9338 104.183C81.2649 105.684 84.5147 107.366 87.6873 109.182C87.9735 109.35 88.3863 109.587 88.6858 109.736C97.8933 114.295 110.981 114.309 116.255 103.943C117.153 102.177 117.75 100.251 117.985 98.2776C118.678 92.4387 116.439 86.4647 112.634 82.0244C115.594 84.6184 118.153 87.7852 119.548 91.4907C122.973 100.592 117.338 109.71 109.194 113.67C106.778 114.593 104.224 115.14 101.647 115.298C96.7508 115.586 91.7909 114.551 87.383 112.381C86.5797 111.974 85.4655 111.293 84.6695 110.855C81.0823 108.85 77.4644 106.88 73.6741 105.297C69.0884 103.337 61.576 105.238 60.102 110.521C60.0556 110.688 60.0117 110.881 59.9815 111.052L59.9568 111.187L59.9375 111.322C59.7833 112.496 59.808 113.688 60.1274 114.821C60.1328 114.844 60.14 114.866 60.1472 114.888L60.1689 114.953L60.2551 115.218L60.2659 115.251L60.2786 115.283C60.316 115.374 60.3702 115.514 60.407 115.606C60.4232 115.649 60.4461 115.689 60.4648 115.732L60.5835 115.983C60.6498 116.105 60.7179 116.226 60.7854 116.347C60.8571 116.456 60.9384 116.592 61.0126 116.698C61.0445 116.738 61.1885 116.942 61.2186 116.979C61.3241 117.102 61.4235 117.238 61.5356 117.354C62.14 118.023 62.8842 118.57 63.6784 118.99C64.804 119.586 66.0357 119.958 67.2873 120.163C68.3918 120.356 69.5139 120.298 70.6057 119.993C72.1381 119.567 73.5898 118.756 74.8208 117.732L74.8202 117.733Z" fill="white"/>
<path d="M67.2927 112.726C67.5711 113.22 68.0086 113.626 68.4997 113.888C70.0242 114.668 71.776 114.061 73.2174 113.359C75.2439 112.344 77.0209 110.866 78.716 109.353C80.4514 107.817 82.1923 106.282 83.979 104.791C86.9027 102.365 89.9325 100.009 93.3329 98.2961C93.639 98.1428 94.0187 97.9638 94.332 97.8227C94.6472 97.6865 95.0328 97.5143 95.3522 97.394C95.8837 97.1796 96.476 96.9768 97.0238 96.8076C97.4456 96.6776 97.8758 96.5566 98.3055 96.4571C99.1545 96.2518 100.05 96.0906 100.918 95.9965C103.672 95.6912 107.144 95.748 109.612 97.1381C111.221 98.0194 112.457 99.6966 112.288 101.615C112.234 102.211 112.048 102.811 111.68 103.282L111.641 103.255C111.919 102.753 112.022 102.173 112.008 101.606C111.978 100.195 111.142 98.9295 109.996 98.177C108.957 97.4813 107.734 97.1222 106.511 96.9371C104.98 96.7118 103.417 96.7441 101.881 96.8999C97.5878 97.3085 93.7119 99.0626 90.1663 101.491C85.8825 104.41 82.0651 107.994 78.0362 111.271C77.1095 111.999 76.1495 112.685 75.1312 113.28C73.8452 114.026 72.4503 114.68 70.951 114.809C70.0441 114.887 69.0716 114.717 68.3292 114.162C67.8489 113.804 67.4644 113.302 67.2915 112.727L67.2927 112.726Z" fill="white"/>
<path d="M121.874 76.252C121.453 76.0309 121.082 75.6553 120.819 75.218C120.031 73.8578 120.313 72.1776 120.705 70.7795C121.279 68.811 122.247 67.0392 123.252 65.34C124.271 63.6024 125.288 61.8586 126.265 60.0764C127.854 57.1612 129.375 54.1525 130.346 50.8483C130.432 50.5508 130.531 50.1831 130.607 49.8796C130.679 49.5754 130.772 49.2023 130.831 48.895C130.94 48.3832 131.034 47.8152 131.105 47.2905C131.161 46.8874 131.208 46.4764 131.238 46.0684C131.304 45.261 131.331 44.4132 131.307 43.5972C131.238 41.0057 130.801 37.7741 129.424 35.5827C128.545 34.1516 127.08 33.1317 125.582 33.4389C125.116 33.5354 124.663 33.7559 124.332 34.1358L124.358 34.17C124.723 33.8713 125.171 33.7302 125.62 33.6985C126.74 33.616 127.835 34.2964 128.559 35.3048C129.226 36.2185 129.648 37.3313 129.933 38.4564C130.284 39.8654 130.435 41.3251 130.485 42.769C130.646 46.8031 129.697 50.5533 128.177 54.0481C126.352 58.2698 123.949 62.1091 121.812 66.1206C121.342 67.0416 120.907 67.9902 120.552 68.9857C120.106 70.2427 119.747 71.5943 119.814 73.0021C119.855 73.8536 120.099 74.7471 120.622 75.3951C120.96 75.8147 121.4 76.1336 121.874 76.2502V76.252Z" fill="white"/>
<path d="M88.27 38.1718C88.0862 38.1627 87.9151 38.2665 87.8373 38.4357C87.2733 39.6646 84.8666 44.6723 81.6608 47.9601C77.9844 51.7309 77.3716 51.6864 76.0152 51.6864C74.6588 51.6864 74.0893 48.0046 74.9209 43.8343C75.7524 39.6646 77.8971 34.6514 77.8971 34.6514C77.8971 34.6514 80.2604 28.485 82.7111 29.1062C85.1618 29.7273 83.4113 34.2965 82.7111 35.4942C82.7111 35.4942 79.3409 42.6366 73.87 40.9509L73.6072 41.6606C73.6072 41.6606 76.6274 42.9914 80.6973 40.7731C84.7678 38.5548 86.9124 35.0062 86.4309 31.945C85.9494 28.8839 82.7985 28.0856 80.7853 28.3965C78.772 28.7067 73.4325 31.9896 70.3689 38.2891C67.3054 44.5886 69.5814 49.2017 69.5814 49.2017C69.5814 49.2017 70.763 52.6618 75.5337 52.6618C80.3044 52.6618 84.3309 46.7171 84.3309 46.7171C84.3309 46.7171 87.7277 41.6496 88.6761 38.7753C88.7713 38.487 88.5695 38.1859 88.27 38.1712V38.1718Z" fill="white"/>
<path d="M75.5337 52.6917C73.0601 52.6917 71.5663 51.7462 70.7486 50.9534C69.8622 50.0934 69.5573 49.2206 69.5542 49.2121C69.55 49.2042 68.9824 48.0351 68.798 46.1112C68.6281 44.3369 68.7582 41.5371 70.3436 38.2769C73.3891 32.0146 78.7292 28.6853 80.7816 28.3683C81.9157 28.1937 83.192 28.3848 84.1959 28.8814C85.0775 29.3169 86.1863 30.2019 86.4598 31.9413C86.7009 33.4738 86.2983 35.1167 85.2956 36.6913C84.2694 38.3037 82.684 39.7238 80.7118 40.7987C78.5382 41.9836 76.6503 42.1534 75.3662 42.0557C75.2071 42.6567 75.0649 43.2571 74.9492 43.8398C74.305 47.0689 74.4756 50.2028 75.3541 51.2912C75.55 51.5336 75.7723 51.657 76.0152 51.657H76.1062C77.3776 51.657 78.0561 51.6155 81.6403 47.9392C84.8021 44.6961 87.163 39.8355 87.8114 38.4228C87.894 38.242 88.0766 38.1327 88.2712 38.1419C88.4231 38.1498 88.5586 38.2268 88.6442 38.3538C88.7298 38.4809 88.7515 38.6378 88.7033 38.7844C87.7644 41.6294 84.3887 46.6829 84.3544 46.7336C84.3441 46.7489 83.3276 48.2397 81.7404 49.7111C80.2743 51.0707 78.0067 52.691 75.5337 52.691V52.6917ZM81.6271 28.3641C81.3306 28.3641 81.0486 28.3854 80.7901 28.4257C78.7479 28.7409 73.4313 32.0592 70.3949 38.3025C68.8155 41.5506 68.6853 44.3388 68.8546 46.1057C69.0378 48.0193 69.6012 49.1785 69.6067 49.1895C69.6109 49.2017 69.9128 50.0635 70.7902 50.9137C71.6 51.6985 73.08 52.6336 75.5331 52.6336C77.9862 52.6336 80.2417 51.0218 81.7006 49.6702C83.283 48.2031 84.2965 46.7171 84.3068 46.7024C84.3405 46.6517 87.712 41.6056 88.6484 38.7679C88.6912 38.639 88.6719 38.5004 88.5966 38.3886C88.5213 38.2769 88.4014 38.2091 88.2682 38.2023C88.0946 38.1944 87.9362 38.2909 87.8633 38.4497C87.2143 39.8643 84.8497 44.7327 81.6813 47.982C78.0809 51.6747 77.3939 51.7169 76.1074 51.7169H76.0152C75.7543 51.7169 75.5168 51.5868 75.3096 51.3302C74.4213 50.2296 74.246 47.0756 74.8932 43.8306C75.0089 43.2504 75.1505 42.6524 75.3084 42.0539C74.2436 41.9653 73.6103 41.6953 73.5964 41.6892L73.5717 41.6782L73.8531 40.9172L73.879 40.9252C74.4611 41.1047 75.0203 41.1817 75.5506 41.178C76.5165 37.8249 77.8543 34.6819 77.8712 34.6422C77.8766 34.6275 78.4725 33.0823 79.3614 31.6329C80.5424 29.7059 81.703 28.8234 82.719 29.0805C83.2402 29.2124 83.6078 29.5306 83.8115 30.026C84.4755 31.6384 83.2378 34.6538 82.7364 35.5113C82.7292 35.5272 81.8753 37.3167 80.3635 38.8772C79.4746 39.7946 78.5346 40.4543 77.5711 40.8384C76.9221 41.0974 76.2604 41.2305 75.5928 41.2385C75.5199 41.492 75.4494 41.7473 75.3819 42.0019C76.6557 42.0972 78.528 41.9256 80.6852 40.7505C84.5978 38.6183 86.8961 35.0825 86.4038 31.9529C85.979 29.2527 83.5198 28.3665 81.6271 28.3665V28.3641ZM73.6446 41.6446C73.7724 41.6953 74.3768 41.9177 75.3234 41.9952C75.3909 41.7424 75.4608 41.4889 75.5331 41.2367H75.5307C74.9866 41.2367 74.4382 41.153 73.8881 40.9862L73.6446 41.644V41.6446ZM82.3622 29.0921C80.0863 29.0921 77.9459 34.6037 77.9236 34.6623C77.9061 34.7026 76.5744 37.8328 75.6096 41.1756C77.6151 41.1395 79.2318 39.9589 80.3207 38.8357C81.8265 37.2825 82.6768 35.4997 82.6852 35.482C83.1842 34.6287 84.414 31.639 83.7578 30.0467C83.5614 29.5691 83.2065 29.2625 82.7039 29.1348C82.59 29.1061 82.4755 29.0921 82.3616 29.0921H82.3622Z" fill="white"/>
<path d="M46.3076 73.8834C46.3076 73.8834 48.9614 75.0042 50.8409 70.0728C50.8409 70.0728 53.4947 63.5724 48.5191 63.6848C46.5908 63.7281 44.6463 64.8825 42.9874 66.2799C40.2709 68.5685 38.2378 71.5784 37.0615 74.9541C35.2242 80.2287 32.5271 89.9809 35.2502 95.738C35.2502 95.738 38.5674 101.678 43.543 92.824C43.543 92.824 47.9659 84.8669 43.7641 84.1945L43.8744 83.0737H55.5947V84.3062C55.5947 84.3062 53.6044 82.9613 53.0518 88.0044C52.4992 93.0476 49.4031 104.591 45.7538 109.298C42.1052 114.006 35.1393 122.747 22.8658 120.73C22.8658 120.73 19.2539 119.945 18.0372 116.938C16.8291 113.951 17.6389 108.918 22.0378 109.198C22.068 109.2 22.0981 109.202 22.1282 109.205L22.8471 109.672C22.8471 109.672 18.406 108.925 17.9818 113.725C17.5582 118.526 22.9393 119.889 22.9393 119.889C22.9393 119.889 31.6147 122.565 39.2441 108.822C39.2441 108.822 43.7225 100.584 43.8467 95.6672C43.8467 95.6672 36.8808 104.157 29.4171 94.8267C29.4171 94.8267 24.8561 89.4049 29.9974 76.6288C29.9974 76.6288 36.3553 63.0117 48.3522 63.0117C48.3522 63.0117 56.8662 63.1235 55.7604 71.0812C55.7604 71.0812 53.5489 78.1417 46.3064 73.8828L46.3076 73.8834Z" fill="white"/>
<path d="M71.744 72.5031C71.4903 72.4023 71.2294 72.3223 70.9643 72.2588C64.6618 70.7459 58.6082 78.8148 57.6959 85.3714C57.6959 85.3714 55.6224 96.2981 64.6618 95.9621C64.6618 95.9621 68.2279 96.1301 70.8817 91.6751C72.9558 88.1938 74.2616 84.2158 74.7558 80.1841C75.1101 77.2939 74.8311 73.7338 71.7434 72.5031H71.744ZM72.5298 84.7887C71.8621 87.4407 70.6305 89.9173 68.8896 92.0092C67.5994 93.5588 65.9984 94.9538 64.4136 94.9538C61.9176 94.9538 62.1846 88.8613 62.569 85.2034C62.8143 82.8739 63.3964 80.5921 64.319 78.444C66.9932 72.2203 69.97 72.7633 69.97 72.7633C74.848 72.7633 73.6446 80.3618 72.5304 84.7887H72.5298Z" fill="white"/>
<path d="M66.4726 76.4268C65.4169 79.5954 65.952 83.3712 68.8299 85.319C70.1538 86.2205 71.8079 86.5655 73.3831 86.3609C74.9715 86.1612 76.4647 85.3984 77.594 84.2495L78.2586 84.8969C76.4087 86.9375 73.456 87.8579 70.7962 87.1989C69.0234 86.7866 67.4151 85.6445 66.4582 84.0767C65.0391 81.8015 64.8842 78.6494 66.4732 76.4268H66.4726Z" fill="white"/>
<path d="M59.7423 60.468H57.491V59.644H62.971V60.468H60.7088V67.1461H59.7423V60.468Z" fill="white"/>
<path d="M66.3973 59.6448V62.7835H69.9772V59.6448H70.9438V67.1469H69.9772V63.6294H66.3973V67.1469H65.4416V59.6448H66.3973Z" fill="white"/>
<path d="M78.0814 63.6293H75.2041V66.3338H78.4104V67.1461H74.2484V59.644H78.2453V60.4564H75.2035V62.8274H78.0808V63.6287L78.0814 63.6293Z" fill="white"/>
<path d="M94.7822 41.3937C94.7822 41.3937 94.0783 40.2411 92.1748 40.8391C90.2706 41.4376 89.3703 44.5043 89.3703 44.5043C89.3703 44.5043 88.455 47.9747 90.6689 49.4558C92.8828 50.9369 95.3474 50.4135 95.3474 50.4135C95.3474 50.4135 100.912 49.6354 103.834 44.9386C106.756 40.2411 103.775 36.8306 103.775 36.8306C103.775 36.8306 101.443 34.2873 98.9334 33.031C96.4242 31.7746 96.9852 29.3212 96.9852 29.3212C96.9852 29.3212 98.5495 25.1624 101.383 25.0727C104.217 24.9829 102.682 27.1371 102.682 27.1371C102.682 27.1371 101.029 30.0394 102.712 31.0863C104.394 32.1332 105.605 29.8 105.605 29.8C105.605 29.8 106.844 27.4663 104.571 25.7011C100.332 22.4091 94.2121 26.8622 93.1775 31.3263C92.1446 35.7843 95.0371 38.0582 95.0371 38.0582L97.7234 40.7212C97.7234 40.7212 100.321 43.5937 99.1401 45.7778C99.1401 45.7778 97.6348 49.3379 94.0042 49.0387C94.0042 49.0387 89.5469 48.1708 91.3179 43.1747C91.3179 43.1747 92.3122 40.5435 94.7816 41.3955L94.7822 41.3937Z" fill="white"/>
<path d="M51.5754 51.3432C51.3049 52.3986 51.1777 53.5004 51.0626 54.5827C51.0168 55.0939 50.9632 55.6473 51.0295 56.1408C51.1205 56.9006 51.6309 57.1168 52.3257 57.0618C53.0994 56.9965 53.8303 56.7057 54.5751 56.4193C55.0578 56.2312 55.5242 56.0137 55.937 55.7084C56.2714 55.4567 56.5619 55.1733 56.7197 54.7922C56.8228 54.5674 56.9017 54.2456 56.8559 54.0507C56.8059 53.7808 56.5739 53.633 56.3256 53.5395C55.9906 53.4161 55.658 53.3886 55.2868 53.4076C54.7878 53.4332 54.2696 53.5377 53.7592 53.6775C51.6803 54.2749 49.7207 55.2759 47.8237 56.3252C47.3742 56.5763 46.8958 56.8578 46.4559 57.129C46.3829 57.1797 46.2576 57.2359 46.1443 57.2316L46.4113 57.1565C41.5363 60.2012 36.8645 63.6062 32.4951 67.3539C31.9558 67.826 31.4183 68.3006 30.9013 68.7978C29.0736 70.5232 27.5358 72.5235 26.0233 74.5262C23.4804 77.8225 21.2864 81.4413 20.1264 85.4608C19.8528 86.413 19.6263 87.4049 19.4877 88.3846C19.2539 90.0721 19.1569 91.7621 19.5082 93.3996C19.6389 94.0373 19.8083 94.6511 20.0095 95.2606C20.3626 96.3154 20.7477 97.3287 21.3201 98.2864C22.9182 101.038 26.1559 102.488 29.2628 103.016C29.9823 103.141 30.7054 103.232 31.4358 103.27C30.7711 103.617 30.0601 103.883 29.3297 104.1C27.3352 104.685 25.2056 104.845 23.146 104.466C18.8507 103.718 15.1243 100.407 13.9975 96.1065C13.3377 93.7166 13.3166 91.527 13.8752 89.145C14.2765 87.466 14.9158 85.837 15.6534 84.2851C16.8038 81.8102 18.2463 79.4716 19.9667 77.376C20.5476 76.6572 21.2087 75.9133 21.8384 75.2377C23.1171 73.8879 24.418 72.5974 25.7727 71.3319C27.0037 70.194 28.6578 68.8088 29.9281 67.699C32.662 65.2803 35.5978 63.1103 38.5722 61.0153C40.9458 59.3333 43.3821 57.7441 45.8756 56.255L46.1425 56.1799C46.0551 56.1738 45.9304 56.2165 45.8792 56.2532L45.8852 56.2495L45.8967 56.2422L45.9196 56.2281C46.1907 56.0657 46.351 55.9771 46.6029 55.8317C48.8084 54.5992 51.0717 53.4345 53.517 52.7565C54.6607 52.4676 56.04 52.2044 57.1138 52.9043C57.9815 53.5016 57.9038 54.5497 57.4446 55.3901C57.053 56.0925 56.3829 56.5647 55.7002 56.922C54.9144 57.3006 54.1389 57.5926 53.2808 57.8271C52.3016 58.0867 51.0476 58.138 50.4203 57.1467C50.0967 56.6233 50.0623 55.9447 50.081 55.359C50.0997 54.7781 50.1648 54.2193 50.2263 53.6494L50.2733 53.2317C50.2889 53.0936 50.3064 52.9477 50.3251 52.806C50.401 52.2367 50.5046 51.6712 50.6342 51.1111L51.5742 51.3438L51.5754 51.3432Z" fill="white"/>
<path d="M93.0702 8.56341C94.602 7.52998 96.8008 7.50677 98.4561 8.39361C100.841 9.6347 102.296 12.3593 102.24 15.0504C102.158 19.5438 98.6351 23.5975 94.3573 24.5711C90.9888 25.3785 87.0317 23.793 86.3821 20.0526C86.1001 18.2569 86.652 16.1748 88.2609 15.1842C90.0139 14.1568 92.1404 14.8885 93.2684 16.4747C96.2169 20.4496 92.1006 28.0952 87.5191 28.6199C90.1705 27.2316 92.3633 23.2537 92.6158 20.3012C92.6924 19.2953 92.5291 18.3015 91.918 17.5081C91.4974 16.9688 90.9467 16.5743 90.2941 16.4924C89.7059 16.41 89.1021 16.6213 88.7309 17.105C88.1163 17.8819 87.9584 19.123 88.2248 20.0886C88.5815 21.3981 89.686 22.3497 90.9581 22.7333C95.4269 24.0495 100.327 19.9091 100.78 15.4132C101.116 12.421 99.275 9.63775 96.4272 8.77168C95.3486 8.42659 94.2139 8.40277 93.0696 8.56341H93.0702Z" fill="white"/>
<path d="M92.2899 24.0558C92.2899 24.0558 85.4427 22.7677 87.6029 17.2512C87.6029 17.2512 88.6828 14.1246 90.8985 16.0199C93.1142 17.9145 93.9699 18.5613 93.5432 20.2788C93.1166 21.9963 92.2899 24.0558 92.2899 24.0558Z" fill="white"/>
<path d="M137 82.0262C130.698 82.6144 130.227 83.0908 129.647 89.4795C129.066 83.0914 128.596 82.6144 122.293 82.0262C128.596 81.4381 129.066 80.9617 129.647 74.573C130.227 80.961 130.697 81.4381 137 82.0262Z" fill="white"/>
<path d="M129.647 19.1004C123.344 19.6886 122.874 20.165 122.293 26.5537C121.713 20.1656 121.243 19.6886 114.94 19.1004C121.242 18.5123 121.713 18.0359 122.293 11.6472C122.874 18.0353 123.344 18.5123 129.647 19.1004Z" fill="white"/>
<path d="M14.7061 8.08702C8.40367 8.67519 7.93305 9.15159 7.35276 15.5402C6.77247 9.1522 6.30245 8.67519 -0.000610352 8.08702C6.30245 7.49885 6.77307 7.02245 7.35336 0.633789C7.93366 7.02184 8.40367 7.49885 14.7067 8.08702H14.7061Z" fill="white"/>
<path d="M42.1847 10.9615C41.0681 10.9938 39.9389 11.2204 38.8512 11.5325C36.5921 12.1806 35.094 12.7376 32.8603 14.4087C31.2025 15.6485 23.8648 21.9083 28.1324 30.2258C29.4864 32.8643 32.1805 34.5549 34.4583 36.3243C37.7822 38.9067 39.8322 42.7851 38.5993 47.0983C35.7569 57.0392 22.8356 55.8769 16.4856 50.4246C12.6525 47.1331 10.0023 41.9947 9.81853 36.8832C9.62329 31.4693 12.1246 26.3908 15.4431 22.2925C18.4072 18.6321 22.2559 15.891 26.2836 13.5267C30.1209 11.2742 37.1091 9.18597 38.8241 8.79691C40.8427 8.33883 42.8216 7.89419 44.8915 7.73233C46.2425 7.62667 47.699 7.4129 49.0506 7.5998H49.0482C47.6791 7.23272 46.2666 7.06354 44.8505 7.09408C43.5652 7.12156 42.2865 7.16737 40.9867 7.30968C35.1145 7.95343 28.9254 8.94471 23.5256 11.4764C21.7389 12.3143 20.0318 13.3215 18.3933 14.4282C16.2933 15.8476 14.8471 17.1724 13.4714 18.4178C11.9637 19.7834 6.74774 24.9493 6.53141 32.4765C6.36811 38.1719 8.40908 42.2769 9.18099 43.725C12.9243 50.7403 20.4879 55.883 28.4204 56.1157C36.2372 56.3454 44.022 50.8778 45.5049 42.8852C46.1786 39.2511 45.2085 35.8088 42.6161 33.1844C39.9075 30.442 34.4921 28.9383 32.9362 25.2749C31.9076 22.8507 32.8151 20.0363 34.0962 17.9023C34.9663 16.4535 36.1721 15.2741 37.6707 14.5107C39.7991 13.4265 42.8988 13.0986 45.1964 13.8394C46.8511 14.3726 48.7734 16.3973 47.7773 18.3573C48.9066 16.1347 48.6529 13.6709 46.5522 12.1848C45.2091 11.2351 43.7074 10.9187 42.1835 10.9633L42.1847 10.9615Z" fill="white"/>
</g>
<defs>
<clipPath id="clip0_12_162">
<rect width="137" height="120.509" fill="white" transform="translate(0 0.532471)"/>
</clipPath>
</defs>
</svg>
