<svg width="188" height="185" viewBox="0 0 188 185" fill="none" xmlns="http://www.w3.org/2000/svg">
<path d="M66.0194 87.5254C73.5814 88.3477 80.2275 91.1748 86.6258 94.7059C90.1291 96.6394 93.61 98.5963 97.5795 99.491C106.303 101.457 114.876 97.5353 120.104 90.6449C121.389 88.9513 121.233 87.7475 119.44 86.6284C117.936 85.6902 116.21 85.1044 114.571 84.3893C113.938 84.1126 113.246 83.9609 112.625 83.6608C110.604 82.6823 109.643 80.7578 110.178 78.8555C110.742 76.844 112.709 75.4416 114.906 75.8622C119.038 76.6521 122.942 78.0645 126.046 81.088C127.982 82.9735 128.929 85.2885 128.929 88.0041C128.928 103.992 128.937 119.98 128.942 135.968C128.942 136.453 128.942 136.939 128.942 137.608C129.425 137.608 129.816 137.608 130.206 137.608C141.247 137.598 152.288 137.549 163.327 137.624C164.875 137.634 165.68 137.058 166.442 135.858C171.683 127.598 175.355 118.704 177.495 109.161C179.526 100.104 179.8 91.0041 178.865 81.7686C177.786 71.1172 174.69 61.1565 169.702 51.7514C162.97 39.0606 153.716 28.6079 141.776 20.5627C133.532 15.0078 124.598 11.0115 114.982 8.52016C114.43 8.37736 113.874 8.22451 113.347 8.00807C111.229 7.13673 110.271 5.15306 110.913 3.02436C111.538 0.948087 113.637 -0.333821 115.8 0.195008C126.885 2.90832 137.27 7.29069 146.696 13.7393C166.99 27.6205 179.74 46.7442 185.517 70.5404C187.806 79.9712 188.403 89.6006 187.501 99.2579C185.871 116.7 179.793 132.434 169.171 146.436C161.357 156.736 152.04 165.302 140.82 171.714C131.011 177.319 120.465 180.933 109.318 182.804C102.271 183.987 95.1719 184.335 88.0595 183.942C78.7514 183.429 69.7256 181.48 60.9609 178.24C42.289 171.336 27.5643 159.49 16.3027 143.143C8.47405 131.78 3.42674 119.311 1.2244 105.737C0.436737 100.878 -0.0552747 95.903 0.0049717 90.9907C0.208024 74.4297 4.34382 58.866 12.6969 44.4939C18.3132 34.8311 25.266 26.2739 33.9069 19.1492C44.3028 10.5808 56.1133 4.71683 69.0194 0.98602C70.0369 0.691482 71.06 0.414795 72.0875 0.159306C74.4985 -0.440926 76.4777 0.682557 77.2397 3.06452C77.8366 4.92992 76.7332 7.0564 74.6134 7.83068C72.816 8.48669 70.9495 8.95416 69.1209 9.52761C55.9158 13.6701 44.1767 20.3653 34.3398 30.1218C21.6066 42.7524 13.1666 57.7794 9.91773 75.5453C8.83553 81.4651 8.27434 87.4496 8.49636 93.4619C9.07316 109.108 13.4131 123.602 22.0585 136.739C22.5014 137.412 22.9722 137.617 23.7487 137.615C34.4213 137.591 45.0938 137.6 55.7663 137.601C56.9274 137.601 57.5064 137.034 57.5034 135.9C57.4744 120.485 57.557 105.068 57.3584 89.6553C57.2859 84.0356 59.7649 80.403 64.6404 78.1806C66.6341 77.2724 68.7427 76.5796 70.8525 75.9738C73.1931 75.3021 75.4423 76.5517 76.1642 78.7161C76.8302 80.7143 75.8083 82.7771 73.5513 83.7243C72.2013 84.2911 70.7576 84.6303 69.3865 85.1513C68.1425 85.6232 66.8952 86.142 66.0194 87.5254ZM65.8966 96.144C65.8732 96.5836 65.8442 96.8647 65.8442 97.1448C65.8442 121.516 65.8498 145.886 65.833 170.257C65.833 170.99 66.0327 171.364 66.7602 171.567C68.6423 172.09 70.4854 172.768 72.3798 173.235C81.3576 175.444 90.4504 176.362 99.6993 175.713C106.317 175.247 112.767 173.952 119.132 172.148C120.131 171.865 120.617 171.455 120.609 170.234C120.53 158.254 120.547 146.272 120.522 134.291C120.502 124.151 120.465 114.009 120.435 103.869C120.434 103.379 120.435 102.888 120.435 102.253C119.579 102.819 118.937 103.252 118.286 103.674C113.042 107.072 107.348 108.903 101.045 108.666C96.128 108.481 91.5984 106.905 87.2372 104.794C83.6738 103.069 80.2141 101.128 76.6417 99.4219C73.2813 97.8175 69.7479 96.6829 65.8955 96.1463L65.8966 96.144ZM129 152.683C129.381 152.706 129.66 152.738 129.939 152.739C137.174 152.754 144.409 152.777 151.644 152.753C152.109 152.752 152.675 152.493 153.02 152.17C154.451 150.83 155.829 149.432 157.198 148.026C157.719 147.491 158.159 146.877 158.791 146.112H129V152.684V152.683ZM57.3517 146.106H28.7971C30.85 148.215 32.6273 150.116 34.5027 151.914C34.9691 152.362 35.7489 152.708 36.3893 152.714C42.9651 152.778 49.5409 152.763 56.1166 152.763C56.5428 152.763 56.969 152.711 57.3517 152.685V146.106ZM128.988 168.206C133.521 166.397 137.675 164.236 141.807 161.454H128.988V168.206ZM46.4605 161.351C49.8321 163.871 53.4781 165.901 57.4599 167.656C57.4599 165.678 57.4499 163.965 57.4644 162.251C57.47 161.577 57.191 161.333 56.5049 161.338C53.1568 161.365 49.8075 161.351 46.4594 161.351H46.4605Z" fill="#BC8F8F"/>
<path d="M97.5126 76.6298C97.5126 80.1698 97.5371 83.682 97.5037 87.193C97.4836 89.3396 95.8804 91.0465 93.6312 91.4337C92.0268 91.7093 90.0454 90.501 89.4173 88.7237C89.1529 87.974 89.0859 87.125 89.077 86.3206C89.0402 83.0974 89.0614 79.8731 89.0614 76.6053C85.2904 75.6837 81.8831 74.1441 79.0571 71.5557C72.9979 66.0086 70.0503 59.2075 70.7197 50.8923C71.2173 44.7126 73.8213 39.3686 76.8994 34.1684C79.5 29.7749 82.1654 25.4171 84.6444 20.9555C87.4369 15.9305 89.1439 10.5719 89.2153 4.73694C89.2488 1.98123 91.4723 0.268671 94.0763 0.716056C95.9004 1.02956 97.4278 2.56361 97.4133 4.71463C97.3564 13.206 101.187 20.2705 105.313 27.2814C108.127 32.0609 111.131 36.778 113.404 41.8141C117.528 50.947 116.743 59.8668 110.794 68.1016C107.789 72.2597 103.666 74.8737 98.751 76.2683C98.365 76.3777 97.9812 76.4915 97.5115 76.6287L97.5126 76.6298ZM89.116 67.8841C89.116 67.0216 89.1183 66.4593 89.116 65.897C89.0971 60.582 89.0814 55.2658 89.0558 49.9507C89.048 48.3073 89.5177 46.8625 90.8799 45.8674C92.2076 44.8978 93.6836 44.7684 95.1596 45.5148C96.8298 46.3594 97.5137 47.8209 97.5159 49.635C97.5226 55.0326 97.5182 60.4302 97.5182 65.8279C97.5182 66.427 97.5182 67.0261 97.5182 67.8272C98.2478 67.5047 98.8246 67.3173 99.3334 67.0149C104.669 63.8353 107.267 59.0624 107.367 52.9173C107.432 48.9321 106.219 45.2504 104.229 41.8487C101.776 37.6538 99.1426 33.5626 96.706 29.3587C95.4118 27.1263 94.3664 24.7499 93.2106 22.4416C92.2243 24.4542 91.3552 26.5316 90.2295 28.4595C87.7393 32.7236 85.0494 36.8717 82.5715 41.1425C79.9519 45.6587 78.4692 50.4818 79.3695 55.7868C80.3357 61.479 83.6291 65.328 89.1138 67.8829L89.116 67.8841Z" fill="#BC8F8F"/>
<path d="M141.929 63.1558C141.924 59.9706 144.733 57.1959 147.997 57.1624C151.394 57.1278 154.227 59.9817 154.2 63.4113C154.174 66.6412 151.307 69.4069 147.979 69.4114C144.653 69.4159 141.933 66.6044 141.929 63.1558Z" fill="#BC8F8F"/>
<path d="M42.8323 39.6787C42.8267 36.1632 45.5523 33.5481 49.2106 33.557C52.4037 33.5648 55.1025 36.2904 55.1125 39.5158C55.1226 42.8216 52.3021 45.5829 48.8949 45.6052C45.6126 45.6264 42.8379 42.9131 42.8334 39.6787H42.8323Z" fill="#BC8F8F"/>
<path d="M41.8327 76.8329C41.8327 79.8876 39 82.6533 35.8738 82.65C32.7466 82.6467 30.0835 79.9077 30.0924 76.7046C30.1014 73.6008 32.7589 70.941 35.8817 70.9109C39.0758 70.8808 41.8327 73.6231 41.8327 76.8318V76.8329Z" fill="#BC8F8F"/>
<path d="M134.347 28.1638C137.18 28.1404 139.465 30.3729 139.437 33.1397C139.411 35.8251 137.129 38.0219 134.352 38.0353C131.816 38.0487 129.464 35.737 129.454 33.2212C129.443 30.4532 131.635 28.1861 134.347 28.1638Z" fill="#BC8F8F"/>
<path d="M30.049 62.5355C28.0709 62.5053 26.3851 60.7058 26.4163 58.6574C26.4476 56.6023 28.2282 54.8195 30.262 54.8072C32.2937 54.7949 34.033 56.6023 34.0129 58.7076C33.9929 60.8263 32.1877 62.57 30.049 62.5366V62.5355Z" fill="#BC8F8F"/>
<path d="M35.4511 122.689C33.4529 122.67 31.9099 121.098 31.9099 119.079C31.9099 116.911 33.4674 115.293 35.5526 115.296C37.6434 115.298 39.2622 116.93 39.2644 119.039C39.2667 121.068 37.5519 122.709 35.4511 122.689Z" fill="#BC8F8F"/>
<path d="M155.683 95.8071C155.657 97.7752 153.825 99.4721 151.791 99.4119C149.867 99.355 148.308 97.658 148.35 95.6665C148.393 93.7007 150.155 91.9904 152.092 92.035C154.048 92.0797 155.708 93.8246 155.683 95.8071Z" fill="#BC8F8F"/>
</svg>
