<svg width="186" height="183" viewBox="0 0 186 183" fill="none" xmlns="http://www.w3.org/2000/svg">
<g clip-path="url(#clip0_25_1001)">
<path d="M93.7181 24.1415C131.094 24.0994 163.072 54.324 162.345 93.8656C161.654 131.504 132.096 163.096 91.5451 162.343C52.4539 161.618 23.9542 129.053 24.341 92.1022C24.7221 55.7735 54.6469 24.3711 93.7181 24.1415ZM152.112 105.911C140.615 106.459 130.098 107.99 119.541 112.855C114.489 115.182 109.746 118.067 105.091 121.098C102.436 122.827 99.8138 124.607 97.1909 126.385C95.2473 127.702 93.0576 129.804 90.7117 130.325C85.5845 131.466 84.5174 125.598 87.7398 122.763C91.1672 119.747 95.4423 117.25 99.2675 114.785C107.842 109.26 116.96 104.551 126.691 101.43C131.525 99.8799 136.485 98.7198 141.511 98.0089C144.042 97.6507 146.59 97.4056 149.143 97.2759C149.924 97.2359 152.709 97.6274 153.422 96.9188C154.559 95.7898 153.748 91.1806 153.67 89.7378C153.52 87.0006 153.179 84.278 152.701 81.5797C152.346 79.5756 152.524 78.1594 150.581 77.5827C148.547 76.9794 144.749 77.8999 142.61 78.0807C132.544 78.9335 122.649 82.163 113.566 86.4938C109.126 88.6099 105.06 91.388 100.675 93.575C97.6297 95.0944 93.0986 94.2127 93.8366 89.8154C94.5159 85.7685 102.344 82.9582 105.565 81.278C109.587 79.1786 113.725 77.2999 117.966 75.684C127.898 71.9011 138.185 69.9725 148.733 68.9078C144.033 56.8393 134.694 46.8213 123.53 40.4255C101.733 27.9389 73.896 30.6416 54.6369 46.7127C40.0308 58.901 30.2827 79.1964 33.1782 98.4448C43.8948 94.1617 53.4967 89.2986 62.8924 82.529C67.4579 79.2385 71.9435 75.8371 76.4359 72.4479C79.2948 70.2908 85.0326 64.8975 87.6434 70.4926C89.8064 75.1273 82.0629 78.6951 79.2305 80.7978C74.4878 84.319 69.7639 87.8779 64.9203 91.2593C55.2763 97.9901 45.2844 102.717 34.2719 106.724C35.7767 113.574 38.4329 119.95 42.39 125.839C51.7902 122.409 60.2617 117.583 68.6225 112.143C72.8045 109.421 76.9489 106.643 81.1043 103.881C83.9367 101.998 88.9565 98.2663 91.0874 103.227C92.8737 107.386 87.6267 109.724 84.8986 111.597C80.7819 114.423 76.6475 117.22 72.4156 119.871C64.3651 124.915 56.0221 129.147 47.2779 132.844C62.3572 150.747 87.8461 158.181 110.21 151.554C130.876 145.431 148.47 127.483 152.112 105.913V105.911Z" fill="#BC8E8F"/>
<path d="M153.701 27.7958C153.405 31.5266 151.584 35.0633 147.416 35.1221C143.225 35.182 141.564 31.3314 141.047 27.7204C136.496 28.0697 132.1 24.7825 133.183 19.7974C133.976 16.1454 137.805 15.1672 141.052 14.8201C141.646 11.2523 143.115 7.71889 147.209 7.60134C151.506 7.47823 153.25 11.0061 153.787 14.789C157.625 15.3213 161.616 16.9117 161.516 21.3944C161.419 25.7807 157.581 27.4675 153.701 27.7958ZM147.251 18.2259C143.213 18.2071 143.374 24.4077 147.293 24.492C151.38 24.5796 151.282 18.2448 147.251 18.2259Z" fill="#BC8E8F"/>
<path d="M35.5097 27.7681C31.3875 27.503 27.3462 25.7285 27.6254 20.9785C27.8847 16.5657 31.7543 15.0529 35.6681 14.8622C35.5673 10.4671 38.5592 6.91815 43.2975 7.78985C46.797 8.43421 47.73 11.8101 48.1766 14.9321C52.5115 14.5461 56.6182 17.5549 55.909 22.2717C55.3262 26.1489 51.5176 27.5418 48.0458 27.7891C48.2785 31.9569 45.1193 35.5901 40.668 34.9879C37.0887 34.5043 35.7335 30.9621 35.5108 27.7669L35.5097 27.7681ZM41.8359 24.4875C45.7287 24.4687 45.9238 18.7494 42.1584 18.2924C37.8334 17.7679 37.5785 24.5086 41.8359 24.4875Z" fill="#BC8E8F"/>
<path d="M93.943 13.5103C89.0496 20.23 77.9739 16.9528 78.2698 8.34885C78.559 -0.0887074 89.3454 -2.91232 94.0261 3.8517C98.4719 -3.09863 109.384 -0.0332555 109.774 8.18138C109.944 11.7869 107.673 15.4079 104.288 16.7398C100.511 18.2259 96.6756 16.0433 93.9441 13.5103H93.943ZM86.7535 12.1329C91.0021 12.1462 91.4697 5.84464 87.2688 5.24798C82.5139 4.57258 82.1449 12.1185 86.7535 12.1329ZM101.269 5.16702C96.5371 5.11046 97.028 12.4966 101.602 12.0952C105.844 11.7225 105.474 5.21693 101.269 5.16702Z" fill="#BC8E8F"/>
<path d="M177.034 136.592C177.094 150.745 154.764 150.723 155.269 136.41C155.753 122.647 176.975 122.637 177.034 136.592ZM160.596 136.657C160.555 143.916 172.125 143.722 171.663 136.481C171.227 129.658 160.635 129.727 160.596 136.657Z" fill="#BC8E8F"/>
<path d="M12.9184 109.297C26.7068 109.588 26.5849 130.731 12.7168 130.975C-1.49486 131.225 -1.15578 108.999 12.9184 109.297ZM18.1676 120.358C18.1831 113.224 7.08198 113.192 7.15401 120.276C7.22493 127.142 18.1521 127.373 18.1676 120.358Z" fill="#BC8E8F"/>
<path d="M167.717 59.776C156.203 59.8614 156.829 42.2133 168.055 42.1956C179.416 42.1778 179.309 59.6895 167.717 59.776ZM167.799 54.6345C172.252 54.6645 172.738 48.1023 168.35 47.5012C163.424 46.8258 162.879 54.6013 167.799 54.6345Z" fill="#BC8E8F"/>
<path d="M13.4249 85.7474C13.1412 94.4988 -0.244901 94.1994 0.00331809 85.4502C0.252645 76.6688 13.7085 77.0248 13.4249 85.7474ZM8.55689 85.9492C8.61451 83.5193 4.84137 83.099 4.78264 85.682C4.72834 88.0764 8.49816 88.3991 8.55689 85.9492Z" fill="#BC8E8F"/>
<path d="M136.557 170.353C133.066 170.313 125.362 166.9 126.9 162.055C127.83 159.124 130.628 160.694 131.967 162.072C133.465 163.616 134.572 164.771 136.927 164.679C138.91 164.6 140.07 163.673 141.291 162.25C142.558 160.773 144.196 159.119 145.968 161.297C149.904 166.133 139.73 170.397 136.558 170.353H136.557Z" fill="#BC8E8F"/>
<path d="M47.3909 170.37C43.804 170.359 36.6876 167.111 37.7802 162.453C39.1177 156.751 44.327 164.287 46.6917 164.671C48.7628 165.007 50.3574 164.091 51.8179 162.73C53.2562 161.39 55.5323 158.763 57.1258 161.785C58.225 163.869 55.8415 166.775 54.3355 168.043C52.3963 169.678 49.8897 170.328 47.3909 170.371V170.37Z" fill="#BC8E8F"/>
<path d="M97.1566 175.463C97.3006 167.357 109.728 167.082 110.092 175.146C110.473 183.598 97.0025 184.084 97.1566 175.463ZM105.368 175.444C105.373 173.237 101.965 173.242 101.841 175.329C101.708 177.565 105.361 177.79 105.368 175.444Z" fill="#BC8E8F"/>
<path d="M20.6631 153.484C17.1626 153.523 10.3986 150.503 11.2286 145.903C11.8115 142.677 14.953 143.949 16.4478 145.464C17.946 146.982 18.889 148.063 21.2803 147.882C23.6439 147.704 24.2545 146.418 25.7627 144.967C27.303 143.484 29.7142 143.198 30.4744 145.774C31.8961 150.596 24.0384 153.483 20.662 153.483L20.6631 153.484Z" fill="#BC8E8F"/>
<path d="M22.5724 62.9379C22.6466 70.72 10.2911 70.5514 10.5759 62.6673C10.8485 55.1048 22.5004 55.3876 22.5724 62.9379ZM18.1477 62.4C17.065 61.6636 13.9856 60.8917 15.4627 63.4003C16.4777 65.1238 17.9482 63.8817 18.1477 62.4Z" fill="#BC8E8F"/>
<path d="M170.802 78.2348C170.972 70.5725 182.679 70.8065 182.519 78.41C182.365 85.7685 170.636 85.7308 170.802 78.2348ZM178.602 78.3435C176.94 77.0492 176.93 76.6478 175.216 78.1538C176.734 79.8717 176.735 79.5523 178.602 78.3435Z" fill="#BC8E8F"/>
<path d="M180.08 104.831C180.08 106.407 180.808 110.602 178.128 110.599C175.554 110.595 176.261 106.356 176.261 104.831C174.593 104.831 170.638 105.644 170.549 102.965C170.46 100.246 174.668 101.045 176.294 101.045C176.294 99.5239 175.892 94.4312 178.991 95.8008C181.071 96.7202 179.135 99.7379 180.462 100.932C181.722 102.068 184.182 100.142 185.413 101.738C187.984 105.07 181.367 104.83 180.08 104.83V104.831Z" fill="#BC8E8F"/>
<path d="M24.0362 46.1925C22.4716 46.1925 18.2009 47.0343 18.2408 44.366C18.2795 41.8141 22.517 42.6791 24.0373 42.6791C24.0373 41.0577 23.378 36.6792 26.2968 37.2992C29.0649 37.8858 26.8531 41.2629 28.072 42.617C29.6145 42.617 34.3927 41.8651 33.7456 44.763C33.1383 47.4801 29.2909 45.282 27.8216 46.4509C27.8216 48.0457 28.5208 52.0971 25.8258 52.0327C23.2605 51.9717 24.0362 47.7541 24.0362 46.1914V46.1925Z" fill="#BC8E8F"/>
<path d="M64.1789 4.17665C69.2031 4.21658 68.4906 12.205 63.5462 11.5517C59.0594 10.9584 59.5802 4.14116 64.1789 4.17665Z" fill="#BC8E8F"/>
<path d="M124.692 4.16663C129.244 4.11339 129.602 11.0438 125.097 11.555C120.14 12.1184 119.678 4.2243 124.692 4.16663Z" fill="#BC8E8F"/>
<path d="M61.5294 177.525C61.4884 173.105 68.1161 172.718 68.576 177.084C69.0779 181.852 61.576 182.465 61.5294 177.525Z" fill="#BC8E8F"/>
<path d="M123.986 173.944C129.233 173.977 127.942 182.157 123.027 180.992C119.084 180.057 119.897 173.917 123.986 173.944Z" fill="#BC8E8F"/>
<path d="M151.629 157.53C147.269 157.499 147.574 150.599 151.973 150.764C156.367 150.928 156.014 157.561 151.629 157.53Z" fill="#BC8E8F"/>
<path d="M31.618 154.001C31.6368 149.691 38.2024 149.789 38.2888 153.996C38.3786 158.354 31.598 158.54 31.618 154.001Z" fill="#BC8E8F"/>
<path d="M16.9287 99.2033C16.8789 103.288 10.4396 103.136 10.4961 99.0082C10.5537 94.8138 16.9808 95.0001 16.9287 99.2033Z" fill="#BC8E8F"/>
<path d="M169.631 118.376C165.679 118.267 165.954 111.988 169.902 112.133C173.945 112.28 173.744 118.491 169.631 118.376Z" fill="#BC8E8F"/>
<path d="M120.509 17.7823C120.46 21.3412 114.941 21.2658 115.131 17.6337C115.311 14.2123 120.556 14.3132 120.509 17.7823Z" fill="#BC8E8F"/>
<path d="M75.1881 17.2954C75.1327 20.6492 69.9633 20.5693 69.9378 17.1823C69.9112 13.6356 75.2479 13.6977 75.1881 17.2954Z" fill="#BC8E8F"/>
<path d="M168.75 90.3965C168.744 86.9508 173.912 87.0239 173.892 90.3666C173.873 93.5983 168.755 93.8456 168.75 90.3965Z" fill="#BC8E8F"/>
<path d="M23.0977 137.383C19.996 137.416 19.9595 132.501 23.0567 132.349C26.4364 132.183 26.5373 137.346 23.0977 137.383Z" fill="#BC8E8F"/>
<path d="M84.3589 180.459C84.3766 177.236 89.2878 177.31 89.3044 180.502C89.321 183.823 84.3411 183.856 84.3589 180.459Z" fill="#BC8E8F"/>
<path d="M0.896468 65.6927C0.858792 62.1571 6.22209 62.5585 5.75225 65.9722C5.34889 68.9033 0.929712 68.7703 0.896468 65.6927Z" fill="#BC8E8F"/>
<path d="M160.02 33.3299C160.045 29.8065 165.378 30.4342 164.827 33.7957C164.338 36.7735 159.999 36.4341 160.02 33.3299Z" fill="#BC8E8F"/>
<path d="M78.7995 169.231C78.8305 172.032 74.4833 172.057 74.4745 169.251C74.4656 166.444 78.7684 166.393 78.7995 169.231Z" fill="#BC8E8F"/>
<path d="M168.822 67.4749C168.774 70.0545 164.773 70.079 164.805 67.4516C164.837 64.831 168.871 64.8554 168.822 67.4749Z" fill="#BC8E8F"/>
<path d="M48.6797 158.327C46.0811 158.282 46.5676 153.908 49.2293 154.49C51.4976 154.987 50.9291 158.366 48.6797 158.327Z" fill="#BC8E8F"/>
<path d="M74.377 57.6799C73.9758 61.6902 66.7232 64.5193 63.5972 66.2761C61.8962 67.232 60.2684 68.1415 58.3502 67.221C56.6349 66.3981 55.7384 64.3885 56.1661 62.5575C57.0194 58.9098 63.6914 56.1051 66.6922 54.4038C69.817 52.6338 74.5399 52.9177 74.377 57.6788V57.6799Z" fill="#BC8E8F"/>
<path d="M108.466 67.1811C108.514 73.5769 98.5905 73.8076 98.524 67.2654C98.4586 60.7986 108.417 60.5568 108.466 67.1811Z" fill="#BC8E8F"/>
<path d="M83.4425 53.6586C78.2221 53.5843 78.7684 45.485 83.7749 45.6668C88.8368 45.8509 88.6806 53.734 83.4425 53.6586Z" fill="#BC8E8F"/>
</g>
<defs>
<clipPath id="clip0_25_1001">
<rect width="186" height="183" fill="white"/>
</clipPath>
</defs>
</svg>
