<svg width="185" height="183" viewBox="0 0 185 183" fill="none" xmlns="http://www.w3.org/2000/svg">
<path d="M0.000921562 91.2226C0.224599 54.0278 24.0131 19.8341 58.6122 6.30946C95.3319 -8.04365 137.81 2.6075 163.113 33.0105C189.02 64.1389 191.53 108.864 168.63 142.416C147.913 172.768 110.053 188.679 73.8445 181.145C31.9569 172.429 -0.198395 134.394 0.000921562 91.2226ZM36.3785 94.421C36.3785 89.1454 35.6709 83.3695 37.0406 78.2181C37.6773 75.8225 38.8024 73.7298 40.3482 71.8012C41.9394 69.8138 43.2948 68.8955 42.7898 66.1196C38.6451 65.4686 35.8713 62.1016 35.9145 57.9228C35.9588 53.5953 39.325 51.1621 43.122 49.9222C43.5373 45.3663 45.4208 41.5468 50.3173 40.7682C51.2597 40.6185 52.8398 41.0078 53.6448 40.4688C54.5141 39.8865 54.916 38.0012 55.7078 37.1783C57.7242 35.0811 60.2644 35.0334 62.9906 35.0334C64.4877 30.3322 68.3356 26.5349 73.6208 28.4391C74.8953 28.8982 75.6649 29.9141 76.7999 30.4831C77.9781 31.0742 78.7444 30.8091 80.0488 30.9433C82.6366 31.2084 84.5965 32.7876 85.9054 34.978C88.6183 29.9862 96.0583 29.9441 99.0204 34.6918C100.594 32.2819 102.636 31.2272 105.423 30.9222C107.868 30.655 108.817 29.1045 111.143 28.3604C116.571 26.6247 119.904 30.4187 121.84 34.917C126.545 34.2748 129.649 36.3332 131.233 40.7438C137.153 39.7246 141.6 44.1674 141.582 49.9632C150.828 52.1879 150.55 63.1651 142.03 66.1107C140.982 68.9011 143.053 70.2463 144.565 72.186C146.009 74.037 147.01 76.0122 147.519 78.3145C148.645 83.4106 148.121 89.1764 148.121 94.3733H177.717C178.874 76.2018 172.972 57.8717 162.524 43.0928C139.993 11.2191 96.4891 -3.26482 60.3197 12.6609C43.8849 19.8973 28.8399 31.7529 19.1874 47.0343C10.2536 61.1778 6.44218 77.7955 6.53076 94.421H36.3785ZM51.9141 66.3248C51.9141 67.3928 51.9695 68.3432 51.8842 69.2804C51.8532 69.6197 51.5476 70.1321 51.2608 70.2197C46.0708 71.8101 41.8331 77.3353 41.9748 84.0028C42.1177 90.7634 42.0158 97.5296 42.0125 104.293C42.0069 115.459 41.9959 126.626 41.9837 137.793C41.9782 142.651 43.9093 146.485 48.0108 149.14C50.4657 150.729 53.2562 151.044 56.0854 151.052C62.3395 151.068 68.5936 151.026 74.8466 151.019C92.8383 151.001 110.831 150.986 128.823 150.972C131.148 150.97 133.458 150.805 135.57 149.733C140.499 147.229 142.613 143.031 142.619 137.642C142.639 119.575 142.685 101.509 142.625 83.4416C142.608 78.1471 140.276 73.8662 135.598 71.362C133.444 70.2086 132.295 69.0852 132.825 66.6397C132.838 66.5765 132.744 66.49 132.646 66.3226H51.9152L51.9141 66.3248ZM158.316 145.227C158.262 145.087 158.208 144.947 158.152 144.809C154.803 144.809 151.452 144.835 148.103 144.791C147.21 144.779 146.875 145.209 146.524 145.939C143.768 151.678 139.258 155.304 132.997 156.347C130.176 156.817 127.226 156.557 124.335 156.563C101.677 156.615 79.019 156.563 56.3622 156.739C48.6663 156.798 42.5827 154.054 38.7559 147.388C37.5046 145.209 36.2722 144.66 34.0719 144.787C31.5661 144.931 29.0458 144.82 26.5322 144.82C26.4835 144.963 26.4359 145.105 26.3871 145.248C43.5007 164.932 64.9815 175.979 91.2459 176.343C118.423 176.719 140.602 165.561 158.315 145.228L158.316 145.227ZM64.986 43.1593C62.3517 38.6799 57.361 40.2936 58.0818 45.4849C56.0123 45.1134 54.6115 45.9685 53.6991 47.683C51.2918 45.5859 47.9643 46.248 48.3574 50.0409H136.388C136.581 46.9832 133.463 44.8484 131.156 47.4513C129.62 46.1138 128.806 45.6535 126.727 45.2609C127.154 43.3146 126.761 40.9723 124.672 40.2193C122.316 39.3697 120.904 41.417 119.857 43.258C118.484 42.4828 117.111 41.7076 115.498 40.7982C115.036 38.7686 118.393 38.2607 117.236 35.517C116.407 33.554 113.758 32.73 112.017 33.9843C111.093 34.6497 111.22 35.6755 110.63 36.3654C109.495 37.6918 110.643 37.613 108.821 37.1262C106.663 36.5495 105.284 34.6109 103.449 37.4844C106.259 38.8906 108.816 41.0987 108.485 44.5833C108.249 47.0598 105.818 49.1292 103.35 47.7551C105.448 44.4269 102.092 40.9978 98.7059 42.8177C97.7503 42.088 96.9043 41.4414 96.0196 40.766C96.1049 35.1332 89.2605 35.3195 89.1387 40.8436C88.1831 41.58 87.3139 42.2499 86.438 42.9264C82.8027 40.7361 79.535 44.2672 81.8083 47.8405C79.1474 48.9374 76.7014 46.9333 76.6095 44.2595C76.4965 40.9778 78.7986 39.1435 81.2912 37.5908C79.5494 34.449 77.729 36.7768 75.604 37.155C74.1213 37.4189 75.3394 37.8082 74.1324 36.6748C73.5665 36.1447 73.6706 34.8937 72.9442 34.2427C71.1559 32.639 68.1772 33.4752 67.37 35.6811C66.5373 37.9568 68.4131 39.0193 69.3311 40.8314C67.7044 41.702 66.4244 42.3874 64.986 43.1582V43.1593ZM133.232 55.7324C119.093 55.7324 104.953 55.7324 90.8141 55.7313C78.2516 55.7313 65.688 55.7413 53.1255 55.7302C50.1878 55.728 46.5259 55.1302 43.6602 55.7557C41.5242 56.2226 40.2629 58.597 42.3735 60.2007C44.1263 61.5327 48.0186 60.773 50.0704 60.7741C53.0801 60.7741 56.0898 60.7752 59.0995 60.7763C83.8103 60.7818 108.52 60.7907 133.231 60.7907V55.7313L133.232 55.7324ZM148.202 105.77H176.724C176.98 103.858 177.233 101.966 177.496 100.003H148.202V105.77ZM36.2733 100.015H6.92497C7.20844 101.704 6.98476 104.963 8.6701 105.814C10.5093 106.741 14.7769 105.852 16.9417 105.851C23.3088 105.849 29.9383 106.391 36.2733 105.759V100.015ZM148.2 116.859C156.632 116.859 164.957 116.865 173.281 116.837C173.555 116.837 173.999 116.561 174.071 116.323C174.579 114.659 175.011 112.97 175.495 111.184H148.199V116.86L148.2 116.859ZM9.00229 111.164C9.3821 112.471 9.68218 115.598 10.8283 116.546C12.2766 117.744 16.4545 116.861 18.193 116.856C24.2157 116.836 30.2373 116.856 36.26 116.856V111.164H9.00229ZM36.2467 122.371H12.5889C13.1913 123.663 14.1856 127.177 15.5222 127.948C17.0879 128.851 20.133 128.177 21.9158 128.164C26.6828 128.131 31.4863 128.286 36.2456 128.008V122.371H36.2467ZM148.236 127.938C148.441 128.001 148.566 128.074 148.692 128.074C155.342 128.08 161.99 128.087 168.64 128.068C168.958 128.068 169.459 127.929 169.569 127.705C170.408 125.981 171.171 124.219 172.005 122.362H148.236V127.938ZM166.685 133.486C162.331 133.486 157.977 133.48 153.623 133.493C152.442 133.497 149.219 132.961 148.364 133.965C147.591 134.871 148.189 138.302 148.189 139.422C152.166 139.422 156.145 139.431 160.122 139.41C163.958 139.39 164.725 136.493 166.685 133.486ZM18.131 133.54C20.0201 136.438 20.8904 139.149 24.5689 139.405C28.3648 139.667 32.4497 139.632 36.2411 139.332V133.541H18.131V133.54ZM138.418 60.6432C140.18 60.6831 142.918 60.9504 143.149 58.4163C143.388 55.8023 140.266 55.3908 138.418 56.0429V60.6421V60.6432Z" fill="#BC8E8F"/>
<path d="M92.3311 24.8736C91.5338 21.338 89.4166 19.3362 85.8145 18.6053C89.3945 17.7614 91.6889 15.7873 92.2447 11.9167C93.0719 15.5244 95.0385 17.8334 98.7768 18.5011C95.3729 19.426 93.1073 21.3347 92.33 24.8736H92.3311Z" fill="#BC8E8F"/>
<path d="M20.2714 75.7649C21.0687 79.3027 22.9733 81.5308 26.6086 82.3836C23.0098 83.1511 21.0798 85.3248 20.318 88.7716C19.4609 85.541 17.9948 83.0512 14.2321 82.5222C17.6394 81.5075 19.8429 79.4835 20.2714 75.7649Z" fill="#BC8E8F"/>
<path d="M170.141 82.2326C166.448 83.9805 165.883 83.4737 163.952 89.0665C163.176 85.4544 161.52 83.0134 157.716 82.4356C161.28 81.565 163.35 79.5277 163.932 75.8435C164.744 79.2704 166.49 81.6737 170.14 82.2326H170.141Z" fill="#BC8E8F"/>
<path d="M30.5883 62.0595C27.1246 62.9678 25.2145 65.1227 24.4981 68.5884C23.7373 65.2691 22.1351 62.837 18.4001 62.2459C21.9435 61.4473 23.8857 59.3801 24.394 55.7502C25.3341 59.0119 26.8445 61.5549 30.5894 62.0595H30.5883Z" fill="#BC8E8F"/>
<path d="M159.903 68.5229C159.149 65.157 157.435 62.8801 153.813 62.2335C157.338 61.4517 159.32 59.3711 159.84 55.7612C160.744 59.024 162.317 61.4849 165.985 62.055C162.575 62.9977 160.598 65.107 159.903 68.5229Z" fill="#BC8E8F"/>
<path d="M53.3957 29.1244C53.2838 32.2985 48.2256 32.11 48.4017 28.8372C48.5766 25.5811 53.5075 25.9404 53.3957 29.1244Z" fill="#BC8E8F"/>
<path d="M131.176 28.9703C131.261 26.0835 135.547 25.7042 136.055 28.5844C136.649 31.9658 131.071 32.5392 131.176 28.9703Z" fill="#BC8E8F"/>
<path d="M33.6312 46.4575C33.6567 49.5872 28.9218 49.7358 28.8443 46.5595C28.7679 43.4188 33.6068 43.3511 33.6312 46.4575Z" fill="#BC8E8F"/>
<path d="M43.648 37.4667C43.5993 40.6618 38.7182 40.766 38.8732 37.4988C39.0128 34.5488 43.6945 34.48 43.648 37.4667Z" fill="#BC8E8F"/>
<path d="M143.218 35.1919C146.318 35.1221 146.335 39.8809 143.317 39.9719C140.259 40.0639 140.169 35.2607 143.218 35.1919Z" fill="#BC8E8F"/>
<path d="M150.862 46.453C150.924 43.2768 155.767 43.5141 155.579 46.6305C155.395 49.6681 150.802 49.5794 150.862 46.453Z" fill="#BC8E8F"/>
<path d="M74.1556 21.9624C71.1991 22.0489 71.1681 17.3255 74.1069 17.2346C77.1886 17.1392 77.1985 21.8737 74.1556 21.9624Z" fill="#BC8E8F"/>
<path d="M107.912 19.5947C107.921 16.6324 112.514 16.6103 112.529 19.5547C112.544 22.5846 107.903 22.7277 107.912 19.5947Z" fill="#BC8E8F"/>
<path d="M59.4627 22.9106C59.4915 19.8486 64.1189 20.056 64.0481 23.0082C63.9772 25.9638 59.4339 25.9771 59.4627 22.9106Z" fill="#BC8E8F"/>
<path d="M125.05 22.905C125.082 25.9183 120.541 26.0125 120.501 23.0071C120.462 20.0082 125.017 19.9018 125.05 22.905Z" fill="#BC8E8F"/>
<path d="M133.329 122.939C126.125 124.441 119.877 124.966 112.769 122.521C106.237 120.274 100.003 116.814 93.2779 115.194C86.3571 113.527 79.3445 114.193 72.5866 116.217C65.3813 118.375 58.7861 120.304 51.2984 121.173V127.216C58.5115 126.226 65.0657 121.921 72.3385 120.751C76.0458 120.154 90.0899 119.654 90.008 125.824C89.9615 129.332 86.4933 128.255 84.3883 127.495C80.6689 126.15 76.9992 125.661 73.0572 126.235C69.6522 126.729 66.4742 127.996 63.2585 129.159C61.4392 129.818 59.6166 130.466 57.784 131.087C56.1828 131.629 53.3215 131.899 52.0591 133.009C50.3162 134.54 51.0271 138.266 52.6161 139.781C55.0899 142.138 60.2721 141.087 63.3826 141.086C65.3414 141.086 70.4893 140.826 69.2115 144.496C68.2293 147.315 62.7204 146.381 60.5168 146.413C54.4576 146.499 47.5801 146.305 46.2623 138.921C45.6589 135.542 46.1184 131.739 46.1151 128.316C46.1118 124.006 46.1095 119.696 46.1084 115.385C46.1073 107.017 46.1095 98.6509 46.1162 90.2833C46.1217 83.9385 46.0431 77.1113 53.162 74.5705C56.4474 73.3971 60.3142 73.8263 63.738 73.8241C67.7908 73.823 71.8436 73.8208 75.8963 73.8197C84.0019 73.8174 92.1085 73.8174 100.214 73.8197C108.573 73.8219 116.932 73.8263 125.291 73.8341C130.956 73.8396 136.22 75.4533 137.965 81.5097C138.907 84.7791 138.44 88.4789 138.428 91.8403C138.412 96.119 138.398 100.397 138.388 104.675C138.37 112.729 138.368 120.782 138.405 128.835C138.435 135.202 139.431 143.542 131.789 145.98C128.238 147.113 123.778 146.383 120.104 146.377C115.802 146.37 111.487 146.472 107.187 146.364C105.567 146.323 103.525 146.442 102.875 144.564C102.487 143.441 102.913 142.204 103.874 141.549C105.4 140.511 108.304 141.091 110.042 141.089C112.19 141.087 114.338 141.087 116.486 141.086C120.513 141.085 125.083 141.681 129.044 140.925C133.015 140.168 133.24 137.407 133.24 133.818C127.663 134.984 122.493 135.962 116.812 134.753C114.392 134.239 103.821 132.19 106.983 127.834C108.354 125.946 110.945 127.153 112.695 127.684C115.782 128.62 118.748 129.647 122.002 129.799C124.665 129.925 127.325 129.559 129.889 128.852C133.699 127.803 133.325 126.719 133.325 122.938L133.329 122.939ZM85.7758 108.295C91.1551 109.267 96.1358 110.169 101.295 112.066C106.312 113.91 111.239 116.337 116.402 117.733C120.518 118.846 128.278 119.953 132.135 117.349C134.054 116.054 133.349 113.706 133.351 111.531C133.351 109.023 133.394 106.523 133.259 104.016C119.899 99.3352 107.582 89.7509 92.7242 92.488C85.6385 93.7933 79.3157 97.4775 72.6286 99.9729C65.4588 102.648 58.7507 102.69 51.2641 101.77V115.723C55.9436 115.054 60.6419 114.655 65.1089 113.001C69.4063 111.409 73.344 109.002 77.2882 106.702C85.1435 102.126 93.4849 98.1219 102.835 99.3219C106.611 99.8065 112.681 101.128 115.31 104.167C118.167 107.47 114.369 109.451 111.338 108.109C107.231 106.291 103.66 104.609 99.0425 104.608C94.3741 104.608 89.8529 106.085 85.7747 108.294L85.7758 108.295ZM132.93 98.398C133.062 98.2583 133.193 98.1186 133.324 97.9788C133.502 93.9176 133.677 89.5912 133.308 85.5377C133.087 83.1 132.203 80.9762 129.893 79.8827C127.144 78.5807 123.239 79.2251 120.321 79.2262C116.307 79.2262 112.293 79.2273 108.278 79.2284C93.475 79.2306 78.6724 79.2495 63.8698 79.2373C59.0397 79.2328 52.4246 78.2203 51.3494 84.452C50.8666 87.2467 50.9009 91.2304 51.2198 94.0384C51.5542 96.9763 54.4133 96.6336 57.083 96.8421C70.8005 97.9112 81.8105 87.758 95.271 86.6257C109.219 85.4523 120.78 92.702 132.929 98.398H132.93Z" fill="#BC8E8F"/>
<path d="M83.7129 137.384C83.632 140.476 78.9481 140.312 79.1585 137.184C79.3512 134.314 83.7893 134.458 83.7129 137.384Z" fill="#BC8E8F"/>
<path d="M97.0859 137.54C94.1604 137.557 94.2811 132.948 97.1424 132.922C100.119 132.897 100.093 137.524 97.0859 137.54Z" fill="#BC8E8F"/>
<path d="M95.1459 166.339C95.1625 169.986 89.4167 169.971 89.4432 166.252C89.4687 162.564 95.1293 162.611 95.1459 166.339Z" fill="#BC8E8F"/>
<path d="M75.1522 167.212C72.1757 167.111 72.4271 162.427 75.3792 162.507C78.5029 162.592 78.3158 167.32 75.1522 167.212Z" fill="#BC8E8F"/>
<path d="M111.573 164.821C111.564 167.979 106.762 167.848 106.851 164.724C106.937 161.775 111.581 161.852 111.573 164.821Z" fill="#BC8E8F"/>
<path d="M61.9552 108.002C61.9419 110.964 57.3344 110.856 57.444 107.903C57.5503 105.033 61.9685 105.125 61.9552 108.002Z" fill="#BC8E8F"/>
<path d="M123.656 112.936C123.725 115.818 119.223 115.905 119.107 113.061C118.988 110.148 123.585 109.933 123.656 112.936Z" fill="#BC8E8F"/>
<path d="M60.0285 87.962C60.1016 90.9154 55.5705 91.0451 55.4376 88.1095C55.3025 85.1362 59.9554 84.971 60.0285 87.962Z" fill="#BC8E8F"/>
<path d="M124.767 87.7047C124.928 84.7535 129.456 84.9986 129.311 87.881C129.164 90.8 124.597 90.7867 124.767 87.7047Z" fill="#BC8E8F"/>
</svg>
