<svg width="180" height="183" viewBox="0 0 180 183" fill="none" xmlns="http://www.w3.org/2000/svg">
<g clip-path="url(#clip0_25_1065)">
<path d="M171.837 72.6915C169.069 58.471 162.434 46.4595 153.489 35.4925C151.495 37.2102 143.607 46.3841 141.015 41.2354C139.013 37.2612 147.396 33.2891 149.179 30.7154C134.249 15.9349 116.26 7.90536 95.1702 5.94705C95.1702 10.3882 95.188 14.8293 95.1724 19.2715C95.168 20.5878 94.487 23.4732 95.3935 24.5333C96.2534 25.5379 98.5607 25.5568 99.795 25.9149C106.973 27.9963 113.57 32.85 117.704 39.0687C119.686 42.0505 120.134 45.4038 121.726 48.4388C123.024 50.9139 126.599 51.2044 128.474 53.6152C130.319 55.986 131.062 59.4668 130.271 62.3699C129.17 66.4152 125.794 67.9144 122.322 69.5522C122.463 74.9137 119.324 79.2595 113.828 79.9282C106.391 80.833 98.3141 79.9559 90.8176 79.9514C83.0145 79.9481 75.0537 80.4615 67.2673 80.0335C61.1194 79.6953 57.5401 75.3861 57.5401 69.4347C50.9368 67.9964 47.1296 60.8363 50.639 54.7717C51.3156 53.603 52.231 52.5872 53.323 51.7932C54.475 50.956 56.3403 50.7365 57.3412 49.8227C58.5021 48.7637 58.5877 46.7555 59.0665 45.3262C59.6719 43.5198 60.4762 41.7966 61.4572 40.162C65.3176 33.726 72.0164 28.4898 79.1597 26.1944C80.3606 25.8085 83.7444 25.7375 84.6254 24.8304C85.4419 23.9888 84.8009 20.5191 84.802 19.4224C84.8053 14.9568 84.8042 10.4913 84.8042 6.02579C63.8001 7.96414 45.8499 16.0624 30.6403 30.8495C32.9165 32.8378 41.6617 38.2248 38.3589 41.8476C35.195 45.3195 28.8906 37.5927 26.5621 35.6433C23.1749 39.3614 20.2143 43.4244 17.8114 47.8423C15.1629 52.7092 13.4832 58.4156 10.4771 63.0419C8.07527 66.7378 4.06597 64.7906 5.13245 60.579C6.41112 55.5302 8.94179 50.6544 11.4725 46.129C20.7697 29.5 35.2561 16.0613 52.6009 8.11162C89.8878 -8.97758 134.689 1.57911 160.16 33.8003C166.776 42.1691 172.06 51.6114 175.372 61.7589C177.104 67.065 178.656 72.8046 178.959 78.409C179.067 80.3872 178.912 82.7736 176.44 83.0763C173.791 83.4001 173.247 80.8508 172.791 78.8503C169.085 78.8503 165.378 78.847 161.672 78.8425C159.13 78.8392 153.856 79.9148 153.443 76.1856C152.801 70.3783 168.379 72.6959 171.835 72.6959L171.837 72.6915ZM115.603 49.6398C114.334 38.6185 100.432 29.5632 86.7872 30.6854C76.5179 31.5304 63.9767 42.1403 64.3733 49.6398H115.603ZM89.9978 63.0042C89.9978 62.9909 89.9978 62.9787 89.9978 62.9654C96.8533 62.9654 103.71 62.9709 110.565 62.9565C113.845 62.9498 124.665 65.0723 124.444 59.5489C124.216 53.8613 113.924 55.8862 110.363 55.8851C103.575 55.8851 96.7877 55.8829 90 55.8829C83.2123 55.8829 76.4246 55.8829 69.6369 55.8862C66.1886 55.8873 54.8372 53.8647 55.3649 59.9647C55.807 65.08 66.513 63.0031 69.8379 63.0042C76.5579 63.0042 83.2767 63.0042 89.9967 63.0042H89.9978ZM116.288 69.2805H63.5512C63.3146 72.1781 64.8144 73.8447 67.5561 73.8503C71.3421 73.8569 75.127 73.8425 78.913 73.8403C90.1289 73.8348 101.345 73.8459 112.561 73.8148C115.148 73.8082 116.611 72.0206 116.288 69.2805Z" fill="#BC8E8F"/>
<path d="M6.89215 78.9235C5.22577 92.9156 6.27781 107.252 11.1336 120.545C13.3233 126.537 16.2228 132.257 19.6666 137.626C20.9564 139.637 22.7283 143.699 25.2667 143.929C26.0911 144.004 29.3483 143.661 30.0415 143.292C31.4323 142.552 31.3701 141.747 31.9945 140.235C34.0563 135.24 38.2989 131.301 43.4258 129.575C46.0076 128.705 48.4594 129.2 50.9645 128.663C53.4452 128.132 54.4117 125.068 56.2314 123.293C64.961 114.775 78.0565 118.01 84.4687 127.286C88.2592 127.286 93.6161 128.492 96.38 125.728C98.6385 123.468 100.485 121.412 103.482 120.049C109.002 117.539 115.628 117.834 120.782 121.085C122.142 121.943 123.382 122.993 124.465 124.18C125.374 125.176 126.32 127.461 127.385 128.187C128.698 129.083 130.62 128.536 132.146 128.686C133.941 128.865 135.711 129.303 137.384 129.975C140.699 131.307 143.636 133.564 145.755 136.439C146.875 137.958 147.503 139.531 148.304 141.214C149.343 143.395 149.268 143.157 151.844 143.457C153.109 143.604 154.894 144.391 156.065 143.735C157.482 142.942 158.876 139.675 159.815 138.256C162.565 134.099 165.069 129.832 167.09 125.271C170.863 116.755 173.031 107.622 173.522 98.327C173.653 95.8419 172.707 89.3749 176.623 89.0355C181.231 88.6352 179.826 95.8031 179.718 98.3835C179.336 107.516 177.375 116.501 173.998 124.998C160.856 158.072 129.234 181.382 93.4816 182.925C60.7651 184.336 28.3251 165.912 12.1368 137.585C2.44958 120.639 -1.39531 101.268 0.447704 81.8987C0.715435 79.0821 0.292175 71.5793 4.23594 71.1136C6.03785 70.9006 7.73867 72.4808 9.55502 72.676C12.1523 72.9565 14.9074 72.7059 17.5259 72.7004C19.5711 72.6971 22.8005 72.0705 24.3913 73.7361C25.8422 75.2553 25.4234 77.1759 23.6981 78.1883C21.5874 79.4269 17.9114 78.8492 15.5595 78.8559C12.6811 78.8636 9.76165 78.694 6.89326 78.9235H6.89215ZM150.973 149.797C148.681 149.797 143.34 150.909 141.943 148.684C141.101 147.342 142.034 146.112 142.223 144.855C142.491 143.07 142.118 142.091 141.046 140.514C139.166 137.746 136.33 135.628 133.029 134.885C131.228 134.479 129.374 134.517 127.58 134.914C126.07 135.248 124.269 136.569 122.74 136.471C121.342 136.38 120.317 135.474 120.109 134.052C119.892 132.564 121.252 131.786 121.209 130.51C121.132 128.256 117.321 126.108 115.559 125.431C111.155 123.738 103.757 124.55 101.515 129.365C106.905 131.695 111.277 135.696 113.87 140.975C115.309 143.904 114.811 145.121 118.166 145.102C121.552 145.084 124.683 145.813 127.66 147.457C130.011 148.754 134.025 151.481 134.373 154.458C134.747 157.651 131.452 158.451 129.309 156.758C126.985 154.923 125.578 152.858 122.589 151.893C119.357 150.851 116.161 151.301 112.934 152.032C110.162 152.661 107.379 151.847 108.405 148.343C108.98 146.378 109.73 146.443 108.822 144.279C108.295 143.021 107.546 141.871 106.707 140.801C103.823 137.123 99.6428 134.62 95.1069 133.557C86.1007 131.444 72.9529 135.758 70.9389 146.004C76.8867 147.925 82.0447 152.702 83.9944 158.686C84.8598 161.343 85.4075 164.985 84.5532 167.721C83.7822 170.189 80.8971 171.669 79.2141 169.035C77.8332 166.872 79.1141 163.23 78.2598 160.679C77.3455 157.95 75.4447 155.544 73.1218 153.865C68.927 150.833 63.1924 150.258 58.4732 152.387C53.5208 154.621 49.4004 160.479 52.4843 165.849C55.266 170.692 63.7679 172.509 68.7159 173.89C82.6724 177.788 96.69 177.048 110.754 174.269C110.813 174.114 110.871 173.96 110.93 173.806C107.389 171.92 105.879 167.733 106.415 163.92C106.834 160.937 109.638 155.491 113.505 157.503C117.567 159.617 112.218 162.453 112.245 165.1C112.291 169.551 117.852 167.755 118.565 171.724C131.106 167.001 141.699 159.656 150.975 149.799L150.973 149.797ZM78.5631 129.378C74.0483 125.23 68.4948 122.806 62.5992 126.171C60.2751 127.498 58.4632 129.259 59.0487 131.793C59.6986 134.607 59.182 137.231 55.4971 136.121C49.3015 134.256 42.7648 134.239 38.8133 140.345C38.0045 141.596 37.4224 142.784 37.5202 144.261C37.6324 145.946 39.4587 147.616 37.5535 149.171C35.6772 150.702 31.3612 149.531 29.0483 149.822C33.9608 155.227 39.4354 159.567 45.371 163.485C46.3253 158.989 45.9654 155.625 49.1759 151.8C51.9877 148.451 55.8237 146.218 60.1229 145.416C62.1159 145.045 63.849 145.501 65.1365 143.909C66.4952 142.23 66.9862 139.516 68.2449 137.677C70.7944 133.95 74.5038 131.271 78.5631 129.376V129.378Z" fill="#BC8E8F"/>
<path d="M34.3563 94.4513C34.4141 106.13 16.1028 105.293 17.2081 93.7006C18.2224 83.0707 34.303 83.8269 34.3563 94.4513ZM28.4073 94.5622C28.4007 91.0958 23.0927 90.9693 23.1038 94.4679C23.1138 97.7325 28.414 97.8024 28.4073 94.5622Z" fill="#BC8E8F"/>
<path d="M162.858 94.3459C163.078 105.682 145.179 105.611 145.629 94.2328C146.057 83.4288 162.646 83.4011 162.858 94.3459ZM156.911 94.5755C156.938 91.4872 152.359 90.8895 151.71 93.9622C150.945 97.5883 156.878 98.0519 156.911 94.5755Z" fill="#BC8E8F"/>
<path d="M121.519 116.402C118.637 116.42 118.368 113.118 117.876 110.992C117.131 107.776 116.398 104.557 115.646 101.342C114.932 98.2903 110.299 87.0372 115.129 86.0714C117.817 85.5336 118.354 87.9388 118.834 89.9026C119.665 93.3014 120.435 96.7168 121.233 100.123C121.933 103.105 127.126 116.366 121.519 116.401V116.402Z" fill="#BC8E8F"/>
<path d="M55.6215 112.993C57.0457 106.476 58.521 99.9737 60.0207 93.4744C60.4729 91.5161 60.5695 87.5596 62.6425 86.3886C64.671 85.2442 66.5863 86.8222 66.8584 88.8026C67.2395 91.5793 65.3898 95.8585 64.781 98.5266C64.0189 101.869 63.2468 105.209 62.4914 108.552C61.9804 110.818 61.7682 115.038 59.4375 116.231C57.1712 117.392 55.5782 115.105 55.6204 112.994L55.6215 112.993Z" fill="#BC8E8F"/>
<path d="M73.2573 114.712C68.0771 114.762 71.6976 104.327 72.1698 101.656C72.7474 98.3868 73.3351 95.12 73.9206 91.8532C74.3061 89.703 74.2894 86.4141 77.07 86.0836C82.6924 85.4138 78.8975 96.383 78.4576 98.8614C77.9032 101.985 77.3344 105.107 76.7878 108.232C76.399 110.454 76.4412 114.681 73.2573 114.712Z" fill="#BC8E8F"/>
<path d="M146.315 111.769C146.322 114.153 145.324 118.248 142.413 118.599C138.974 119.012 139.485 115.73 139.881 113.59C140.279 111.443 140.289 109.154 138.572 107.551C136.689 105.791 134.532 106.455 132.284 106.056C129.946 105.641 128.2 103.356 130.252 101.288C132.047 99.478 135.564 99.7297 137.765 100.331C142.831 101.716 146.482 106.497 146.316 111.77L146.315 111.769Z" fill="#BC8E8F"/>
<path d="M33.7131 111.489C33.5164 106.322 37.1202 101.988 41.9483 100.468C43.6591 99.9292 45.8232 99.5966 47.5929 100.129C49.9447 100.837 51.801 103.737 49.327 105.538C47.3085 107.007 44.259 105.478 42.025 107.029C39.9431 108.474 39.5698 110.766 40.0042 113.124C40.4019 115.285 41.2418 119.064 37.4591 118.594C34.4685 118.223 33.6664 113.848 33.7131 111.488V111.489Z" fill="#BC8E8F"/>
<path d="M27.9863 56.475C25.2479 58.4178 27.0587 60.3384 26.3466 62.7879C25.6978 65.0224 23.5993 65.7309 21.7263 64.2062C17.1904 60.5169 21.6418 54.3792 24.6257 51.6901C25.5189 50.885 29.1716 46.4472 30.4625 46.9573C31.669 47.4342 33.302 53.634 33.7708 55.0345C34.4618 57.1026 34.9662 60.3872 31.9112 60.9538C29.1583 61.465 28.4151 58.5353 27.9885 56.4739L27.9863 56.475Z" fill="#BC8E8F"/>
<path d="M149.656 47.0116C152.267 48.1737 154.822 51.1245 156.81 53.1638C158.983 55.3938 160.486 58.3478 159.516 61.5337C158.745 64.0675 154.862 67.0061 153.39 63.3079C152.906 62.0904 153.899 60.7198 153.739 59.4712C153.576 58.1993 152.885 57.3898 151.971 56.4982C151.543 58.0407 151.258 60.1099 149.546 60.793C147.966 61.4239 146.143 60.4548 145.599 58.8901C144.468 55.6322 148.365 49.8803 149.655 47.0105L149.656 47.0116Z" fill="#BC8E8F"/>
<path d="M92.6806 111.043C92.6806 113.684 94.2715 122.494 89.9556 122.511C85.4463 122.527 87.0794 113.683 87.0816 110.984C87.0838 108.314 85.4652 99.6731 89.8622 99.7108C94.357 99.7496 92.6873 108.297 92.6873 111.043H92.6806Z" fill="#BC8E8F"/>
<path d="M109.214 111.376C109.287 114.022 106.237 116.083 104.263 113.812C102.429 111.702 101.889 104.654 101.721 101.916C101.549 99.1132 104.424 96.3842 106.718 99.4281C107.621 100.626 107.641 103.022 107.919 104.459C108.363 106.762 108.777 109.072 109.216 111.378L109.214 111.376Z" fill="#BC8E8F"/>
<path d="M92.6507 90.9129C92.6495 92.9998 92.7218 95.5115 90.0122 95.6623C87.1538 95.822 87.0661 92.9455 87.0883 90.8053C87.1116 88.6042 87.166 85.8086 90.1111 86.0836C92.7951 86.3342 92.6529 88.8082 92.6507 90.9129Z" fill="#BC8E8F"/>
<path d="M105.802 90.996C105.818 92.9288 104.122 94.4347 102.201 93.8536C100.302 93.2792 99.5061 90.3528 99.7428 88.5309C99.9549 86.8919 101.36 85.5956 103.113 85.9549C105.392 86.4229 105.537 89.1652 105.802 90.996Z" fill="#BC8E8F"/>
<path d="M140.908 83.8591C140.813 88.3346 134.149 88.6107 134.717 83.9922C134.847 82.9354 136.579 78.9245 137.65 78.6905C138.58 78.4876 140.468 83.0429 140.908 83.858V83.8591Z" fill="#BC8E8F"/>
<path d="M38.7777 84.2893C39.311 83.2803 40.9463 78.9666 41.9794 78.8491C43.2392 78.7061 44.8034 82.5484 44.9967 83.6129C45.8032 88.0452 39.6109 88.6584 38.7777 84.2893Z" fill="#BC8E8F"/>
<path d="M122.821 26.9927C123.4 25.9204 124.784 22.0471 125.912 21.6889C127.399 21.2165 128.387 24.1129 128.769 25.081C129.47 26.853 129.552 28.6417 127.41 29.5255C125.068 30.4924 124.047 28.5818 122.82 26.9916L122.821 26.9927Z" fill="#BC8E8F"/>
<path d="M53.623 29.6486C52.1299 29.6674 50.8779 28.777 50.5435 27.3232C50.248 26.0436 51.9699 21.9916 53.2241 21.6634C55.4371 21.0846 58.9554 29.582 53.623 29.6486Z" fill="#BC8E8F"/>
<path d="M154.473 131.2C150.398 131.101 150.534 124.661 154.589 124.779C158.629 124.896 158.597 131.3 154.473 131.2Z" fill="#BC8E8F"/>
<path d="M154.358 114.418C154.382 110.567 159.982 110.226 160.543 114.013C161.181 118.321 154.329 119.064 154.358 114.418Z" fill="#BC8E8F"/>
<path d="M22.4794 111.294C26.9209 111.283 26.1144 118.294 21.8995 117.668C18.2346 117.124 18.7156 111.304 22.4794 111.294Z" fill="#BC8E8F"/>
<path d="M25.2079 131.204C21.3363 131.225 21.3852 124.852 25.2556 124.781C29.3116 124.706 29.3305 131.181 25.2079 131.204Z" fill="#BC8E8F"/>
<path d="M94.0293 157.541C92.1141 157.526 89.8089 156.127 90.601 153.87C91.3064 151.861 94.3715 152.103 93.2072 149.323C92.3452 147.265 89.9356 148.19 88.6447 146.882C87.3327 145.555 87.7437 143.567 89.2635 142.59C96.8577 137.711 104.909 154.395 94.0282 157.541H94.0293Z" fill="#BC8E8F"/>
<path d="M68.5226 162.893C68.5259 167.104 62.1237 167.077 62.1048 162.889C62.0859 158.707 68.5193 158.654 68.5226 162.893Z" fill="#BC8E8F"/>
</g>
<defs>
<clipPath id="clip0_25_1065">
<rect width="180" height="183" fill="white"/>
</clipPath>
</defs>
</svg>
