<svg width="43" height="37" viewBox="0 0 43 37" fill="none" xmlns="http://www.w3.org/2000/svg">
<path d="M40.9578 2.42797C40.9578 2.42797 37.3845 4.53897 35.3974 5.13731C34.3309 3.91104 32.9135 3.04189 31.337 2.64741C29.7604 2.25294 28.1008 2.35216 26.5825 2.93168C25.0642 3.51119 23.7604 4.54302 22.8477 5.88761C21.9349 7.23222 21.4571 8.82471 21.4789 10.4497V12.2205C18.3669 12.3012 15.2833 11.611 12.5027 10.2115C9.72203 8.81186 7.3307 6.74631 5.54162 4.19878C5.54162 4.19878 -1.54162 20.1361 14.3957 27.2194C10.7487 29.6948 6.40428 30.9361 2 30.761C17.9373 39.615 37.4162 30.761 37.4162 10.3966C37.4146 9.90335 37.3671 9.41131 37.2745 8.92684C39.0818 7.1445 40.9578 2.42797 40.9578 2.42797Z" stroke="white" stroke-width="4" stroke-linecap="round" stroke-linejoin="round"/>
</svg>
